MFEM mesh v1.0

#
# MFEM Geometry Types (see fem/geom.hpp):
#
# POINT       = 0
# SEGMENT     = 1
# TRIANGLE    = 2
# SQUARE      = 3
# TETRAHEDRON = 4
# CUBE        = 5
# PRISM       = 6
# PYRAMID     = 7
#

dimension
2

elements
1440
1 3 0 1 50 49
1 3 1 2 51 50
1 3 2 3 52 51
1 3 3 4 53 52
1 3 4 5 54 53
1 3 5 6 55 54
1 3 6 7 56 55
1 3 7 8 57 56
1 3 8 9 58 57
1 3 9 10 59 58
1 3 10 11 60 59
1 3 11 12 61 60
1 3 12 13 62 61
1 3 13 14 63 62
1 3 14 15 64 63
1 3 15 16 65 64
1 3 16 17 66 65
1 3 17 18 67 66
1 3 18 19 68 67
1 3 19 20 69 68
1 3 20 21 70 69
1 3 21 22 71 70
1 3 22 23 72 71
1 3 23 24 73 72
1 3 24 25 74 73
1 3 25 26 75 74
1 3 26 27 76 75
1 3 27 28 77 76
1 3 28 29 78 77
1 3 29 30 79 78
1 3 30 31 80 79
1 3 31 32 81 80
1 3 32 33 82 81
1 3 33 34 83 82
1 3 34 35 84 83
1 3 35 36 85 84
1 3 36 37 86 85
1 3 37 38 87 86
1 3 38 39 88 87
1 3 39 40 89 88
1 3 40 41 90 89
1 3 41 42 91 90
1 3 42 43 92 91
1 3 43 44 93 92
1 3 44 45 94 93
1 3 45 46 95 94
1 3 46 47 96 95
1 3 47 48 97 96
1 3 49 50 99 98
1 3 50 51 100 99
1 3 51 52 101 100
1 3 52 53 102 101
1 3 53 54 103 102
1 3 54 55 104 103
1 3 55 56 105 104
1 3 56 57 106 105
1 3 57 58 107 106
1 3 58 59 108 107
1 3 59 60 109 108
1 3 60 61 110 109
1 3 61 62 111 110
1 3 62 63 112 111
1 3 63 64 113 112
1 3 64 65 114 113
1 3 65 66 115 114
1 3 66 67 116 115
1 3 67 68 117 116
1 3 68 69 118 117
1 3 69 70 119 118
1 3 70 71 120 119
1 3 71 72 121 120
1 3 72 73 122 121
1 3 73 74 123 122
1 3 74 75 124 123
1 3 75 76 125 124
1 3 76 77 126 125
1 3 77 78 127 126
1 3 78 79 128 127
1 3 79 80 129 128
1 3 80 81 130 129
1 3 81 82 131 130
1 3 82 83 132 131
1 3 83 84 133 132
1 3 84 85 134 133
1 3 85 86 135 134
1 3 86 87 136 135
1 3 87 88 137 136
1 3 88 89 138 137
1 3 89 90 139 138
1 3 90 91 140 139
1 3 91 92 141 140
1 3 92 93 142 141
1 3 93 94 143 142
1 3 94 95 144 143
1 3 95 96 145 144
1 3 96 97 146 145
1 3 98 99 148 147
1 3 99 100 149 148
1 3 100 101 150 149
1 3 101 102 151 150
1 3 102 103 152 151
1 3 103 104 153 152
1 3 104 105 154 153
1 3 105 106 155 154
1 3 106 107 156 155
1 3 107 108 157 156
1 3 108 109 158 157
1 3 109 110 159 158
1 3 110 111 160 159
1 3 111 112 161 160
1 3 112 113 162 161
1 3 113 114 163 162
1 3 114 115 164 163
1 3 115 116 165 164
1 3 116 117 166 165
1 3 117 118 167 166
1 3 118 119 168 167
1 3 119 120 169 168
1 3 120 121 170 169
1 3 121 122 171 170
1 3 122 123 172 171
1 3 123 124 173 172
1 3 124 125 174 173
1 3 125 126 175 174
1 3 126 127 176 175
1 3 127 128 177 176
1 3 128 129 178 177
1 3 129 130 179 178
1 3 130 131 180 179
1 3 131 132 181 180
1 3 132 133 182 181
1 3 133 134 183 182
1 3 134 135 184 183
1 3 135 136 185 184
1 3 136 137 186 185
1 3 137 138 187 186
1 3 138 139 188 187
1 3 139 140 189 188
1 3 140 141 190 189
1 3 141 142 191 190
1 3 142 143 192 191
1 3 143 144 193 192
1 3 144 145 194 193
1 3 145 146 195 194
1 3 147 148 197 196
1 3 148 149 198 197
1 3 149 150 199 198
1 3 150 151 200 199
1 3 151 152 201 200
1 3 152 153 202 201
1 3 153 154 203 202
1 3 154 155 204 203
1 3 155 156 205 204
1 3 156 157 206 205
1 3 157 158 207 206
1 3 158 159 208 207
1 3 159 160 209 208
1 3 160 161 210 209
1 3 161 162 211 210
1 3 162 163 212 211
1 3 163 164 213 212
1 3 164 165 214 213
1 3 165 166 215 214
1 3 166 167 216 215
1 3 167 168 217 216
1 3 168 169 218 217
1 3 169 170 219 218
1 3 170 171 220 219
1 3 171 172 221 220
1 3 172 173 222 221
1 3 173 174 223 222
1 3 174 175 224 223
1 3 175 176 225 224
1 3 176 177 226 225
1 3 177 178 227 226
1 3 178 179 228 227
1 3 179 180 229 228
1 3 180 181 230 229
1 3 181 182 231 230
1 3 182 183 232 231
1 3 183 184 233 232
1 3 184 185 234 233
1 3 185 186 235 234
1 3 186 187 236 235
1 3 187 188 237 236
1 3 188 189 238 237
1 3 189 190 239 238
1 3 190 191 240 239
1 3 191 192 241 240
1 3 192 193 242 241
1 3 193 194 243 242
1 3 194 195 244 243
1 3 196 197 246 245
1 3 197 198 247 246
1 3 198 199 248 247
1 3 199 200 249 248
1 3 200 201 250 249
1 3 201 202 251 250
1 3 202 203 252 251
1 3 203 204 253 252
1 3 204 205 254 253
1 3 205 206 255 254
1 3 206 207 256 255
1 3 207 208 257 256
1 3 208 209 258 257
1 3 209 210 259 258
1 3 210 211 260 259
1 3 211 212 261 260
1 3 212 213 262 261
1 3 213 214 263 262
1 3 214 215 264 263
1 3 215 216 265 264
1 3 216 217 266 265
1 3 217 218 267 266
1 3 218 219 268 267
1 3 219 220 269 268
1 3 220 221 270 269
1 3 221 222 271 270
1 3 222 223 272 271
1 3 223 224 273 272
1 3 224 225 274 273
1 3 225 226 275 274
1 3 226 227 276 275
1 3 227 228 277 276
1 3 228 229 278 277
1 3 229 230 279 278
1 3 230 231 280 279
1 3 231 232 281 280
1 3 232 233 282 281
1 3 233 234 283 282
1 3 234 235 284 283
1 3 235 236 285 284
1 3 236 237 286 285
1 3 237 238 287 286
1 3 238 239 288 287
1 3 239 240 289 288
1 3 240 241 290 289
1 3 241 242 291 290
1 3 242 243 292 291
1 3 243 244 293 292
1 3 245 246 295 294
1 3 246 247 296 295
1 3 247 248 297 296
1 3 248 249 298 297
1 3 249 250 299 298
1 3 250 251 300 299
1 3 251 252 301 300
1 3 252 253 302 301
1 3 253 254 303 302
1 3 254 255 304 303
1 3 255 256 305 304
1 3 256 257 306 305
1 3 257 258 307 306
1 3 258 259 308 307
1 3 259 260 309 308
1 3 260 261 310 309
1 3 261 262 311 310
1 3 262 263 312 311
1 3 263 264 313 312
1 3 264 265 314 313
1 3 265 266 315 314
1 3 266 267 316 315
1 3 267 268 317 316
1 3 268 269 318 317
1 3 269 270 319 318
1 3 270 271 320 319
1 3 271 272 321 320
1 3 272 273 322 321
1 3 273 274 323 322
1 3 274 275 324 323
1 3 275 276 325 324
1 3 276 277 326 325
1 3 277 278 327 326
1 3 278 279 328 327
1 3 279 280 329 328
1 3 280 281 330 329
1 3 281 282 331 330
1 3 282 283 332 331
1 3 283 284 333 332
1 3 284 285 334 333
1 3 285 286 335 334
1 3 286 287 336 335
1 3 287 288 337 336
1 3 288 289 338 337
1 3 289 290 339 338
1 3 290 291 340 339
1 3 291 292 341 340
1 3 292 293 342 341
1 3 294 295 344 343
1 3 295 296 345 344
1 3 296 297 346 345
1 3 297 298 347 346
1 3 298 299 348 347
1 3 299 300 349 348
1 3 300 301 350 349
1 3 301 302 351 350
1 3 302 303 352 351
1 3 303 304 353 352
1 3 304 305 354 353
1 3 305 306 355 354
1 3 306 307 356 355
1 3 307 308 357 356
1 3 308 309 358 357
1 3 309 310 359 358
1 3 310 311 360 359
1 3 311 312 361 360
1 3 312 313 362 361
1 3 313 314 363 362
1 3 314 315 364 363
1 3 315 316 365 364
1 3 316 317 366 365
1 3 317 318 367 366
1 3 318 319 368 367
1 3 319 320 369 368
1 3 320 321 370 369
1 3 321 322 371 370
1 3 322 323 372 371
1 3 323 324 373 372
1 3 324 325 374 373
1 3 325 326 375 374
1 3 326 327 376 375
1 3 327 328 377 376
1 3 328 329 378 377
1 3 329 330 379 378
1 3 330 331 380 379
1 3 331 332 381 380
1 3 332 333 382 381
1 3 333 334 383 382
1 3 334 335 384 383
1 3 335 336 385 384
1 3 336 337 386 385
1 3 337 338 387 386
1 3 338 339 388 387
1 3 339 340 389 388
1 3 340 341 390 389
1 3 341 342 391 390
1 3 343 344 393 392
1 3 344 345 394 393
1 3 345 346 395 394
1 3 346 347 396 395
1 3 347 348 397 396
1 3 348 349 398 397
1 3 349 350 399 398
1 3 350 351 400 399
1 3 351 352 401 400
1 3 352 353 402 401
1 3 353 354 403 402
1 3 354 355 404 403
1 3 355 356 405 404
1 3 356 357 406 405
1 3 357 358 407 406
1 3 358 359 408 407
1 3 359 360 409 408
1 3 360 361 410 409
1 3 361 362 411 410
1 3 362 363 412 411
1 3 363 364 413 412
1 3 364 365 414 413
1 3 365 366 415 414
1 3 366 367 416 415
1 3 367 368 417 416
1 3 368 369 418 417
1 3 369 370 419 418
1 3 370 371 420 419
1 3 371 372 421 420
1 3 372 373 422 421
1 3 373 374 423 422
1 3 374 375 424 423
1 3 375 376 425 424
1 3 376 377 426 425
1 3 377 378 427 426
1 3 378 379 428 427
1 3 379 380 429 428
1 3 380 381 430 429
1 3 381 382 431 430
1 3 382 383 432 431
1 3 383 384 433 432
1 3 384 385 434 433
1 3 385 386 435 434
1 3 386 387 436 435
1 3 387 388 437 436
1 3 388 389 438 437
1 3 389 390 439 438
1 3 390 391 440 439
1 3 392 393 442 441
1 3 393 394 443 442
1 3 394 395 444 443
1 3 395 396 445 444
1 3 396 397 446 445
1 3 397 398 447 446
1 3 398 399 448 447
1 3 399 400 449 448
1 3 400 401 450 449
1 3 401 402 451 450
1 3 402 403 452 451
1 3 403 404 453 452
1 3 404 405 454 453
1 3 405 406 455 454
1 3 406 407 456 455
1 3 407 408 457 456
1 3 408 409 458 457
1 3 409 410 459 458
1 3 410 411 460 459
1 3 411 412 461 460
1 3 412 413 462 461
1 3 413 414 463 462
1 3 414 415 464 463
1 3 415 416 465 464
1 3 416 417 466 465
1 3 417 418 467 466
1 3 418 419 468 467
1 3 419 420 469 468
1 3 420 421 470 469
1 3 421 422 471 470
1 3 422 423 472 471
1 3 423 424 473 472
1 3 424 425 474 473
1 3 425 426 475 474
1 3 426 427 476 475
1 3 427 428 477 476
1 3 428 429 478 477
1 3 429 430 479 478
1 3 430 431 480 479
1 3 431 432 481 480
1 3 432 433 482 481
1 3 433 434 483 482
1 3 434 435 484 483
1 3 435 436 485 484
1 3 436 437 486 485
1 3 437 438 487 486
1 3 438 439 488 487
1 3 439 440 489 488
1 3 441 442 503 502
1 3 442 443 504 503
1 3 443 444 505 504
1 3 444 445 506 505
1 3 445 446 507 506
1 3 446 447 508 507
1 3 447 448 509 508
1 3 448 449 510 509
1 3 449 450 511 510
1 3 450 451 512 511
1 3 451 452 513 512
1 3 452 453 514 513
1 3 453 454 515 514
1 3 454 455 516 515
1 3 455 456 517 516
1 3 456 457 518 517
1 3 457 458 519 518
1 3 458 459 520 519
1 3 459 460 521 520
1 3 460 461 522 521
1 3 461 462 523 522
1 3 462 463 524 523
1 3 463 464 525 524
1 3 464 465 526 525
1 3 465 466 527 526
1 3 466 467 528 527
1 3 467 468 529 528
1 3 468 469 530 529
1 3 469 470 531 530
1 3 470 471 532 531
1 3 471 472 533 532
1 3 472 473 534 533
1 3 473 474 535 534
1 3 474 475 536 535
1 3 475 476 537 536
1 3 476 477 538 537
1 3 477 478 539 538
1 3 478 479 540 539
1 3 479 480 541 540
1 3 480 481 542 541
1 3 481 482 543 542
1 3 482 483 544 543
1 3 483 484 545 544
1 3 484 485 546 545
1 3 485 486 547 546
1 3 486 487 548 547
1 3 487 488 549 548
1 3 488 489 550 549
1 3 490 491 552 551
1 3 491 492 553 552
1 3 492 493 554 553
1 3 493 494 555 554
1 3 494 495 556 555
1 3 495 496 557 556
1 3 496 497 558 557
1 3 497 498 559 558
1 3 498 499 560 559
1 3 499 500 561 560
1 3 500 501 562 561
1 3 501 502 563 562
1 3 502 503 564 563
1 3 503 504 565 564
1 3 504 505 566 565
1 3 505 506 567 566
1 3 506 507 568 567
1 3 507 508 569 568
1 3 508 509 570 569
1 3 509 510 571 570
1 3 510 511 572 571
1 3 511 512 573 572
1 3 512 513 574 573
1 3 513 514 575 574
1 3 514 515 576 575
1 3 515 516 577 576
1 3 516 517 578 577
1 3 517 518 579 578
1 3 518 519 580 579
1 3 519 520 581 580
1 3 520 521 582 581
1 3 521 522 583 582
1 3 522 523 584 583
1 3 523 524 585 584
1 3 524 525 586 585
1 3 525 526 587 586
1 3 526 527 588 587
1 3 527 528 589 588
1 3 528 529 590 589
1 3 529 530 591 590
1 3 530 531 592 591
1 3 531 532 593 592
1 3 532 533 594 593
1 3 533 534 595 594
1 3 534 535 596 595
1 3 535 536 597 596
1 3 536 537 598 597
1 3 537 538 599 598
1 3 538 539 600 599
1 3 539 540 601 600
1 3 540 541 602 601
1 3 541 542 603 602
1 3 542 543 604 603
1 3 543 544 605 604
1 3 544 545 606 605
1 3 545 546 607 606
1 3 546 547 608 607
1 3 547 548 609 608
1 3 548 549 610 609
1 3 549 550 611 610
1 3 551 552 613 612
1 3 552 553 614 613
1 3 553 554 615 614
1 3 554 555 616 615
1 3 555 556 617 616
1 3 556 557 618 617
1 3 557 558 619 618
1 3 558 559 620 619
1 3 559 560 621 620
1 3 560 561 622 621
1 3 561 562 623 622
1 3 562 563 624 623
1 3 563 564 625 624
1 3 564 565 626 625
1 3 565 566 627 626
1 3 566 567 628 627
1 3 567 568 629 628
1 3 568 569 630 629
1 3 569 570 631 630
1 3 570 571 632 631
1 3 571 572 633 632
1 3 572 573 634 633
1 3 573 574 635 634
1 3 574 575 636 635
1 3 575 576 637 636
1 3 576 577 638 637
1 3 577 578 639 638
1 3 578 579 640 639
1 3 579 580 641 640
1 3 580 581 642 641
1 3 581 582 643 642
1 3 582 583 644 643
1 3 583 584 645 644
1 3 584 585 646 645
1 3 585 586 647 646
1 3 586 587 648 647
1 3 587 588 649 648
1 3 588 589 650 649
1 3 589 590 651 650
1 3 590 591 652 651
1 3 591 592 653 652
1 3 592 593 654 653
1 3 593 594 655 654
1 3 594 595 656 655
1 3 595 596 657 656
1 3 596 597 658 657
1 3 597 598 659 658
1 3 598 599 660 659
1 3 599 600 661 660
1 3 600 601 662 661
1 3 601 602 663 662
1 3 602 603 664 663
1 3 603 604 665 664
1 3 604 605 666 665
1 3 605 606 667 666
1 3 606 607 668 667
1 3 607 608 669 668
1 3 608 609 670 669
1 3 609 610 671 670
1 3 610 611 672 671
1 3 612 613 674 673
1 3 613 614 675 674
1 3 614 615 676 675
1 3 615 616 677 676
1 3 616 617 678 677
1 3 617 618 679 678
1 3 618 619 680 679
1 3 619 620 681 680
1 3 620 621 682 681
1 3 621 622 683 682
1 3 622 623 684 683
1 3 623 624 685 684
1 3 624 625 686 685
1 3 625 626 687 686
1 3 626 627 688 687
1 3 627 628 689 688
1 3 628 629 690 689
1 3 629 630 691 690
1 3 630 631 692 691
1 3 631 632 693 692
1 3 632 633 694 693
1 3 633 634 695 694
1 3 634 635 696 695
1 3 635 636 697 696
1 3 636 637 698 697
1 3 637 638 699 698
1 3 638 639 700 699
1 3 639 640 701 700
1 3 640 641 702 701
1 3 641 642 703 702
1 3 642 643 704 703
1 3 643 644 705 704
1 3 644 645 706 705
1 3 645 646 707 706
1 3 646 647 708 707
1 3 647 648 709 708
1 3 648 649 710 709
1 3 649 650 711 710
1 3 650 651 712 711
1 3 651 652 713 712
1 3 652 653 714 713
1 3 653 654 715 714
1 3 654 655 716 715
1 3 655 656 717 716
1 3 656 657 718 717
1 3 657 658 719 718
1 3 658 659 720 719
1 3 659 660 721 720
1 3 660 661 722 721
1 3 661 662 723 722
1 3 662 663 724 723
1 3 663 664 725 724
1 3 664 665 726 725
1 3 665 666 727 726
1 3 666 667 728 727
1 3 667 668 729 728
1 3 668 669 730 729
1 3 669 670 731 730
1 3 670 671 732 731
1 3 671 672 733 732
1 3 673 674 735 734
1 3 674 675 736 735
1 3 675 676 737 736
1 3 676 677 738 737
1 3 677 678 739 738
1 3 678 679 740 739
1 3 679 680 741 740
1 3 680 681 742 741
1 3 681 682 743 742
1 3 682 683 744 743
1 3 683 684 745 744
1 3 684 685 746 745
1 3 685 686 747 746
1 3 686 687 748 747
1 3 687 688 749 748
1 3 688 689 750 749
1 3 689 690 751 750
1 3 690 691 752 751
1 3 691 692 753 752
1 3 692 693 754 753
1 3 693 694 755 754
1 3 694 695 756 755
1 3 695 696 757 756
1 3 696 697 758 757
1 3 697 698 759 758
1 3 698 699 760 759
1 3 699 700 761 760
1 3 700 701 762 761
1 3 701 702 763 762
1 3 702 703 764 763
1 3 703 704 765 764
1 3 704 705 766 765
1 3 705 706 767 766
1 3 706 707 768 767
1 3 707 708 769 768
1 3 708 709 770 769
1 3 709 710 771 770
1 3 710 711 772 771
1 3 711 712 773 772
1 3 712 713 774 773
1 3 713 714 775 774
1 3 714 715 776 775
1 3 715 716 777 776
1 3 716 717 778 777
1 3 717 718 779 778
1 3 718 719 780 779
1 3 719 720 781 780
1 3 720 721 782 781
1 3 721 722 783 782
1 3 722 723 784 783
1 3 723 724 785 784
1 3 724 725 786 785
1 3 725 726 787 786
1 3 726 727 788 787
1 3 727 728 789 788
1 3 728 729 790 789
1 3 729 730 791 790
1 3 730 731 792 791
1 3 731 732 793 792
1 3 732 733 794 793
1 3 734 735 796 795
1 3 735 736 797 796
1 3 736 737 798 797
1 3 737 738 799 798
1 3 738 739 800 799
1 3 739 740 801 800
1 3 740 741 802 801
1 3 741 742 803 802
1 3 742 743 804 803
1 3 743 744 805 804
1 3 744 745 806 805
1 3 745 746 807 806
1 3 746 747 808 807
1 3 747 748 809 808
1 3 748 749 810 809
1 3 749 750 811 810
1 3 750 751 812 811
1 3 751 752 813 812
1 3 752 753 814 813
1 3 753 754 815 814
1 3 754 755 816 815
1 3 755 756 817 816
1 3 756 757 818 817
1 3 757 758 819 818
1 3 758 759 820 819
1 3 759 760 821 820
1 3 760 761 822 821
1 3 761 762 823 822
1 3 762 763 824 823
1 3 763 764 825 824
1 3 764 765 826 825
1 3 765 766 827 826
1 3 766 767 828 827
1 3 767 768 829 828
1 3 768 769 830 829
1 3 769 770 831 830
1 3 770 771 832 831
1 3 771 772 833 832
1 3 772 773 834 833
1 3 773 774 835 834
1 3 774 775 836 835
1 3 775 776 837 836
1 3 776 777 838 837
1 3 777 778 839 838
1 3 778 779 840 839
1 3 779 780 841 840
1 3 780 781 842 841
1 3 781 782 843 842
1 3 782 783 844 843
1 3 783 784 845 844
1 3 784 785 846 845
1 3 785 786 847 846
1 3 786 787 848 847
1 3 787 788 849 848
1 3 788 789 850 849
1 3 789 790 851 850
1 3 790 791 852 851
1 3 791 792 853 852
1 3 792 793 854 853
1 3 793 794 855 854
1 3 795 796 857 856
1 3 796 797 858 857
1 3 797 798 859 858
1 3 798 799 860 859
1 3 799 800 861 860
1 3 800 801 862 861
1 3 801 802 863 862
1 3 802 803 864 863
1 3 803 804 865 864
1 3 804 805 866 865
1 3 805 806 867 866
1 3 806 807 868 867
1 3 807 808 869 868
1 3 808 809 870 869
1 3 809 810 871 870
1 3 810 811 872 871
1 3 811 812 873 872
1 3 812 813 874 873
1 3 813 814 875 874
1 3 814 815 876 875
1 3 815 816 877 876
1 3 816 817 878 877
1 3 817 818 879 878
1 3 818 819 880 879
1 3 819 820 881 880
1 3 820 821 882 881
1 3 821 822 883 882
1 3 822 823 884 883
1 3 823 824 885 884
1 3 824 825 886 885
1 3 825 826 887 886
1 3 826 827 888 887
1 3 827 828 889 888
1 3 828 829 890 889
1 3 829 830 891 890
1 3 830 831 892 891
1 3 831 832 893 892
1 3 832 833 894 893
1 3 833 834 895 894
1 3 834 835 896 895
1 3 835 836 897 896
1 3 836 837 898 897
1 3 837 838 899 898
1 3 838 839 900 899
1 3 839 840 901 900
1 3 840 841 902 901
1 3 841 842 903 902
1 3 842 843 904 903
1 3 843 844 905 904
1 3 844 845 906 905
1 3 845 846 907 906
1 3 846 847 908 907
1 3 847 848 909 908
1 3 848 849 910 909
1 3 849 850 911 910
1 3 850 851 912 911
1 3 851 852 913 912
1 3 852 853 914 913
1 3 853 854 915 914
1 3 854 855 916 915
1 3 856 857 918 917
1 3 857 858 919 918
1 3 858 859 920 919
1 3 859 860 921 920
1 3 860 861 922 921
1 3 861 862 923 922
1 3 862 863 924 923
1 3 863 864 925 924
1 3 864 865 926 925
1 3 865 866 927 926
1 3 866 867 928 927
1 3 867 868 929 928
1 3 868 869 930 929
1 3 869 870 931 930
1 3 870 871 932 931
1 3 871 872 933 932
1 3 872 873 934 933
1 3 873 874 935 934
1 3 874 875 936 935
1 3 875 876 937 936
1 3 876 877 938 937
1 3 877 878 939 938
1 3 878 879 940 939
1 3 879 880 941 940
1 3 880 881 942 941
1 3 881 882 943 942
1 3 882 883 944 943
1 3 883 884 945 944
1 3 884 885 946 945
1 3 885 886 947 946
1 3 886 887 948 947
1 3 887 888 949 948
1 3 888 889 950 949
1 3 889 890 951 950
1 3 890 891 952 951
1 3 891 892 953 952
1 3 892 893 954 953
1 3 893 894 955 954
1 3 894 895 956 955
1 3 895 896 957 956
1 3 896 897 958 957
1 3 897 898 959 958
1 3 898 899 960 959
1 3 899 900 961 960
1 3 900 901 962 961
1 3 901 902 963 962
1 3 902 903 964 963
1 3 903 904 965 964
1 3 904 905 966 965
1 3 905 906 967 966
1 3 906 907 968 967
1 3 907 908 969 968
1 3 908 909 970 969
1 3 909 910 971 970
1 3 910 911 972 971
1 3 911 912 973 972
1 3 912 913 974 973
1 3 913 914 975 974
1 3 914 915 976 975
1 3 915 916 977 976
1 3 917 918 979 978
1 3 918 919 980 979
1 3 919 920 981 980
1 3 920 921 982 981
1 3 921 922 983 982
1 3 922 923 984 983
1 3 923 924 985 984
1 3 924 925 986 985
1 3 925 926 987 986
1 3 926 927 988 987
1 3 927 928 989 988
1 3 928 929 990 989
1 3 929 930 991 990
1 3 930 931 992 991
1 3 931 932 993 992
1 3 932 933 994 993
1 3 933 934 995 994
1 3 934 935 996 995
1 3 935 936 997 996
1 3 936 937 998 997
1 3 937 938 999 998
1 3 938 939 1000 999
1 3 939 940 1001 1000
1 3 940 941 1002 1001
1 3 941 942 1003 1002
1 3 942 943 1004 1003
1 3 943 944 1005 1004
1 3 944 945 1006 1005
1 3 945 946 1007 1006
1 3 946 947 1008 1007
1 3 947 948 1009 1008
1 3 948 949 1010 1009
1 3 949 950 1011 1010
1 3 950 951 1012 1011
1 3 951 952 1013 1012
1 3 952 953 1014 1013
1 3 953 954 1015 1014
1 3 954 955 1016 1015
1 3 955 956 1017 1016
1 3 956 957 1018 1017
1 3 957 958 1019 1018
1 3 958 959 1020 1019
1 3 959 960 1021 1020
1 3 960 961 1022 1021
1 3 961 962 1023 1022
1 3 962 963 1024 1023
1 3 963 964 1025 1024
1 3 964 965 1026 1025
1 3 965 966 1027 1026
1 3 966 967 1028 1027
1 3 967 968 1029 1028
1 3 968 969 1030 1029
1 3 969 970 1031 1030
1 3 970 971 1032 1031
1 3 971 972 1033 1032
1 3 972 973 1034 1033
1 3 973 974 1035 1034
1 3 974 975 1036 1035
1 3 975 976 1037 1036
1 3 976 977 1038 1037
1 3 978 979 1040 1039
1 3 979 980 1041 1040
1 3 980 981 1042 1041
1 3 981 982 1043 1042
1 3 982 983 1044 1043
1 3 983 984 1045 1044
1 3 984 985 1046 1045
1 3 985 986 1047 1046
1 3 986 987 1048 1047
1 3 987 988 1049 1048
1 3 988 989 1050 1049
1 3 989 990 1051 1050
1 3 990 991 1052 1051
1 3 991 992 1053 1052
1 3 992 993 1054 1053
1 3 993 994 1055 1054
1 3 994 995 1056 1055
1 3 995 996 1057 1056
1 3 996 997 1058 1057
1 3 997 998 1059 1058
1 3 998 999 1060 1059
1 3 999 1000 1061 1060
1 3 1000 1001 1062 1061
1 3 1001 1002 1063 1062
1 3 1002 1003 1064 1063
1 3 1003 1004 1065 1064
1 3 1004 1005 1066 1065
1 3 1005 1006 1067 1066
1 3 1006 1007 1068 1067
1 3 1007 1008 1069 1068
1 3 1008 1009 1070 1069
1 3 1009 1010 1071 1070
1 3 1010 1011 1072 1071
1 3 1011 1012 1073 1072
1 3 1012 1013 1074 1073
1 3 1013 1014 1075 1074
1 3 1014 1015 1076 1075
1 3 1015 1016 1077 1076
1 3 1016 1017 1078 1077
1 3 1017 1018 1079 1078
1 3 1018 1019 1080 1079
1 3 1019 1020 1081 1080
1 3 1020 1021 1082 1081
1 3 1021 1022 1083 1082
1 3 1022 1023 1084 1083
1 3 1023 1024 1085 1084
1 3 1024 1025 1086 1085
1 3 1025 1026 1087 1086
1 3 1026 1027 1088 1087
1 3 1027 1028 1089 1088
1 3 1028 1029 1090 1089
1 3 1029 1030 1091 1090
1 3 1030 1031 1092 1091
1 3 1031 1032 1093 1092
1 3 1032 1033 1094 1093
1 3 1033 1034 1095 1094
1 3 1034 1035 1096 1095
1 3 1035 1036 1097 1096
1 3 1036 1037 1098 1097
1 3 1037 1038 1099 1098
1 3 1039 1040 1101 1100
1 3 1040 1041 1102 1101
1 3 1041 1042 1103 1102
1 3 1042 1043 1104 1103
1 3 1043 1044 1105 1104
1 3 1044 1045 1106 1105
1 3 1045 1046 1107 1106
1 3 1046 1047 1108 1107
1 3 1047 1048 1109 1108
1 3 1048 1049 1110 1109
1 3 1049 1050 1111 1110
1 3 1050 1051 1112 1111
1 3 1051 1052 1113 1112
1 3 1052 1053 1114 1113
1 3 1053 1054 1115 1114
1 3 1054 1055 1116 1115
1 3 1055 1056 1117 1116
1 3 1056 1057 1118 1117
1 3 1057 1058 1119 1118
1 3 1058 1059 1120 1119
1 3 1059 1060 1121 1120
1 3 1060 1061 1122 1121
1 3 1061 1062 1123 1122
1 3 1062 1063 1124 1123
1 3 1063 1064 1125 1124
1 3 1064 1065 1126 1125
1 3 1065 1066 1127 1126
1 3 1066 1067 1128 1127
1 3 1067 1068 1129 1128
1 3 1068 1069 1130 1129
1 3 1069 1070 1131 1130
1 3 1070 1071 1132 1131
1 3 1071 1072 1133 1132
1 3 1072 1073 1134 1133
1 3 1073 1074 1135 1134
1 3 1074 1075 1136 1135
1 3 1075 1076 1137 1136
1 3 1076 1077 1138 1137
1 3 1077 1078 1139 1138
1 3 1078 1079 1140 1139
1 3 1079 1080 1141 1140
1 3 1080 1081 1142 1141
1 3 1081 1082 1143 1142
1 3 1082 1083 1144 1143
1 3 1083 1084 1145 1144
1 3 1084 1085 1146 1145
1 3 1085 1086 1147 1146
1 3 1086 1087 1148 1147
1 3 1087 1088 1149 1148
1 3 1088 1089 1150 1149
1 3 1089 1090 1151 1150
1 3 1090 1091 1152 1151
1 3 1091 1092 1153 1152
1 3 1092 1093 1154 1153
1 3 1093 1094 1155 1154
1 3 1094 1095 1156 1155
1 3 1095 1096 1157 1156
1 3 1096 1097 1158 1157
1 3 1097 1098 1159 1158
1 3 1098 1099 1160 1159
1 3 1100 1101 1162 1161
1 3 1101 1102 1163 1162
1 3 1102 1103 1164 1163
1 3 1103 1104 1165 1164
1 3 1104 1105 1166 1165
1 3 1105 1106 1167 1166
1 3 1106 1107 1168 1167
1 3 1107 1108 1169 1168
1 3 1108 1109 1170 1169
1 3 1109 1110 1171 1170
1 3 1110 1111 1172 1171
1 3 1111 1112 1173 1172
1 3 1112 1113 1174 1173
1 3 1113 1114 1175 1174
1 3 1114 1115 1176 1175
1 3 1115 1116 1177 1176
1 3 1116 1117 1178 1177
1 3 1117 1118 1179 1178
1 3 1118 1119 1180 1179
1 3 1119 1120 1181 1180
1 3 1120 1121 1182 1181
1 3 1121 1122 1183 1182
1 3 1122 1123 1184 1183
1 3 1123 1124 1185 1184
1 3 1124 1125 1186 1185
1 3 1125 1126 1187 1186
1 3 1126 1127 1188 1187
1 3 1127 1128 1189 1188
1 3 1128 1129 1190 1189
1 3 1129 1130 1191 1190
1 3 1130 1131 1192 1191
1 3 1131 1132 1193 1192
1 3 1132 1133 1194 1193
1 3 1133 1134 1195 1194
1 3 1134 1135 1196 1195
1 3 1135 1136 1197 1196
1 3 1136 1137 1198 1197
1 3 1137 1138 1199 1198
1 3 1138 1139 1200 1199
1 3 1139 1140 1201 1200
1 3 1140 1141 1202 1201
1 3 1141 1142 1203 1202
1 3 1142 1143 1204 1203
1 3 1143 1144 1205 1204
1 3 1144 1145 1206 1205
1 3 1145 1146 1207 1206
1 3 1146 1147 1208 1207
1 3 1147 1148 1209 1208
1 3 1148 1149 1210 1209
1 3 1149 1150 1211 1210
1 3 1150 1151 1212 1211
1 3 1151 1152 1213 1212
1 3 1152 1153 1214 1213
1 3 1153 1154 1215 1214
1 3 1154 1155 1216 1215
1 3 1155 1156 1217 1216
1 3 1156 1157 1218 1217
1 3 1157 1158 1219 1218
1 3 1158 1159 1220 1219
1 3 1159 1160 1221 1220
1 3 1161 1162 1223 1222
1 3 1162 1163 1224 1223
1 3 1163 1164 1225 1224
1 3 1164 1165 1226 1225
1 3 1165 1166 1227 1226
1 3 1166 1167 1228 1227
1 3 1167 1168 1229 1228
1 3 1168 1169 1230 1229
1 3 1169 1170 1231 1230
1 3 1170 1171 1232 1231
1 3 1171 1172 1233 1232
1 3 1172 1173 1234 1233
1 3 1173 1174 1235 1234
1 3 1174 1175 1236 1235
1 3 1175 1176 1237 1236
1 3 1176 1177 1238 1237
1 3 1177 1178 1239 1238
1 3 1178 1179 1240 1239
1 3 1179 1180 1241 1240
1 3 1180 1181 1242 1241
1 3 1181 1182 1243 1242
1 3 1182 1183 1244 1243
1 3 1183 1184 1245 1244
1 3 1184 1185 1246 1245
1 3 1185 1186 1247 1246
1 3 1186 1187 1248 1247
1 3 1187 1188 1249 1248
1 3 1188 1189 1250 1249
1 3 1189 1190 1251 1250
1 3 1190 1191 1252 1251
1 3 1191 1192 1253 1252
1 3 1192 1193 1254 1253
1 3 1193 1194 1255 1254
1 3 1194 1195 1256 1255
1 3 1195 1196 1257 1256
1 3 1196 1197 1258 1257
1 3 1197 1198 1259 1258
1 3 1198 1199 1260 1259
1 3 1199 1200 1261 1260
1 3 1200 1201 1262 1261
1 3 1201 1202 1263 1262
1 3 1202 1203 1264 1263
1 3 1203 1204 1265 1264
1 3 1204 1205 1266 1265
1 3 1205 1206 1267 1266
1 3 1206 1207 1268 1267
1 3 1207 1208 1269 1268
1 3 1208 1209 1270 1269
1 3 1209 1210 1271 1270
1 3 1210 1211 1272 1271
1 3 1211 1212 1273 1272
1 3 1212 1213 1274 1273
1 3 1213 1214 1275 1274
1 3 1214 1215 1276 1275
1 3 1215 1216 1277 1276
1 3 1216 1217 1278 1277
1 3 1217 1218 1279 1278
1 3 1218 1219 1280 1279
1 3 1219 1220 1281 1280
1 3 1220 1221 1282 1281
1 3 1222 1223 1284 1283
1 3 1223 1224 1285 1284
1 3 1224 1225 1286 1285
1 3 1225 1226 1287 1286
1 3 1226 1227 1288 1287
1 3 1227 1228 1289 1288
1 3 1228 1229 1290 1289
1 3 1229 1230 1291 1290
1 3 1230 1231 1292 1291
1 3 1231 1232 1293 1292
1 3 1232 1233 1294 1293
1 3 1233 1234 1295 1294
1 3 1234 1235 1296 1295
1 3 1235 1236 1297 1296
1 3 1236 1237 1298 1297
1 3 1237 1238 1299 1298
1 3 1238 1239 1300 1299
1 3 1239 1240 1301 1300
1 3 1240 1241 1302 1301
1 3 1241 1242 1303 1302
1 3 1242 1243 1304 1303
1 3 1243 1244 1305 1304
1 3 1244 1245 1306 1305
1 3 1245 1246 1307 1306
1 3 1246 1247 1308 1307
1 3 1247 1248 1309 1308
1 3 1248 1249 1310 1309
1 3 1249 1250 1311 1310
1 3 1250 1251 1312 1311
1 3 1251 1252 1313 1312
1 3 1252 1253 1314 1313
1 3 1253 1254 1315 1314
1 3 1254 1255 1316 1315
1 3 1255 1256 1317 1316
1 3 1256 1257 1318 1317
1 3 1257 1258 1319 1318
1 3 1258 1259 1320 1319
1 3 1259 1260 1321 1320
1 3 1260 1261 1322 1321
1 3 1261 1262 1323 1322
1 3 1262 1263 1324 1323
1 3 1263 1264 1325 1324
1 3 1264 1265 1326 1325
1 3 1265 1266 1327 1326
1 3 1266 1267 1328 1327
1 3 1267 1268 1329 1328
1 3 1268 1269 1330 1329
1 3 1269 1270 1331 1330
1 3 1270 1271 1332 1331
1 3 1271 1272 1333 1332
1 3 1272 1273 1334 1333
1 3 1273 1274 1335 1334
1 3 1274 1275 1336 1335
1 3 1275 1276 1337 1336
1 3 1276 1277 1338 1337
1 3 1277 1278 1339 1338
1 3 1278 1279 1340 1339
1 3 1279 1280 1341 1340
1 3 1280 1281 1342 1341
1 3 1281 1282 1343 1342
1 3 1283 1284 1345 1344
1 3 1284 1285 1346 1345
1 3 1285 1286 1347 1346
1 3 1286 1287 1348 1347
1 3 1287 1288 1349 1348
1 3 1288 1289 1350 1349
1 3 1289 1290 1351 1350
1 3 1290 1291 1352 1351
1 3 1291 1292 1353 1352
1 3 1292 1293 1354 1353
1 3 1293 1294 1355 1354
1 3 1294 1295 1356 1355
1 3 1295 1296 1357 1356
1 3 1296 1297 1358 1357
1 3 1297 1298 1359 1358
1 3 1298 1299 1360 1359
1 3 1299 1300 1361 1360
1 3 1300 1301 1362 1361
1 3 1301 1302 1363 1362
1 3 1302 1303 1364 1363
1 3 1303 1304 1365 1364
1 3 1304 1305 1366 1365
1 3 1305 1306 1367 1366
1 3 1306 1307 1368 1367
1 3 1307 1308 1369 1368
1 3 1308 1309 1370 1369
1 3 1309 1310 1371 1370
1 3 1310 1311 1372 1371
1 3 1311 1312 1373 1372
1 3 1312 1313 1374 1373
1 3 1313 1314 1375 1374
1 3 1314 1315 1376 1375
1 3 1315 1316 1377 1376
1 3 1316 1317 1378 1377
1 3 1317 1318 1379 1378
1 3 1318 1319 1380 1379
1 3 1319 1320 1381 1380
1 3 1320 1321 1382 1381
1 3 1321 1322 1383 1382
1 3 1322 1323 1384 1383
1 3 1323 1324 1385 1384
1 3 1324 1325 1386 1385
1 3 1325 1326 1387 1386
1 3 1326 1327 1388 1387
1 3 1327 1328 1389 1388
1 3 1328 1329 1390 1389
1 3 1329 1330 1391 1390
1 3 1330 1331 1392 1391
1 3 1331 1332 1393 1392
1 3 1332 1333 1394 1393
1 3 1333 1334 1395 1394
1 3 1334 1335 1396 1395
1 3 1335 1336 1397 1396
1 3 1336 1337 1398 1397
1 3 1337 1338 1399 1398
1 3 1338 1339 1400 1399
1 3 1339 1340 1401 1400
1 3 1340 1341 1402 1401
1 3 1341 1342 1403 1402
1 3 1342 1343 1404 1403
1 3 1344 1345 1406 1405
1 3 1345 1346 1407 1406
1 3 1346 1347 1408 1407
1 3 1347 1348 1409 1408
1 3 1348 1349 1410 1409
1 3 1349 1350 1411 1410
1 3 1350 1351 1412 1411
1 3 1351 1352 1413 1412
1 3 1352 1353 1414 1413
1 3 1353 1354 1415 1414
1 3 1354 1355 1416 1415
1 3 1355 1356 1417 1416
1 3 1356 1357 1418 1417
1 3 1357 1358 1419 1418
1 3 1358 1359 1420 1419
1 3 1359 1360 1421 1420
1 3 1360 1361 1422 1421
1 3 1361 1362 1423 1422
1 3 1362 1363 1424 1423
1 3 1363 1364 1425 1424
1 3 1364 1365 1426 1425
1 3 1365 1366 1427 1426
1 3 1366 1367 1428 1427
1 3 1367 1368 1429 1428
1 3 1368 1369 1430 1429
1 3 1369 1370 1431 1430
1 3 1370 1371 1432 1431
1 3 1371 1372 1433 1432
1 3 1372 1373 1434 1433
1 3 1373 1374 1435 1434
1 3 1374 1375 1436 1435
1 3 1375 1376 1437 1436
1 3 1376 1377 1438 1437
1 3 1377 1378 1439 1438
1 3 1378 1379 1440 1439
1 3 1379 1380 1441 1440
1 3 1380 1381 1442 1441
1 3 1381 1382 1443 1442
1 3 1382 1383 1444 1443
1 3 1383 1384 1445 1444
1 3 1384 1385 1446 1445
1 3 1385 1386 1447 1446
1 3 1386 1387 1448 1447
1 3 1387 1388 1449 1448
1 3 1388 1389 1450 1449
1 3 1389 1390 1451 1450
1 3 1390 1391 1452 1451
1 3 1391 1392 1453 1452
1 3 1392 1393 1454 1453
1 3 1393 1394 1455 1454
1 3 1394 1395 1456 1455
1 3 1395 1396 1457 1456
1 3 1396 1397 1458 1457
1 3 1397 1398 1459 1458
1 3 1398 1399 1460 1459
1 3 1399 1400 1461 1460
1 3 1400 1401 1462 1461
1 3 1401 1402 1463 1462
1 3 1402 1403 1464 1463
1 3 1403 1404 1465 1464
1 3 1405 1406 1467 1466
1 3 1406 1407 1468 1467
1 3 1407 1408 1469 1468
1 3 1408 1409 1470 1469
1 3 1409 1410 1471 1470
1 3 1410 1411 1472 1471
1 3 1411 1412 1473 1472
1 3 1412 1413 1474 1473
1 3 1413 1414 1475 1474
1 3 1414 1415 1476 1475
1 3 1415 1416 1477 1476
1 3 1416 1417 1478 1477
1 3 1417 1418 1479 1478
1 3 1418 1419 1480 1479
1 3 1419 1420 1481 1480
1 3 1420 1421 1482 1481
1 3 1421 1422 1483 1482
1 3 1422 1423 1484 1483
1 3 1423 1424 1485 1484
1 3 1424 1425 1486 1485
1 3 1425 1426 1487 1486
1 3 1426 1427 1488 1487
1 3 1427 1428 1489 1488
1 3 1428 1429 1490 1489
1 3 1429 1430 1491 1490
1 3 1430 1431 1492 1491
1 3 1431 1432 1493 1492
1 3 1432 1433 1494 1493
1 3 1433 1434 1495 1494
1 3 1434 1435 1496 1495
1 3 1435 1436 1497 1496
1 3 1436 1437 1498 1497
1 3 1437 1438 1499 1498
1 3 1438 1439 1500 1499
1 3 1439 1440 1501 1500
1 3 1440 1441 1502 1501
1 3 1441 1442 1503 1502
1 3 1442 1443 1504 1503
1 3 1443 1444 1505 1504
1 3 1444 1445 1506 1505
1 3 1445 1446 1507 1506
1 3 1446 1447 1508 1507
1 3 1447 1448 1509 1508
1 3 1448 1449 1510 1509
1 3 1449 1450 1511 1510
1 3 1450 1451 1512 1511
1 3 1451 1452 1513 1512
1 3 1452 1453 1514 1513
1 3 1453 1454 1515 1514
1 3 1454 1455 1516 1515
1 3 1455 1456 1517 1516
1 3 1456 1457 1518 1517
1 3 1457 1458 1519 1518
1 3 1458 1459 1520 1519
1 3 1459 1460 1521 1520
1 3 1460 1461 1522 1521
1 3 1461 1462 1523 1522
1 3 1462 1463 1524 1523
1 3 1463 1464 1525 1524
1 3 1464 1465 1526 1525

boundary
172
4 1 0 1
4 1 49 0
4 1 1 2
4 1 2 3
4 1 3 4
4 1 4 5
4 1 5 6
4 1 6 7
4 1 7 8
4 1 8 9
4 1 9 10
4 1 10 11
4 1 11 12
4 1 12 13
4 1 13 14
4 1 14 15
4 1 15 16
4 1 16 17
4 1 17 18
4 1 18 19
4 1 19 20
4 1 20 21
4 1 21 22
4 1 22 23
4 1 23 24
4 1 24 25
4 1 25 26
4 1 26 27
4 1 27 28
4 1 28 29
4 1 29 30
4 1 30 31
4 1 31 32
4 1 32 33
4 1 33 34
4 1 34 35
4 1 35 36
4 1 36 37
4 1 37 38
4 1 38 39
4 1 39 40
4 1 40 41
4 1 41 42
4 1 42 43
4 1 43 44
4 1 44 45
4 1 45 46
4 1 46 47
4 1 47 48
1 1 48 97
4 1 98 49
1 1 97 146
4 1 147 98
1 1 146 195
4 1 196 147
1 1 195 244
4 1 245 196
1 1 244 293
4 1 294 245
1 1 293 342
4 1 343 294
1 1 342 391
4 1 392 343
1 1 391 440
4 1 441 392
1 1 440 489
4 1 502 441
1 1 489 550
4 1 490 491
1 1 551 490
4 1 491 492
4 1 492 493
4 1 493 494
4 1 494 495
4 1 495 496
4 1 496 497
4 1 497 498
4 1 498 499
4 1 499 500
4 1 500 501
4 1 501 502
1 1 550 611
1 1 612 551
1 1 611 672
1 1 673 612
1 1 672 733
1 1 734 673
1 1 733 794
1 1 795 734
1 1 794 855
1 1 856 795
1 1 855 916
1 1 917 856
1 1 916 977
1 1 978 917
1 1 977 1038
1 1 1039 978
1 1 1038 1099
1 1 1100 1039
1 1 1099 1160
1 1 1161 1100
1 1 1160 1221
1 1 1222 1161
1 1 1221 1282
1 1 1283 1222
1 1 1282 1343
1 1 1344 1283
1 1 1343 1404
1 1 1405 1344
1 1 1404 1465
2 1 1467 1466
1 1 1466 1405
2 1 1468 1467
2 1 1469 1468
2 1 1470 1469
2 1 1471 1470
2 1 1472 1471
2 1 1473 1472
2 1 1474 1473
2 1 1475 1474
2 1 1476 1475
2 1 1477 1476
2 1 1478 1477
2 1 1479 1478
2 1 1480 1479
2 1 1481 1480
2 1 1482 1481
2 1 1483 1482
2 1 1484 1483
2 1 1485 1484
2 1 1486 1485
2 1 1487 1486
2 1 1488 1487
2 1 1489 1488
2 1 1490 1489
2 1 1491 1490
2 1 1492 1491
2 1 1493 1492
2 1 1494 1493
2 1 1495 1494
2 1 1496 1495
2 1 1497 1496
2 1 1498 1497
2 1 1499 1498
2 1 1500 1499
2 1 1501 1500
2 1 1502 1501
2 1 1503 1502
2 1 1504 1503
2 1 1505 1504
2 1 1506 1505
2 1 1507 1506
2 1 1508 1507
2 1 1509 1508
2 1 1510 1509
2 1 1511 1510
2 1 1512 1511
2 1 1513 1512
2 1 1514 1513
2 1 1515 1514
2 1 1516 1515
2 1 1517 1516
2 1 1518 1517
2 1 1519 1518
2 1 1520 1519
2 1 1521 1520
2 1 1522 1521
2 1 1523 1522
2 1 1524 1523
2 1 1525 1524
1 1 1465 1526
2 1 1526 1525

vertices
1527
2
0 0
0.0056482905 0
0.01966849 0
0.040807058 0
0.06848966 0
0.10234415 0
0.14209843 0
0.18753982 0
0.23849485 0
0.29481769 0
0.35638304 0
0.42308133 0
0.49481547 0
0.57149845 0
0.65305158 0
0.73940314 0
0.83048729 0
0.9262433 0
1.0266148 0
1.1315494 0
1.2409978 0
1.3549141 0
1.4732547 0
1.5959788 0
1.7230475 0
1.854424 0
1.9900732 0
2.1299617 0
2.2740577 0
2.4223306 0
2.5747513 0
2.7312916 0
2.8919247 0
3.0566247 0
3.2253665 0
3.3981262 0
3.5748805 0
3.7556069 0
3.9402837 0
4.12889 0
4.3214054 0
4.51781 0
4.7180848 0
4.9222112 0
5.130171 0
5.3419467 0
5.5575211 0
5.7768776 0
6 0
0 0.0022083507
0.0056482905 0.0022083507
0.01966849 0.0022083507
0.040807058 0.0022083507
0.06848966 0.0022083507
0.10234415 0.0022083507
0.14209843 0.0022083507
0.18753982 0.0022083507
0.23849485 0.0022083507
0.29481769 0.0022083507
0.35638304 0.0022083507
0.42308133 0.0022083507
0.49481547 0.0022083507
0.57149845 0.0022083507
0.65305158 0.0022083507
0.73940314 0.0022083507
0.83048729 0.0022083507
0.9262433 0.0022083507
1.0266148 0.0022083507
1.1315494 0.0022083507
1.2409978 0.0022083507
1.3549141 0.0022083507
1.4732547 0.0022083507
1.5959788 0.0022083507
1.7230475 0.0022083507
1.854424 0.0022083507
1.9900732 0.0022083507
2.1299617 0.0022083507
2.2740577 0.0022083507
2.4223306 0.0022083507
2.5747513 0.0022083507
2.7312916 0.0022083507
2.8919247 0.0022083507
3.0566247 0.0022083507
3.2253665 0.0022083507
3.3981262 0.0022083507
3.5748805 0.0022083507
3.7556069 0.0022083507
3.9402837 0.0022083507
4.12889 0.0022083507
4.3214054 0.0022083507
4.51781 0.0022083507
4.7180848 0.0022083507
4.9222112 0.0022083507
5.130171 0.0022083507
5.3419467 0.0022083507
5.5575211 0.0022083507
5.7768776 0.0022083507
6 0.0022083507
0 0.010146915
0.0056482905 0.010146915
0.01966849 0.010146915
0.040807058 0.010146915
0.06848966 0.010146915
0.10234415 0.010146915
0.14209843 0.010146915
0.18753982 0.010146915
0.23849485 0.010146915
0.29481769 0.010146915
0.35638304 0.010146915
0.42308133 0.010146915
0.49481547 0.010146915
0.57149845 0.010146915
0.65305158 0.010146915
0.73940314 0.010146915
0.83048729 0.010146915
0.9262433 0.010146915
1.0266148 0.010146915
1.1315494 0.010146915
1.2409978 0.010146915
1.3549141 0.010146915
1.4732547 0.010146915
1.5959788 0.010146915
1.7230475 0.010146915
1.854424 0.010146915
1.9900732 0.010146915
2.1299617 0.010146915
2.2740577 0.010146915
2.4223306 0.010146915
2.5747513 0.010146915
2.7312916 0.010146915
2.8919247 0.010146915
3.0566247 0.010146915
3.2253665 0.010146915
3.3981262 0.010146915
3.5748805 0.010146915
3.7556069 0.010146915
3.9402837 0.010146915
4.12889 0.010146915
4.3214054 0.010146915
4.51781 0.010146915
4.7180848 0.010146915
4.9222112 0.010146915
5.130171 0.010146915
5.3419467 0.010146915
5.5575211 0.010146915
5.7768776 0.010146915
6 0.010146915
0 0.024759097
0.0056482905 0.024759097
0.01966849 0.024759097
0.040807058 0.024759097
0.06848966 0.024759097
0.10234415 0.024759097
0.14209843 0.024759097
0.18753982 0.024759097
0.23849485 0.024759097
0.29481769 0.024759097
0.35638304 0.024759097
0.42308133 0.024759097
0.49481547 0.024759097
0.57149845 0.024759097
0.65305158 0.024759097
0.73940314 0.024759097
0.83048729 0.024759097
0.9262433 0.024759097
1.0266148 0.024759097
1.1315494 0.024759097
1.2409978 0.024759097
1.3549141 0.024759097
1.4732547 0.024759097
1.5959788 0.024759097
1.7230475 0.024759097
1.854424 0.024759097
1.9900732 0.024759097
2.1299617 0.024759097
2.2740577 0.024759097
2.4223306 0.024759097
2.5747513 0.024759097
2.7312916 0.024759097
2.8919247 0.024759097
3.0566247 0.024759097
3.2253665 0.024759097
3.3981262 0.024759097
3.5748805 0.024759097
3.7556069 0.024759097
3.9402837 0.024759097
4.12889 0.024759097
4.3214054 0.024759097
4.51781 0.024759097
4.7180848 0.024759097
4.9222112 0.024759097
5.130171 0.024759097
5.3419467 0.024759097
5.5575211 0.024759097
5.7768776 0.024759097
6 0.024759097
0 0.04662298
0.0056482905 0.04662298
0.01966849 0.04662298
0.040807058 0.04662298
0.06848966 0.04662298
0.10234415 0.04662298
0.14209843 0.04662298
0.18753982 0.04662298
0.23849485 0.04662298
0.29481769 0.04662298
0.35638304 0.04662298
0.42308133 0.04662298
0.49481547 0.04662298
0.57149845 0.04662298
0.65305158 0.04662298
0.73940314 0.04662298
0.83048729 0.04662298
0.9262433 0.04662298
1.0266148 0.04662298
1.1315494 0.04662298
1.2409978 0.04662298
1.3549141 0.04662298
1.4732547 0.04662298
1.5959788 0.04662298
1.7230475 0.04662298
1.854424 0.04662298
1.9900732 0.04662298
2.1299617 0.04662298
2.2740577 0.04662298
2.4223306 0.04662298
2.5747513 0.04662298
2.7312916 0.04662298
2.8919247 0.04662298
3.0566247 0.04662298
3.2253665 0.04662298
3.3981262 0.04662298
3.5748805 0.04662298
3.7556069 0.04662298
3.9402837 0.04662298
4.12889 0.04662298
4.3214054 0.04662298
4.51781 0.04662298
4.7180848 0.04662298
4.9222112 0.04662298
5.130171 0.04662298
5.3419467 0.04662298
5.5575211 0.04662298
5.7768776 0.04662298
6 0.04662298
0 0.076173174
0.0056482905 0.076173174
0.01966849 0.076173174
0.040807058 0.076173174
0.06848966 0.076173174
0.10234415 0.076173174
0.14209843 0.076173174
0.18753982 0.076173174
0.23849485 0.076173174
0.29481769 0.076173174
0.35638304 0.076173174
0.42308133 0.076173174
0.49481547 0.076173174
0.57149845 0.076173174
0.65305158 0.076173174
0.73940314 0.076173174
0.83048729 0.076173174
0.9262433 0.076173174
1.0266148 0.076173174
1.1315494 0.076173174
1.2409978 0.076173174
1.3549141 0.076173174
1.4732547 0.076173174
1.5959788 0.076173174
1.7230475 0.076173174
1.854424 0.076173174
1.9900732 0.076173174
2.1299617 0.076173174
2.2740577 0.076173174
2.4223306 0.076173174
2.5747513 0.076173174
2.7312916 0.076173174
2.8919247 0.076173174
3.0566247 0.076173174
3.2253665 0.076173174
3.3981262 0.076173174
3.5748805 0.076173174
3.7556069 0.076173174
3.9402837 0.076173174
4.12889 0.076173174
4.3214054 0.076173174
4.51781 0.076173174
4.7180848 0.076173174
4.9222112 0.076173174
5.130171 0.076173174
5.3419467 0.076173174
5.5575211 0.076173174
5.7768776 0.076173174
6 0.076173174
0 0.11376294
0.0056482905 0.11376294
0.01966849 0.11376294
0.040807058 0.11376294
0.06848966 0.11376294
0.10234415 0.11376294
0.14209843 0.11376294
0.18753982 0.11376294
0.23849485 0.11376294
0.29481769 0.11376294
0.35638304 0.11376294
0.42308133 0.11376294
0.49481547 0.11376294
0.57149845 0.11376294
0.65305158 0.11376294
0.73940314 0.11376294
0.83048729 0.11376294
0.9262433 0.11376294
1.0266148 0.11376294
1.1315494 0.11376294
1.2409978 0.11376294
1.3549141 0.11376294
1.4732547 0.11376294
1.5959788 0.11376294
1.7230475 0.11376294
1.854424 0.11376294
1.9900732 0.11376294
2.1299617 0.11376294
2.2740577 0.11376294
2.4223306 0.11376294
2.5747513 0.11376294
2.7312916 0.11376294
2.8919247 0.11376294
3.0566247 0.11376294
3.2253665 0.11376294
3.3981262 0.11376294
3.5748805 0.11376294
3.7556069 0.11376294
3.9402837 0.11376294
4.12889 0.11376294
4.3214054 0.11376294
4.51781 0.11376294
4.7180848 0.11376294
4.9222112 0.11376294
5.130171 0.11376294
5.3419467 0.11376294
5.5575211 0.11376294
5.7768776 0.11376294
6 0.11376294
0 0.15969221
0.0056482905 0.15969221
0.01966849 0.15969221
0.040807058 0.15969221
0.06848966 0.15969221
0.10234415 0.15969221
0.14209843 0.15969221
0.18753982 0.15969221
0.23849485 0.15969221
0.29481769 0.15969221
0.35638304 0.15969221
0.42308133 0.15969221
0.49481547 0.15969221
0.57149845 0.15969221
0.65305158 0.15969221
0.73940314 0.15969221
0.83048729 0.15969221
0.9262433 0.15969221
1.0266148 0.15969221
1.1315494 0.15969221
1.2409978 0.15969221
1.3549141 0.15969221
1.4732547 0.15969221
1.5959788 0.15969221
1.7230475 0.15969221
1.854424 0.15969221
1.9900732 0.15969221
2.1299617 0.15969221
2.2740577 0.15969221
2.4223306 0.15969221
2.5747513 0.15969221
2.7312916 0.15969221
2.8919247 0.15969221
3.0566247 0.15969221
3.2253665 0.15969221
3.3981262 0.15969221
3.5748805 0.15969221
3.7556069 0.15969221
3.9402837 0.15969221
4.12889 0.15969221
4.3214054 0.15969221
4.51781 0.15969221
4.7180848 0.15969221
4.9222112 0.15969221
5.130171 0.15969221
5.3419467 0.15969221
5.5575211 0.15969221
5.7768776 0.15969221
6 0.15969221
0 0.21422296
0.0056482905 0.21422296
0.01966849 0.21422296
0.040807058 0.21422296
0.06848966 0.21422296
0.10234415 0.21422296
0.14209843 0.21422296
0.18753982 0.21422296
0.23849485 0.21422296
0.29481769 0.21422296
0.35638304 0.21422296
0.42308133 0.21422296
0.49481547 0.21422296
0.57149845 0.21422296
0.65305158 0.21422296
0.73940314 0.21422296
0.83048729 0.21422296
0.9262433 0.21422296
1.0266148 0.21422296
1.1315494 0.21422296
1.2409978 0.21422296
1.3549141 0.21422296
1.4732547 0.21422296
1.5959788 0.21422296
1.7230475 0.21422296
1.854424 0.21422296
1.9900732 0.21422296
2.1299617 0.21422296
2.2740577 0.21422296
2.4223306 0.21422296
2.5747513 0.21422296
2.7312916 0.21422296
2.8919247 0.21422296
3.0566247 0.21422296
3.2253665 0.21422296
3.3981262 0.21422296
3.5748805 0.21422296
3.7556069 0.21422296
3.9402837 0.21422296
4.12889 0.21422296
4.3214054 0.21422296
4.51781 0.21422296
4.7180848 0.21422296
4.9222112 0.21422296
5.130171 0.21422296
5.3419467 0.21422296
5.5575211 0.21422296
5.7768776 0.21422296
6 0.21422296
0 0.27758856
0.0056482905 0.27758856
0.01966849 0.27758856
0.040807058 0.27758856
0.06848966 0.27758856
0.10234415 0.27758856
0.14209843 0.27758856
0.18753982 0.27758856
0.23849485 0.27758856
0.29481769 0.27758856
0.35638304 0.27758856
0.42308133 0.27758856
0.49481547 0.27758856
0.57149845 0.27758856
0.65305158 0.27758856
0.73940314 0.27758856
0.83048729 0.27758856
0.9262433 0.27758856
1.0266148 0.27758856
1.1315494 0.27758856
1.2409978 0.27758856
1.3549141 0.27758856
1.4732547 0.27758856
1.5959788 0.27758856
1.7230475 0.27758856
1.854424 0.27758856
1.9900732 0.27758856
2.1299617 0.27758856
2.2740577 0.27758856
2.4223306 0.27758856
2.5747513 0.27758856
2.7312916 0.27758856
2.8919247 0.27758856
3.0566247 0.27758856
3.2253665 0.27758856
3.3981262 0.27758856
3.5748805 0.27758856
3.7556069 0.27758856
3.9402837 0.27758856
4.12889 0.27758856
4.3214054 0.27758856
4.51781 0.27758856
4.7180848 0.27758856
4.9222112 0.27758856
5.130171 0.27758856
5.3419467 0.27758856
5.5575211 0.27758856
5.7768776 0.27758856
6 0.27758856
-2 0.35
-1.710057 0.35
-1.4404685 0.35
-1.1916268 0.35
-0.96397491 0.35
-0.75801923 0.35
-0.57434918 0.35
-0.41366594 0.35
-0.2768291 0.35
-0.16493849 0.35
-0.079498282 0.35
-0.022829887 0.35
0 0.35
0.0056482905 0.35
0.01966849 0.35
0.040807058 0.35
0.06848966 0.35
0.10234415 0.35
0.14209843 0.35
0.18753982 0.35
0.23849485 0.35
0.29481769 0.35
0.35638304 0.35
0.42308133 0.35
0.49481547 0.35
0.57149845 0.35
0.65305158 0.35
0.73940314 0.35
0.83048729 0.35
0.9262433 0.35
1.0266148 0.35
1.1315494 0.35
1.2409978 0.35
1.3549141 0.35
1.4732547 0.35
1.5959788 0.35
1.7230475 0.35
1.854424 0.35
1.9900732 0.35
2.1299617 0.35
2.2740577 0.35
2.4223306 0.35
2.5747513 0.35
2.7312916 0.35
2.8919247 0.35
3.0566247 0.35
3.2253665 0.35
3.3981262 0.35
3.5748805 0.35
3.7556069 0.35
3.9402837 0.35
4.12889 0.35
4.3214054 0.35
4.51781 0.35
4.7180848 0.35
4.9222112 0.35
5.130171 0.35
5.3419467 0.35
5.5575211 0.35
5.7768776 0.35
6 0.35
-2 0.3502763
-1.710057 0.3502763
-1.4404685 0.3502763
-1.1916268 0.3502763
-0.96397491 0.3502763
-0.75801923 0.3502763
-0.57434918 0.3502763
-0.41366594 0.3502763
-0.2768291 0.3502763
-0.16493849 0.3502763
-0.079498282 0.3502763
-0.022829887 0.3502763
0 0.3502763
0.0056482905 0.3502763
0.01966849 0.3502763
0.040807058 0.3502763
0.06848966 0.3502763
0.10234415 0.3502763
0.14209843 0.3502763
0.18753982 0.3502763
0.23849485 0.3502763
0.29481769 0.3502763
0.35638304 0.3502763
0.42308133 0.3502763
0.49481547 0.3502763
0.57149845 0.3502763
0.65305158 0.3502763
0.73940314 0.3502763
0.83048729 0.3502763
0.9262433 0.3502763
1.0266148 0.3502763
1.1315494 0.3502763
1.2409978 0.3502763
1.3549141 0.3502763
1.4732547 0.3502763
1.5959788 0.3502763
1.7230475 0.3502763
1.854424 0.3502763
1.9900732 0.3502763
2.1299617 0.3502763
2.2740577 0.3502763
2.4223306 0.3502763
2.5747513 0.3502763
2.7312916 0.3502763
2.8919247 0.3502763
3.0566247 0.3502763
3.2253665 0.3502763
3.3981262 0.3502763
3.5748805 0.3502763
3.7556069 0.3502763
3.9402837 0.3502763
4.12889 0.3502763
4.3214054 0.3502763
4.51781 0.3502763
4.7180848 0.3502763
4.9222112 0.3502763
5.130171 0.3502763
5.3419467 0.3502763
5.5575211 0.3502763
5.7768776 0.3502763
6 0.3502763
-2 0.35192425
-1.710057 0.35192425
-1.4404685 0.35192425
-1.1916268 0.35192425
-0.96397491 0.35192425
-0.75801923 0.35192425
-0.57434918 0.35192425
-0.41366594 0.35192425
-0.2768291 0.35192425
-0.16493849 0.35192425
-0.079498282 0.35192425
-0.022829887 0.35192425
0 0.35192425
0.0056482905 0.35192425
0.01966849 0.35192425
0.040807058 0.35192425
0.06848966 0.35192425
0.10234415 0.35192425
0.14209843 0.35192425
0.18753982 0.35192425
0.23849485 0.35192425
0.29481769 0.35192425
0.35638304 0.35192425
0.42308133 0.35192425
0.49481547 0.35192425
0.57149845 0.35192425
0.65305158 0.35192425
0.73940314 0.35192425
0.83048729 0.35192425
0.9262433 0.35192425
1.0266148 0.35192425
1.1315494 0.35192425
1.2409978 0.35192425
1.3549141 0.35192425
1.4732547 0.35192425
1.5959788 0.35192425
1.7230475 0.35192425
1.854424 0.35192425
1.9900732 0.35192425
2.1299617 0.35192425
2.2740577 0.35192425
2.4223306 0.35192425
2.5747513 0.35192425
2.7312916 0.35192425
2.8919247 0.35192425
3.0566247 0.35192425
3.2253665 0.35192425
3.3981262 0.35192425
3.5748805 0.35192425
3.7556069 0.35192425
3.9402837 0.35192425
4.12889 0.35192425
4.3214054 0.35192425
4.51781 0.35192425
4.7180848 0.35192425
4.9222112 0.35192425
5.130171 0.35192425
5.3419467 0.35192425
5.5575211 0.35192425
5.7768776 0.35192425
6 0.35192425
-2 0.35598848
-1.710057 0.35598848
-1.4404685 0.35598848
-1.1916268 0.35598848
-0.96397491 0.35598848
-0.75801923 0.35598848
-0.57434918 0.35598848
-0.41366594 0.35598848
-0.2768291 0.35598848
-0.16493849 0.35598848
-0.079498282 0.35598848
-0.022829887 0.35598848
0 0.35598848
0.0056482905 0.35598848
0.01966849 0.35598848
0.040807058 0.35598848
0.06848966 0.35598848
0.10234415 0.35598848
0.14209843 0.35598848
0.18753982 0.35598848
0.23849485 0.35598848
0.29481769 0.35598848
0.35638304 0.35598848
0.42308133 0.35598848
0.49481547 0.35598848
0.57149845 0.35598848
0.65305158 0.35598848
0.73940314 0.35598848
0.83048729 0.35598848
0.9262433 0.35598848
1.0266148 0.35598848
1.1315494 0.35598848
1.2409978 0.35598848
1.3549141 0.35598848
1.4732547 0.35598848
1.5959788 0.35598848
1.7230475 0.35598848
1.854424 0.35598848
1.9900732 0.35598848
2.1299617 0.35598848
2.2740577 0.35598848
2.4223306 0.35598848
2.5747513 0.35598848
2.7312916 0.35598848
2.8919247 0.35598848
3.0566247 0.35598848
3.2253665 0.35598848
3.3981262 0.35598848
3.5748805 0.35598848
3.7556069 0.35598848
3.9402837 0.35598848
4.12889 0.35598848
4.3214054 0.35598848
4.51781 0.35598848
4.7180848 0.35598848
4.9222112 0.35598848
5.130171 0.35598848
5.3419467 0.35598848
5.5575211 0.35598848
5.7768776 0.35598848
6 0.35598848
-2 0.36340125
-1.710057 0.36340125
-1.4404685 0.36340125
-1.1916268 0.36340125
-0.96397491 0.36340125
-0.75801923 0.36340125
-0.57434918 0.36340125
-0.41366594 0.36340125
-0.2768291 0.36340125
-0.16493849 0.36340125
-0.079498282 0.36340125
-0.022829887 0.36340125
0 0.36340125
0.0056482905 0.36340125
0.01966849 0.36340125
0.040807058 0.36340125
0.06848966 0.36340125
0.10234415 0.36340125
0.14209843 0.36340125
0.18753982 0.36340125
0.23849485 0.36340125
0.29481769 0.36340125
0.35638304 0.36340125
0.42308133 0.36340125
0.49481547 0.36340125
0.57149845 0.36340125
0.65305158 0.36340125
0.73940314 0.36340125
0.83048729 0.36340125
0.9262433 0.36340125
1.0266148 0.36340125
1.1315494 0.36340125
1.2409978 0.36340125
1.3549141 0.36340125
1.4732547 0.36340125
1.5959788 0.36340125
1.7230475 0.36340125
1.854424 0.36340125
1.9900732 0.36340125
2.1299617 0.36340125
2.2740577 0.36340125
2.4223306 0.36340125
2.5747513 0.36340125
2.7312916 0.36340125
2.8919247 0.36340125
3.0566247 0.36340125
3.2253665 0.36340125
3.3981262 0.36340125
3.5748805 0.36340125
3.7556069 0.36340125
3.9402837 0.36340125
4.12889 0.36340125
4.3214054 0.36340125
4.51781 0.36340125
4.7180848 0.36340125
4.9222112 0.36340125
5.130171 0.36340125
5.3419467 0.36340125
5.5575211 0.36340125
5.7768776 0.36340125
6 0.36340125
-2 0.37503188
-1.710057 0.37503188
-1.4404685 0.37503188
-1.1916268 0.37503188
-0.96397491 0.37503188
-0.75801923 0.37503188
-0.57434918 0.37503188
-0.41366594 0.37503188
-0.2768291 0.37503188
-0.16493849 0.37503188
-0.079498282 0.37503188
-0.022829887 0.37503188
0 0.37503188
0.0056482905 0.37503188
0.01966849 0.37503188
0.040807058 0.37503188
0.06848966 0.37503188
0.10234415 0.37503188
0.14209843 0.37503188
0.18753982 0.37503188
0.23849485 0.37503188
0.29481769 0.37503188
0.35638304 0.37503188
0.42308133 0.37503188
0.49481547 0.37503188
0.57149845 0.37503188
0.65305158 0.37503188
0.73940314 0.37503188
0.83048729 0.37503188
0.9262433 0.37503188
1.0266148 0.37503188
1.1315494 0.37503188
1.2409978 0.37503188
1.3549141 0.37503188
1.4732547 0.37503188
1.5959788 0.37503188
1.7230475 0.37503188
1.854424 0.37503188
1.9900732 0.37503188
2.1299617 0.37503188
2.2740577 0.37503188
2.4223306 0.37503188
2.5747513 0.37503188
2.7312916 0.37503188
2.8919247 0.37503188
3.0566247 0.37503188
3.2253665 0.37503188
3.3981262 0.37503188
3.5748805 0.37503188
3.7556069 0.37503188
3.9402837 0.37503188
4.12889 0.37503188
4.3214054 0.37503188
4.51781 0.37503188
4.7180848 0.37503188
4.9222112 0.37503188
5.130171 0.37503188
5.3419467 0.37503188
5.5575211 0.37503188
5.7768776 0.37503188
6 0.37503188
-2 0.39170623
-1.710057 0.39170623
-1.4404685 0.39170623
-1.1916268 0.39170623
-0.96397491 0.39170623
-0.75801923 0.39170623
-0.57434918 0.39170623
-0.41366594 0.39170623
-0.2768291 0.39170623
-0.16493849 0.39170623
-0.079498282 0.39170623
-0.022829887 0.39170623
0 0.39170623
0.0056482905 0.39170623
0.01966849 0.39170623
0.040807058 0.39170623
0.06848966 0.39170623
0.10234415 0.39170623
0.14209843 0.39170623
0.18753982 0.39170623
0.23849485 0.39170623
0.29481769 0.39170623
0.35638304 0.39170623
0.42308133 0.39170623
0.49481547 0.39170623
0.57149845 0.39170623
0.65305158 0.39170623
0.73940314 0.39170623
0.83048729 0.39170623
0.9262433 0.39170623
1.0266148 0.39170623
1.1315494 0.39170623
1.2409978 0.39170623
1.3549141 0.39170623
1.4732547 0.39170623
1.5959788 0.39170623
1.7230475 0.39170623
1.854424 0.39170623
1.9900732 0.39170623
2.1299617 0.39170623
2.2740577 0.39170623
2.4223306 0.39170623
2.5747513 0.39170623
2.7312916 0.39170623
2.8919247 0.39170623
3.0566247 0.39170623
3.2253665 0.39170623
3.3981262 0.39170623
3.5748805 0.39170623
3.7556069 0.39170623
3.9402837 0.39170623
4.12889 0.39170623
4.3214054 0.39170623
4.51781 0.39170623
4.7180848 0.39170623
4.9222112 0.39170623
5.130171 0.39170623
5.3419467 0.39170623
5.5575211 0.39170623
5.7768776 0.39170623
6 0.39170623
-2 0.41421728
-1.710057 0.41421728
-1.4404685 0.41421728
-1.1916268 0.41421728
-0.96397491 0.41421728
-0.75801923 0.41421728
-0.57434918 0.41421728
-0.41366594 0.41421728
-0.2768291 0.41421728
-0.16493849 0.41421728
-0.079498282 0.41421728
-0.022829887 0.41421728
0 0.41421728
0.0056482905 0.41421728
0.01966849 0.41421728
0.040807058 0.41421728
0.06848966 0.41421728
0.10234415 0.41421728
0.14209843 0.41421728
0.18753982 0.41421728
0.23849485 0.41421728
0.29481769 0.41421728
0.35638304 0.41421728
0.42308133 0.41421728
0.49481547 0.41421728
0.57149845 0.41421728
0.65305158 0.41421728
0.73940314 0.41421728
0.83048729 0.41421728
0.9262433 0.41421728
1.0266148 0.41421728
1.1315494 0.41421728
1.2409978 0.41421728
1.3549141 0.41421728
1.4732547 0.41421728
1.5959788 0.41421728
1.7230475 0.41421728
1.854424 0.41421728
1.9900732 0.41421728
2.1299617 0.41421728
2.2740577 0.41421728
2.4223306 0.41421728
2.5747513 0.41421728
2.7312916 0.41421728
2.8919247 0.41421728
3.0566247 0.41421728
3.2253665 0.41421728
3.3981262 0.41421728
3.5748805 0.41421728
3.7556069 0.41421728
3.9402837 0.41421728
4.12889 0.41421728
4.3214054 0.41421728
4.51781 0.41421728
4.7180848 0.41421728
4.9222112 0.41421728
5.130171 0.41421728
5.3419467 0.41421728
5.5575211 0.41421728
5.7768776 0.41421728
6 0.41421728
-2 0.44333174
-1.710057 0.44333174
-1.4404685 0.44333174
-1.1916268 0.44333174
-0.96397491 0.44333174
-0.75801923 0.44333174
-0.57434918 0.44333174
-0.41366594 0.44333174
-0.2768291 0.44333174
-0.16493849 0.44333174
-0.079498282 0.44333174
-0.022829887 0.44333174
0 0.44333174
0.0056482905 0.44333174
0.01966849 0.44333174
0.040807058 0.44333174
0.06848966 0.44333174
0.10234415 0.44333174
0.14209843 0.44333174
0.18753982 0.44333174
0.23849485 0.44333174
0.29481769 0.44333174
0.35638304 0.44333174
0.42308133 0.44333174
0.49481547 0.44333174
0.57149845 0.44333174
0.65305158 0.44333174
0.73940314 0.44333174
0.83048729 0.44333174
0.9262433 0.44333174
1.0266148 0.44333174
1.1315494 0.44333174
1.2409978 0.44333174
1.3549141 0.44333174
1.4732547 0.44333174
1.5959788 0.44333174
1.7230475 0.44333174
1.854424 0.44333174
1.9900732 0.44333174
2.1299617 0.44333174
2.2740577 0.44333174
2.4223306 0.44333174
2.5747513 0.44333174
2.7312916 0.44333174
2.8919247 0.44333174
3.0566247 0.44333174
3.2253665 0.44333174
3.3981262 0.44333174
3.5748805 0.44333174
3.7556069 0.44333174
3.9402837 0.44333174
4.12889 0.44333174
4.3214054 0.44333174
4.51781 0.44333174
4.7180848 0.44333174
4.9222112 0.44333174
5.130171 0.44333174
5.3419467 0.44333174
5.5575211 0.44333174
5.7768776 0.44333174
6 0.44333174
-2 0.47979454
-1.710057 0.47979454
-1.4404685 0.47979454
-1.1916268 0.47979454
-0.96397491 0.47979454
-0.75801923 0.47979454
-0.57434918 0.47979454
-0.41366594 0.47979454
-0.2768291 0.47979454
-0.16493849 0.47979454
-0.079498282 0.47979454
-0.022829887 0.47979454
0 0.47979454
0.0056482905 0.47979454
0.01966849 0.47979454
0.040807058 0.47979454
0.06848966 0.47979454
0.10234415 0.47979454
0.14209843 0.47979454
0.18753982 0.47979454
0.23849485 0.47979454
0.29481769 0.47979454
0.35638304 0.47979454
0.42308133 0.47979454
0.49481547 0.47979454
0.57149845 0.47979454
0.65305158 0.47979454
0.73940314 0.47979454
0.83048729 0.47979454
0.9262433 0.47979454
1.0266148 0.47979454
1.1315494 0.47979454
1.2409978 0.47979454
1.3549141 0.47979454
1.4732547 0.47979454
1.5959788 0.47979454
1.7230475 0.47979454
1.854424 0.47979454
1.9900732 0.47979454
2.1299617 0.47979454
2.2740577 0.47979454
2.4223306 0.47979454
2.5747513 0.47979454
2.7312916 0.47979454
2.8919247 0.47979454
3.0566247 0.47979454
3.2253665 0.47979454
3.3981262 0.47979454
3.5748805 0.47979454
3.7556069 0.47979454
3.9402837 0.47979454
4.12889 0.47979454
4.3214054 0.47979454
4.51781 0.47979454
4.7180848 0.47979454
4.9222112 0.47979454
5.130171 0.47979454
5.3419467 0.47979454
5.5575211 0.47979454
5.7768776 0.47979454
6 0.47979454
-2 0.52433212
-1.710057 0.52433212
-1.4404685 0.52433212
-1.1916268 0.52433212
-0.96397491 0.52433212
-0.75801923 0.52433212
-0.57434918 0.52433212
-0.41366594 0.52433212
-0.2768291 0.52433212
-0.16493849 0.52433212
-0.079498282 0.52433212
-0.022829887 0.52433212
0 0.52433212
0.0056482905 0.52433212
0.01966849 0.52433212
0.040807058 0.52433212
0.06848966 0.52433212
0.10234415 0.52433212
0.14209843 0.52433212
0.18753982 0.52433212
0.23849485 0.52433212
0.29481769 0.52433212
0.35638304 0.52433212
0.42308133 0.52433212
0.49481547 0.52433212
0.57149845 0.52433212
0.65305158 0.52433212
0.73940314 0.52433212
0.83048729 0.52433212
0.9262433 0.52433212
1.0266148 0.52433212
1.1315494 0.52433212
1.2409978 0.52433212
1.3549141 0.52433212
1.4732547 0.52433212
1.5959788 0.52433212
1.7230475 0.52433212
1.854424 0.52433212
1.9900732 0.52433212
2.1299617 0.52433212
2.2740577 0.52433212
2.4223306 0.52433212
2.5747513 0.52433212
2.7312916 0.52433212
2.8919247 0.52433212
3.0566247 0.52433212
3.2253665 0.52433212
3.3981262 0.52433212
3.5748805 0.52433212
3.7556069 0.52433212
3.9402837 0.52433212
4.12889 0.52433212
4.3214054 0.52433212
4.51781 0.52433212
4.7180848 0.52433212
4.9222112 0.52433212
5.130171 0.52433212
5.3419467 0.52433212
5.5575211 0.52433212
5.7768776 0.52433212
6 0.52433212
-2 0.57765486
-1.710057 0.57765486
-1.4404685 0.57765486
-1.1916268 0.57765486
-0.96397491 0.57765486
-0.75801923 0.57765486
-0.57434918 0.57765486
-0.41366594 0.57765486
-0.2768291 0.57765486
-0.16493849 0.57765486
-0.079498282 0.57765486
-0.022829887 0.57765486
0 0.57765486
0.0056482905 0.57765486
0.01966849 0.57765486
0.040807058 0.57765486
0.06848966 0.57765486
0.10234415 0.57765486
0.14209843 0.57765486
0.18753982 0.57765486
0.23849485 0.57765486
0.29481769 0.57765486
0.35638304 0.57765486
0.42308133 0.57765486
0.49481547 0.57765486
0.57149845 0.57765486
0.65305158 0.57765486
0.73940314 0.57765486
0.83048729 0.57765486
0.9262433 0.57765486
1.0266148 0.57765486
1.1315494 0.57765486
1.2409978 0.57765486
1.3549141 0.57765486
1.4732547 0.57765486
1.5959788 0.57765486
1.7230475 0.57765486
1.854424 0.57765486
1.9900732 0.57765486
2.1299617 0.57765486
2.2740577 0.57765486
2.4223306 0.57765486
2.5747513 0.57765486
2.7312916 0.57765486
2.8919247 0.57765486
3.0566247 0.57765486
3.2253665 0.57765486
3.3981262 0.57765486
3.5748805 0.57765486
3.7556069 0.57765486
3.9402837 0.57765486
4.12889 0.57765486
4.3214054 0.57765486
4.51781 0.57765486
4.7180848 0.57765486
4.9222112 0.57765486
5.130171 0.57765486
5.3419467 0.57765486
5.5575211 0.57765486
5.7768776 0.57765486
6 0.57765486
-2 0.64045904
-1.710057 0.64045904
-1.4404685 0.64045904
-1.1916268 0.64045904
-0.96397491 0.64045904
-0.75801923 0.64045904
-0.57434918 0.64045904
-0.41366594 0.64045904
-0.2768291 0.64045904
-0.16493849 0.64045904
-0.079498282 0.64045904
-0.022829887 0.64045904
0 0.64045904
0.0056482905 0.64045904
0.01966849 0.64045904
0.040807058 0.64045904
0.06848966 0.64045904
0.10234415 0.64045904
0.14209843 0.64045904
0.18753982 0.64045904
0.23849485 0.64045904
0.29481769 0.64045904
0.35638304 0.64045904
0.42308133 0.64045904
0.49481547 0.64045904
0.57149845 0.64045904
0.65305158 0.64045904
0.73940314 0.64045904
0.83048729 0.64045904
0.9262433 0.64045904
1.0266148 0.64045904
1.1315494 0.64045904
1.2409978 0.64045904
1.3549141 0.64045904
1.4732547 0.64045904
1.5959788 0.64045904
1.7230475 0.64045904
1.854424 0.64045904
1.9900732 0.64045904
2.1299617 0.64045904
2.2740577 0.64045904
2.4223306 0.64045904
2.5747513 0.64045904
2.7312916 0.64045904
2.8919247 0.64045904
3.0566247 0.64045904
3.2253665 0.64045904
3.3981262 0.64045904
3.5748805 0.64045904
3.7556069 0.64045904
3.9402837 0.64045904
4.12889 0.64045904
4.3214054 0.64045904
4.51781 0.64045904
4.7180848 0.64045904
4.9222112 0.64045904
5.130171 0.64045904
5.3419467 0.64045904
5.5575211 0.64045904
5.7768776 0.64045904
6 0.64045904
-2 0.71342834
-1.710057 0.71342834
-1.4404685 0.71342834
-1.1916268 0.71342834
-0.96397491 0.71342834
-0.75801923 0.71342834
-0.57434918 0.71342834
-0.41366594 0.71342834
-0.2768291 0.71342834
-0.16493849 0.71342834
-0.079498282 0.71342834
-0.022829887 0.71342834
0 0.71342834
0.0056482905 0.71342834
0.01966849 0.71342834
0.040807058 0.71342834
0.06848966 0.71342834
0.10234415 0.71342834
0.14209843 0.71342834
0.18753982 0.71342834
0.23849485 0.71342834
0.29481769 0.71342834
0.35638304 0.71342834
0.42308133 0.71342834
0.49481547 0.71342834
0.57149845 0.71342834
0.65305158 0.71342834
0.73940314 0.71342834
0.83048729 0.71342834
0.9262433 0.71342834
1.0266148 0.71342834
1.1315494 0.71342834
1.2409978 0.71342834
1.3549141 0.71342834
1.4732547 0.71342834
1.5959788 0.71342834
1.7230475 0.71342834
1.854424 0.71342834
1.9900732 0.71342834
2.1299617 0.71342834
2.2740577 0.71342834
2.4223306 0.71342834
2.5747513 0.71342834
2.7312916 0.71342834
2.8919247 0.71342834
3.0566247 0.71342834
3.2253665 0.71342834
3.3981262 0.71342834
3.5748805 0.71342834
3.7556069 0.71342834
3.9402837 0.71342834
4.12889 0.71342834
4.3214054 0.71342834
4.51781 0.71342834
4.7180848 0.71342834
4.9222112 0.71342834
5.130171 0.71342834
5.3419467 0.71342834
5.5575211 0.71342834
5.7768776 0.71342834
6 0.71342834
-2 0.79723513
-1.710057 0.79723513
-1.4404685 0.79723513
-1.1916268 0.79723513
-0.96397491 0.79723513
-0.75801923 0.79723513
-0.57434918 0.79723513
-0.41366594 0.79723513
-0.2768291 0.79723513
-0.16493849 0.79723513
-0.079498282 0.79723513
-0.022829887 0.79723513
0 0.79723513
0.0056482905 0.79723513
0.01966849 0.79723513
0.040807058 0.79723513
0.06848966 0.79723513
0.10234415 0.79723513
0.14209843 0.79723513
0.18753982 0.79723513
0.23849485 0.79723513
0.29481769 0.79723513
0.35638304 0.79723513
0.42308133 0.79723513
0.49481547 0.79723513
0.57149845 0.79723513
0.65305158 0.79723513
0.73940314 0.79723513
0.83048729 0.79723513
0.9262433 0.79723513
1.0266148 0.79723513
1.1315494 0.79723513
1.2409978 0.79723513
1.3549141 0.79723513
1.4732547 0.79723513
1.5959788 0.79723513
1.7230475 0.79723513
1.854424 0.79723513
1.9900732 0.79723513
2.1299617 0.79723513
2.2740577 0.79723513
2.4223306 0.79723513
2.5747513 0.79723513
2.7312916 0.79723513
2.8919247 0.79723513
3.0566247 0.79723513
3.2253665 0.79723513
3.3981262 0.79723513
3.5748805 0.79723513
3.7556069 0.79723513
3.9402837 0.79723513
4.12889 0.79723513
4.3214054 0.79723513
4.51781 0.79723513
4.7180848 0.79723513
4.9222112 0.79723513
5.130171 0.79723513
5.3419467 0.79723513
5.5575211 0.79723513
5.7768776 0.79723513
6 0.79723513
-2 0.89254146
-1.710057 0.89254146
-1.4404685 0.89254146
-1.1916268 0.89254146
-0.96397491 0.89254146
-0.75801923 0.89254146
-0.57434918 0.89254146
-0.41366594 0.89254146
-0.2768291 0.89254146
-0.16493849 0.89254146
-0.079498282 0.89254146
-0.022829887 0.89254146
0 0.89254146
0.0056482905 0.89254146
0.01966849 0.89254146
0.040807058 0.89254146
0.06848966 0.89254146
0.10234415 0.89254146
0.14209843 0.89254146
0.18753982 0.89254146
0.23849485 0.89254146
0.29481769 0.89254146
0.35638304 0.89254146
0.42308133 0.89254146
0.49481547 0.89254146
0.57149845 0.89254146
0.65305158 0.89254146
0.73940314 0.89254146
0.83048729 0.89254146
0.9262433 0.89254146
1.0266148 0.89254146
1.1315494 0.89254146
1.2409978 0.89254146
1.3549141 0.89254146
1.4732547 0.89254146
1.5959788 0.89254146
1.7230475 0.89254146
1.854424 0.89254146
1.9900732 0.89254146
2.1299617 0.89254146
2.2740577 0.89254146
2.4223306 0.89254146
2.5747513 0.89254146
2.7312916 0.89254146
2.8919247 0.89254146
3.0566247 0.89254146
3.2253665 0.89254146
3.3981262 0.89254146
3.5748805 0.89254146
3.7556069 0.89254146
3.9402837 0.89254146
4.12889 0.89254146
4.3214054 0.89254146
4.51781 0.89254146
4.7180848 0.89254146
4.9222112 0.89254146
5.130171 0.89254146
5.3419467 0.89254146
5.5575211 0.89254146
5.7768776 0.89254146
6 0.89254146
-2 1
-1.710057 1
-1.4404685 1
-1.1916268 1
-0.96397491 1
-0.75801923 1
-0.57434918 1
-0.41366594 1
-0.2768291 1
-0.16493849 1
-0.079498282 1
-0.022829887 1
0 1
0.0056482905 1
0.01966849 1
0.040807058 1
0.06848966 1
0.10234415 1
0.14209843 1
0.18753982 1
0.23849485 1
0.29481769 1
0.35638304 1
0.42308133 1
0.49481547 1
0.57149845 1
0.65305158 1
0.73940314 1
0.83048729 1
0.9262433 1
1.0266148 1
1.1315494 1
1.2409978 1
1.3549141 1
1.4732547 1
1.5959788 1
1.7230475 1
1.854424 1
1.9900732 1
2.1299617 1
2.2740577 1
2.4223306 1
2.5747513 1
2.7312916 1
2.8919247 1
3.0566247 1
3.2253665 1
3.3981262 1
3.5748805 1
3.7556069 1
3.9402837 1
4.12889 1
4.3214054 1
4.51781 1
4.7180848 1
4.9222112 1
5.130171 1
5.3419467 1
5.5575211 1
5.7768776 1
6 1
