MFEM NURBS mesh v1.0

dimension
3

elements
1
1 5 0 1 2 3 4 5 6 7

boundary
6
1 3 2 1 0 3
1 3 4 5 6 7
1 3 0 1 5 4
1 3 1 2 6 5
1 3 2 3 7 6
1 3 3 0 4 7

edges
12
0 0 1
0 3 2
0 4 5
0 7 6
1 0 3
1 1 2
1 4 7
1 5 6
2 0 4
2 1 5
2 2 6
2 3 7

vertices
8

patches

knotvectors
3
4 5 0 0 0 0 0 1 1 1 1 1
4 5 0 0 0 0 0 1 1 1 1 1
4 5 0 0 0 0 0 1 1 1 1 1

dimension
3

controlpoints_homogeneous
-2.9282032302755088 -2.9282032302755088 -2.9282032302755088 5.0717967697244912
-1.4142135623730951 -3.2073645067092023 -3.2073645067092023 4.5200421036033447
0 -3.2854688201836724 -3.2854688201836724 4.3572655899081632
1.4142135623730951 -3.2073645067092023 -3.2073645067092023 4.5200421036033447
2.9282032302755088 -2.9282032302755088 -2.9282032302755088 5.0717967697244912
-3.2073645067092023 -1.4142135623730951 -3.2073645067092023 4.5200421036033447
-1.598076211353316 -1.598076211353316 -3.8660254037844384 3.8660254037844384
0 -1.6668384836817698 -4.0824829046386304 3.6449237056739161
1.598076211353316 -1.598076211353316 -3.8660254037844384 3.8660254037844384
3.2073645067092023 -1.4142135623730951 -3.2073645067092023 4.5200421036033447
-3.2854688201836724 0 -3.2854688201836724 4.3572655899081632
-1.66683848368177 0 -4.0824829046386304 3.6449237056739161
0 0 -4.357265589908164 3.4045573501530604
1.66683848368177 0 -4.0824829046386304 3.6449237056739161
3.2854688201836724 0 -3.2854688201836724 4.3572655899081632
-3.2073645067092023 1.4142135623730951 -3.2073645067092023 4.5200421036033447
-1.598076211353316 1.598076211353316 -3.8660254037844384 3.8660254037844384
0 1.6668384836817698 -4.0824829046386304 3.6449237056739161
1.598076211353316 1.598076211353316 -3.8660254037844384 3.8660254037844384
3.2073645067092023 1.4142135623730951 -3.2073645067092023 4.5200421036033447
-2.9282032302755088 2.9282032302755088 -2.9282032302755088 5.0717967697244912
-1.4142135623730951 3.2073645067092023 -3.2073645067092023 4.5200421036033447
0 3.2854688201836724 -3.2854688201836724 4.3572655899081632
1.4142135623730951 3.2073645067092023 -3.2073645067092023 4.5200421036033447
2.9282032302755088 2.9282032302755088 -2.9282032302755088 5.0717967697244912
-3.2073645067092023 -3.2073645067092023 -1.4142135623730951 4.5200421036033447
-1.598076211353316 -3.8660254037844384 -1.598076211353316 3.8660254037844384
0 -4.0824829046386304 -1.6668384836817698 3.6449237056739161
1.598076211353316 -3.8660254037844384 -1.598076211353316 3.8660254037844384
3.2073645067092023 -3.2073645067092023 -1.4142135623730951 4.5200421036033447
-3.8660254037844384 -1.598076211353316 -1.598076211353316 3.8660254037844384
-0.5 -0.5 -0.5 1
0 -0.5 -0.5 1
0.5 -0.5 -0.5 1
3.8660254037844384 -1.598076211353316 -1.598076211353316 3.8660254037844384
-4.0824829046386304 0 -1.6668384836817698 3.6449237056739161
-0.5 0 -0.5 1
0 0 -0.5 1
0.5 0 -0.5 1
4.0824829046386304 0 -1.6668384836817698 3.6449237056739161
-3.8660254037844384 1.598076211353316 -1.598076211353316 3.8660254037844384
-0.5 0.5 -0.5 1
0 0.5 -0.5 1
0.5 0.5 -0.5 1
3.8660254037844384 1.598076211353316 -1.598076211353316 3.8660254037844384
-3.2073645067092023 3.2073645067092023 -1.4142135623730951 4.5200421036033447
-1.598076211353316 3.8660254037844384 -1.598076211353316 3.8660254037844384
0 4.0824829046386304 -1.6668384836817698 3.6449237056739161
1.598076211353316 3.8660254037844384 -1.598076211353316 3.8660254037844384
3.2073645067092023 3.2073645067092023 -1.4142135623730951 4.5200421036033447
-3.2854688201836724 -3.2854688201836724 0 4.357265589908164
-1.66683848368177 -4.0824829046386304 0 3.6449237056739161
0 -4.357265589908164 0 3.4045573501530604
1.66683848368177 -4.0824829046386304 0 3.6449237056739161
3.2854688201836724 -3.2854688201836724 0 4.357265589908164
-4.0824829046386304 -1.66683848368177 0 3.6449237056739161
-0.5 -0.5 0 1
0 -0.5 0 1
0.5 -0.5 0 1
4.0824829046386304 -1.66683848368177 0 3.6449237056739161
-4.357265589908164 0 0 3.4045573501530604
-0.5 0 0 1
0 0 0 1
0.5 0 0 1
4.357265589908164 0 0 3.4045573501530604
-4.0824829046386304 1.66683848368177 0 3.6449237056739161
-0.5 0.5 0 1
0 0.5 0 1
0.5 0.5 0 1
4.0824829046386304 1.66683848368177 0 3.6449237056739161
-3.2854688201836724 3.2854688201836724 0 4.357265589908164
-1.66683848368177 4.0824829046386304 0 3.6449237056739161
0 4.357265589908164 0 3.4045573501530604
1.66683848368177 4.0824829046386304 0 3.6449237056739161
3.2854688201836724 3.2854688201836724 0 4.357265589908164
-3.2073645067092023 -3.2073645067092023 1.4142135623730951 4.5200421036033447
-1.598076211353316 -3.8660254037844384 1.598076211353316 3.8660254037844384
0 -4.0824829046386304 1.6668384836817698 3.6449237056739161
1.598076211353316 -3.8660254037844384 1.598076211353316 3.8660254037844384
3.2073645067092023 -3.2073645067092023 1.4142135623730951 4.5200421036033447
-3.8660254037844384 -1.598076211353316 1.598076211353316 3.8660254037844384
-0.5 -0.5 0.5 1
0 -0.5 0.5 1
0.5 -0.5 0.5 1
3.8660254037844384 -1.598076211353316 1.598076211353316 3.8660254037844384
-4.0824829046386304 0 1.6668384836817698 3.6449237056739161
-0.5 0 0.5 1
0 0 0.5 1
0.5 0 0.5 1
4.0824829046386304 0 1.6668384836817698 3.6449237056739161
-3.8660254037844384 1.598076211353316 1.598076211353316 3.8660254037844384
-0.5 0.5 0.5 1
0 0.5 0.5 1
0.5 0.5 0.5 1
3.8660254037844384 1.598076211353316 1.598076211353316 3.8660254037844384
-3.2073645067092023 3.2073645067092023 1.4142135623730951 4.5200421036033447
-1.598076211353316 3.8660254037844384 1.598076211353316 3.8660254037844384
0 4.0824829046386304 1.6668384836817698 3.6449237056739161
1.598076211353316 3.8660254037844384 1.598076211353316 3.8660254037844384
3.2073645067092023 3.2073645067092023 1.4142135623730951 4.5200421036033447
-2.9282032302755088 -2.9282032302755088 2.9282032302755088 5.0717967697244912
-1.4142135623730951 -3.2073645067092023 3.2073645067092023 4.5200421036033447
0 -3.2854688201836724 3.2854688201836724 4.3572655899081632
1.4142135623730951 -3.2073645067092023 3.2073645067092023 4.5200421036033447
2.9282032302755088 -2.9282032302755088 2.9282032302755088 5.0717967697244912
-3.2073645067092023 -1.4142135623730951 3.2073645067092023 4.5200421036033447
-1.598076211353316 -1.598076211353316 3.8660254037844384 3.8660254037844384
0 -1.6668384836817698 4.0824829046386304 3.6449237056739161
1.598076211353316 -1.598076211353316 3.8660254037844384 3.8660254037844384
3.2073645067092023 -1.4142135623730951 3.2073645067092023 4.5200421036033447
-3.2854688201836724 0 3.2854688201836724 4.3572655899081632
-1.66683848368177 0 4.0824829046386304 3.6449237056739161
0 0 4.357265589908164 3.4045573501530604
1.66683848368177 0 4.0824829046386304 3.6449237056739161
3.2854688201836724 0 3.2854688201836724 4.3572655899081632
-3.2073645067092023 1.4142135623730951 3.2073645067092023 4.5200421036033447
-1.598076211353316 1.598076211353316 3.8660254037844384 3.8660254037844384
0 1.6668384836817698 4.0824829046386304 3.6449237056739161
1.598076211353316 1.598076211353316 3.8660254037844384 3.8660254037844384
3.2073645067092023 1.4142135623730951 3.2073645067092023 4.5200421036033447
-2.9282032302755088 2.9282032302755088 2.9282032302755088 5.0717967697244912
-1.4142135623730951 3.2073645067092023 3.2073645067092023 4.5200421036033447
0 3.2854688201836724 3.2854688201836724 4.3572655899081632
1.4142135623730951 3.2073645067092023 3.2073645067092023 4.5200421036033447
2.9282032302755088 2.9282032302755088 2.9282032302755088 5.0717967697244912
