MFEM mesh v1.3

#
# MFEM Geometry Types (see mesh/geom.hpp):
#
# POINT       = 0
# SEGMENT     = 1
# TRIANGLE    = 2
# SQUARE      = 3
# TETRAHEDRON = 4
# CUBE        = 5
# PRISM       = 6
# PYRAMID     = 7
#

dimension
2

elements
9
1 3 0 1 5 4
2 3 1 2 6 5
1 3 2 3 7 6
2 3 4 5 9 8
3 3 5 6 10 9
2 3 6 7 11 10
1 3 8 9 13 12
2 3 9 10 14 13
1 3 10 11 15 14

attribute_sets
5
"Corners" 1 1
"Edges" 1 2
"Zones" 1 3
"Checker 1" 2 1 3
"Checker 2" 1 2

boundary
12
1 1 0 4
1 1 8 12
2 1 4 8
3 1 0 1
3 1 2 3
4 1 1 2
5 1 3 7
5 1 11 15
6 1 7 11
7 1 12 13
7 1 14 15
8 1 13 14

bdr_attribute_sets
0

vertices
16
2
-1.5 -1.5
-0.5 -1.5
 0.5 -1.5
 1.5 -1.5
-1.5 -0.5
-0.5 -0.5
 0.5 -0.5
 1.5 -0.5
-1.5  0.5
-0.5  0.5
 0.5  0.5
 1.5  0.5
-1.5  1.5
-0.5  1.5
 0.5  1.5
 1.5  1.5

mfem_mesh_end
