MFEM mesh v1.3

#
# MFEM Geometry Types (see mesh/geom.hpp):
#
# POINT       = 0
# SEGMENT     = 1
# TRIANGLE    = 2
# SQUARE      = 3
# TETRAHEDRON = 4
# CUBE        = 5
# PRISM       = 6
# PYRAMID     = 7
#

dimension
3

elements
27
1 5 0 1 5 4 16 17 21 20
2 5 1 2 6 5 17 18 22 21
1 5 2 3 7 6 18 19 23 22
2 5 4 5 9 8 20 21 25 24
3 5 5 6 10 9 21 22 26 25
2 5 6 7 11 10 22 23 27 26
1 5 8 9 13 12 24 25 29 28
2 5 9 10 14 13 25 26 30 29
1 5 10 11 15 14 26 27 31 30
2 5 16 17 21 20 32 33 37 36
3 5 17 18 22 21 33 34 38 37
2 5 18 19 23 22 34 35 39 38
3 5 20 21 25 24 36 37 41 40
4 5 21 22 26 25 37 38 42 41
3 5 22 23 27 26 38 39 43 42
2 5 24 25 29 28 40 41 45 44
3 5 25 26 30 29 41 42 46 45
2 5 26 27 31 30 42 43 47 46
1 5 32 33 37 36 48 49 53 52 
2 5 33 34 38 37 49 50 54 53
1 5 34 35 39 38 50 51 55 54
2 5 36 37 41 40 52 53 57 56
3 5 37 38 42 41 53 54 58 57
2 5 38 39 43 42 54 55 59 58
1 5 40 41 45 44 56 57 61 60
2 5 41 42 46 45 57 58 62 61
1 5 42 43 47 46 58 59 63 62

attribute_sets
7
"Corners" 1 1
"Edges" 1 2
"Faces" 1 3
"Zones" 1 4
"Checker 1" 2 1 3
"Checker 2" 2 2 4
"Diagonals" 2 1 4

boundary
54
1 3 0 16 20 4
1 3 8 24 28 12
1 3 36 32 48 52
1 3 40 56 60 44
2 3 4 20 24 8
2 3 16 32 36 20
2 3 24 40 44 28
2 3 36 52 56 40
3 3 20 36 40 24
4 3 0 1 17 16
4 3 2 3 19 18
4 3 32 33 49 48
4 3 34 35 51 50
5 3 1 2 18 17
5 3 16 17 33 32
5 3 18 19 35 34
5 3 33 34 50 49
6 3 17 18 34 33
7 3 4 5 1 0
7 3 6 7 3 2
7 3 12 13 9 8
7 3 14 15 11 10
8 3 5 6 2 1
8 3 8 9 5 4
8 3 10 11 7 6
8 3 13 14 10 9
9 3 9 10 6 5
10 3 3 7 23 19
10 3 11 15 31 27
10 3 35 39 55 51
10 3 43 47 63 59
11 3 7 11 27 23
11 3 19 23 39 35
11 3 27 31 47 43
11 3 39 43 59 55
12 3 23 27 43 39
13 3 12 28 29 13
13 3 14 30 31 15
13 3 45 44 60 61
13 3 47 46 62 63
14 3 13 29 30 14
14 3 28 44 45 29
14 3 31 30 46 47
14 3 46 45 61 62
15 3 30 29 45 46
16 3 48 49 53 52
16 3 50 51 55 54
16 3 56 57 61 60
16 3 58 59 63 62
17 3 49 50 54 53
17 3 52 53 57 56
17 3 54 55 59 58
17 3 57 58 62 61
18 3 53 54 58 57

bdr_attribute_sets
0

vertices
64
3
-1.5 -1.5 -1.5
-0.5 -1.5 -1.5
 0.5 -1.5 -1.5
 1.5 -1.5 -1.5
-1.5 -0.5 -1.5
-0.5 -0.5 -1.5
 0.5 -0.5 -1.5
 1.5 -0.5 -1.5
-1.5  0.5 -1.5
-0.5  0.5 -1.5
 0.5  0.5 -1.5
 1.5  0.5 -1.5
-1.5  1.5 -1.5
-0.5  1.5 -1.5
 0.5  1.5 -1.5
 1.5  1.5 -1.5
-1.5 -1.5 -0.5
-0.5 -1.5 -0.5
 0.5 -1.5 -0.5
 1.5 -1.5 -0.5
-1.5 -0.5 -0.5
-0.5 -0.5 -0.5
 0.5 -0.5 -0.5
 1.5 -0.5 -0.5
-1.5  0.5 -0.5
-0.5  0.5 -0.5
 0.5  0.5 -0.5
 1.5  0.5 -0.5
-1.5  1.5 -0.5
-0.5  1.5 -0.5
 0.5  1.5 -0.5
 1.5  1.5 -0.5
-1.5 -1.5  0.5
-0.5 -1.5  0.5
 0.5 -1.5  0.5
 1.5 -1.5  0.5
-1.5 -0.5  0.5
-0.5 -0.5  0.5
 0.5 -0.5  0.5
 1.5 -0.5  0.5
-1.5  0.5  0.5
-0.5  0.5  0.5
 0.5  0.5  0.5
 1.5  0.5  0.5
-1.5  1.5  0.5
-0.5  1.5  0.5
 0.5  1.5  0.5
 1.5  1.5  0.5
-1.5 -1.5  1.5
-0.5 -1.5  1.5
 0.5 -1.5  1.5
 1.5 -1.5  1.5
-1.5 -0.5  1.5
-0.5 -0.5  1.5
 0.5 -0.5  1.5
 1.5 -0.5  1.5
-1.5  0.5  1.5
-0.5  0.5  1.5
 0.5  0.5  1.5
 1.5  0.5  1.5
-1.5  1.5  1.5
-0.5  1.5  1.5
 0.5  1.5  1.5
 1.5  1.5  1.5

mfem_mesh_end
