MFEM NC mesh v1.2

# NCMesh supported geometry types:
# SEGMENT     = 1
# TRIANGLE    = 2
# SQUARE      = 3
# TETRAHEDRON = 4
# CUBE        = 5
# PRISM       = 6
# PYRAMID     = 7

dimension
2

rank
0

# rank attr geom ref_type nodes/children
elements
28
0 10 3 0 0 1 8 9
0 11 3 0 0 9 10 2
0 12 3 0 0 2 12 13
0 13 3 0 0 13 14 3
0 14 3 0 0 3 16 17
0 15 3 0 0 17 18 4
0 16 3 0 0 4 20 5
0 17 3 0 0 5 6 1
-1 9 3 3 12 13 14 15
-1 9 3 3 16 17 18 19
-1 9 3 3 20 21 22 23
-1 9 3 3 24 25 26 27
0 9 3 0 1 44 53 22
0 9 3 0 44 6 45 53
0 9 3 0 53 45 7 46
0 9 3 0 22 53 46 8
0 9 3 0 2 26 66 28
0 9 3 0 26 10 47 66
0 9 3 0 66 47 11 48
0 9 3 0 28 66 48 12
0 9 3 0 3 32 79 34
0 9 3 0 32 14 49 79
0 9 3 0 79 49 15 50
0 9 3 0 34 79 50 16
0 9 3 0 4 38 92 40
0 9 3 0 38 18 51 92
0 9 3 0 92 51 19 52
0 9 3 0 40 92 52 20

attribute_sets
9
"Base" 1 9
"E Even" 1 16
"E Odd" 1 17
"N Even" 1 10
"N Odd" 1 11
"S Even" 1 14
"S Odd" 1 15
"W Even" 1 12
"W Odd" 1 13

# attr geom nodes
boundary
24
2 1 8 9
3 1 9 10
4 1 12 13
5 1 13 14
6 1 16 17
7 1 17 18
8 1 20 5
1 1 5 6
1 1 6 45
1 1 45 7
2 1 7 46
2 1 46 8
3 1 10 47
3 1 47 11
4 1 11 48
4 1 48 12
5 1 14 49
5 1 49 15
6 1 15 50
6 1 50 16
7 1 18 51
7 1 51 19
8 1 19 52
8 1 52 20

bdr_attribute_sets
8
"ENE" 1 1
"ESE" 1 8
"NNE" 1 2
"NNW" 1 3
"SSE" 1 7
"SSW" 1 6
"WNW" 1 4
"WSW" 1 5

# vert_id p1 p2
vertex_parents
20
22 1 8
26 2 10
28 2 12
32 3 14
34 3 16
38 4 18
40 4 20
44 1 6
45 6 7
46 7 8
47 10 11
48 11 12
49 14 15
50 15 16
51 18 19
52 19 20
53 44 46
66 26 48
79 32 50
92 38 52

# root element orientation
root_state
12
0
2
0
2
0
2
0
3
2
0
0
0

# top-level node coordinates
coordinates
21
2
0 0
0.14142136 0.14142136
-0.14142136 0.14142136
-0.14142136 -0.14142136
0.14142136 -0.14142136
1 0
1 0.02
0.70710678 0.70710678
0.02 1
0 1
-0.02 1
-0.70710678 0.70710678
-1 0.02
-1 0
-1 -0.02
-0.70710678 -0.70710678
-0.02 -1
0 -1
0.02 -1
0.70710678 -0.70710678
1 -0.02

mfem_mesh_end
