MFEM NURBS mesh v1.0

#
# MFEM Geometry Types (see fem/geom.hpp):
#
# SEGMENT     = 1
# SQUARE      = 3
# CUBE        = 5
#

dimension
2

elements
1
1 3 0 1 2 3

boundary
4
1 1 0 1
1 1 2 3
1 1 3 0
1 1 1 2

edges
4
0 0 1
0 3 2
1 0 3
1 1 2

vertices
4

patches

knotvectors
2
2 3 0 0 0 1 1 1
2 3 0 0 0 1 1 1

dimension
2

controlpoints_cartesian
-0.70710678118 -0.70710678118 1.0
 0.0           -1.41421356237 0.70710678118
 0.70710678118 -0.70710678118 1.0
-1.41421356237  0.0           0.70710678118
 0.0            0.0           1.0
 1.41421356237  0.0           0.70710678118
-0.70710678118  0.70710678118 1.0
 0.0            1.41421356237 0.70710678118
 0.70710678118  0.70710678118 1.0
