$MeshFormat
2.2 0 8
$EndMeshFormat
$Nodes
90
1 1 -2.33486982377251e-16 1.000000000000019
2 0 1 1
3 -1 0 1
4 0 -1 1
5 6.123233995736766e-17 -1.499759782661858e-32 0
6 0.7071067811865488 0.7071067811865462 1
7 0.9238795325112871 0.3826834323650889 1
8 0.3826834323650906 0.9238795325112864 1
9 -0.7071067811865459 0.7071067811865491 1
10 -0.3826834323650887 0.9238795325112872 1
11 -0.9238795325112862 0.3826834323650911 1
12 -0.7071067811865477 -0.7071067811865475 1
13 -0.9238795325112868 -0.3826834323650897 1
14 -0.3826834323650895 -0.9238795325112868 1
15 0.7071067811865474 -0.7071067811865477 1
16 0.38268343236509 -0.9238795325112866 1
17 0.9238795325112868 -0.3826834323650896 1
18 0.7071067811865542 -1.731912112471003e-16 0.2928932188134592
19 0.3826834323650941 -9.373040810652703e-17 0.07612046748871504
20 0.9238795325112923 -2.262852224575414e-16 0.6173165676349235
21 0.2404079903871797 0.6863687049096919 0.3136312950909038
22 -0.7071067811866255 0.2928932188134856 0.3564057470945182
23 0.4123717718073482 -0.7225005202487067 0.4450743112300383
24 -0.7134967411355118 -0.4558007202633017 0.4678645813362354
25 -0.3696232829613673 0.8458938345985632 0.6154974001635362
26 -0.1882269076220676 -0.8016257755834552 0.4325788626009269
27 0.8164965809277291 0.4082482904638615 0.5917517095361415
28 0.8164965809277285 -0.4082482904638627 0.5917517095361415
29 0.520749290822605 0.7658470273324243 0.6227752568642361
30 0.1309054214493366 0.9182507023982317 0.626262902322601
31 -0.1923716024339882 0.9607012632963909 0.7998844102082548
32 -0.5583335227502426 0.8053014711080669 0.8006179095192159
33 -0.06895734607198716 0.8177109388917617 0.4285162252176694
34 -0.7653668647302035 0.5411961001462035 0.651689300251056
35 -0.9238795325113079 0.1585126677811215 0.6516893002510561
36 -0.9256070281538252 -0.2462171885040789 0.7125478726511302
37 -0.7432077482855359 -0.6083906255590451 0.7216062327920809
38 -0.7673901986005944 -0.08800035895078735 0.3648872384243308
39 -0.4855726441137301 -0.8182415852419422 0.692266486275618
40 -0.09915952007452554 -0.9491116308378734 0.7010777663223056
41 0.2221745197362408 -0.928035699811356 0.7010213675601258
42 0.5896116382031129 -0.75295154224448 0.7077294213796052
43 0.1175991561560029 -0.799643422197168 0.4111529606016535
44 0.1309054214493597 0.3737370976777894 0.0817492976019305
45 0.5207492908226745 0.3772247431361394 0.2341529726678081
46 0.610003014000066 -0.3936899852075391 0.3123194648253281
47 0.233840166536907 -0.4097022481376087 0.118261464840636
48 -0.3900072652268509 0.1615462986810029 0.0934697321916157
49 -0.2719271099065261 0.5705775759637235 0.2250826645988325
50 -0.4075945982946443 -0.2603822845532032 0.1247470597982077
51 -0.1063099367780744 -0.4527555948220909 0.1147257099070726
52 -0.4750356119656548 -0.6624228673379048 0.4207443464304863
53 -0.5744569119152841 0.6075655503776071 0.4514898739794216
54 -0.2687658173968378 0.1113264466680615 1
55 0.3632776942023566 -0.150474547846242 1
56 0.1902402582583835 0.4476830152841269 1
57 -0.1820395192602644 -0.4510798725986294 1
58 0.4486735197224663 0.5773948982353365 1
59 0.5951201291291919 0.2238415076420635 1
60 0.6816388471011783 -0.07523727392312107 1
61 0.535192237694452 -0.4287906645163948 1
62 0.2767589762303699 0.1486042337189424 1
63 0.09512012912919188 0.7238415076420635 1
64 -0.2584332614640812 0.5773948982353381 1
65 -0.634382908698419 0.05566322333403084 1
66 -0.4879362992916918 0.4092166139273052 1
67 -0.444573150223406 -0.5790933268925884 1
68 -0.5910197596301322 -0.2255399362993146 1
69 -0.225402668328551 -0.1698767129652839 1
70 -0.09101975963013231 -0.7255399362993147 1
71 0.2625336309631416 -0.5790933268925885 1
72 -0.03926277956922708 0.2795047309760941 1
73 0.09061908747104619 -0.3007772102224358 1
74 0.04725593840275932 -0.01957405058909023 1
75 -0.1343829086984189 0.05566322333403073 0.5
76 0.1816388471011783 -0.07523727392312102 0.5
77 0.09512012912919179 0.2238415076420635 0.5
78 -0.09101975963013217 -0.2255399362993147 0.5
79 0.3878247330048524 -0.4364875340474744 0.7225371556150191
80 0.1151661262735419 -0.586790196423668 0.7225371556150191
81 -0.4879362992917317 0.2021098327407735 0.6782028735472592
82 -0.3191945501791025 0.4786101406333123 0.807748700081768
83 -0.01417891350482907 0.3988475757888767 0.6568156475454519
84 0.4486735197224689 0.2238415076420634 0.6464466094067296
85 0.5351922376944553 -0.0752372739231211 0.6464466094067296
86 -0.4911312792661748 -0.1722371367976201 0.7339322906681177
87 -0.4477681301978881 -0.4534402964309655 0.7339322906681177
88 -0.08969151235149186 0.646788424941345 0.807748700081768
89 0.2153241243227816 0.5670258600969094 0.6568156475454519
90 -0.185133213441166 -0.6263528240910423 0.7162894313004635
$EndNodes
$Elements
69
1 9 2 1 1 18 6 1 27 7 20
2 9 2 1 1 15 18 1 28 20 17
3 9 2 1 1 6 21 2 29 30 8
4 9 2 1 1 2 25 9 31 32 10
5 9 2 1 1 21 25 2 33 31 30
6 9 2 1 1 9 22 3 34 35 11
7 9 2 1 1 3 24 12 36 37 13
8 9 2 1 1 22 24 3 38 36 35
9 9 2 1 1 12 26 4 39 40 14
10 9 2 1 1 4 23 15 41 42 16
11 9 2 1 1 4 26 23 40 43 41
12 9 2 1 1 5 21 18 44 45 19
13 9 2 1 1 18 23 5 46 47 19
14 9 2 1 1 5 22 21 48 49 44
15 9 2 1 1 5 24 22 50 38 48
16 9 2 1 1 23 26 5 43 51 47
17 9 2 1 1 5 26 24 51 52 50
18 9 2 1 1 18 21 6 45 29 27
19 9 2 1 1 9 25 22 32 53 34
20 9 2 1 1 24 26 12 52 39 37
21 9 2 1 1 15 23 18 42 46 28
22 9 2 1 1 22 25 21 53 33 49
23 9 2 2 2 6 56 1 58 59 7
24 9 2 2 2 1 55 15 60 61 17
25 9 2 2 2 1 56 55 59 62 60
26 9 2 2 2 2 56 6 63 58 8
27 9 2 2 2 9 56 2 64 63 10
28 9 2 2 2 3 54 9 65 66 11
29 9 2 2 2 12 57 3 67 68 13
30 9 2 2 2 3 57 54 68 69 65
31 9 2 2 2 4 57 12 70 67 14
32 9 2 2 2 15 57 4 71 70 16
33 9 2 2 2 54 56 9 72 64 66
34 9 2 2 2 55 57 15 73 71 61
35 9 2 2 2 55 56 54 62 72 74
36 9 2 2 2 54 57 55 69 73 74
37 11 2 1 3 5 54 55 56 75 74 76 77 62 72
38 11 2 1 3 5 54 57 55 75 69 78 76 73 74
39 11 2 1 3 55 57 5 23 73 78 76 79 47 80
40 11 2 1 3 54 22 25 21 81 53 82 83 33 49
41 11 2 1 3 56 55 5 18 62 76 77 84 19 85
42 11 2 1 3 54 24 5 57 86 50 75 69 78 87
43 11 2 1 3 56 54 25 21 72 82 88 89 33 83
44 11 2 1 3 18 55 5 23 85 76 19 46 47 79
45 11 2 1 3 5 54 56 21 75 72 77 44 89 83
46 11 2 1 3 26 5 57 23 51 78 90 43 80 47
47 11 2 1 3 5 22 54 21 48 81 75 44 83 49
48 11 2 1 3 5 22 24 54 48 38 50 75 86 81
49 11 2 1 3 24 26 5 57 52 51 50 87 78 90
50 11 2 1 3 56 1 55 18 59 60 62 84 85 20
51 11 2 1 3 5 56 18 21 77 84 19 44 45 89
52 11 2 1 3 54 25 9 56 82 32 66 72 64 88
53 11 2 1 3 1 15 55 18 17 61 60 20 85 28
54 11 2 1 3 2 9 25 56 10 32 31 63 88 64
55 11 2 1 3 18 15 55 23 28 61 85 46 79 42
56 11 2 1 3 56 6 1 18 58 7 59 84 20 27
57 11 2 1 3 24 54 3 57 86 65 36 87 68 69
58 11 2 1 3 9 22 25 54 34 53 32 66 82 81
59 11 2 1 3 57 55 15 23 73 61 71 80 42 79
60 11 2 1 3 12 24 3 57 37 36 13 67 68 87
61 11 2 1 3 18 56 6 21 84 58 27 45 29 89
62 11 2 1 3 22 24 54 3 38 86 81 35 65 36
63 11 2 1 3 15 4 57 23 16 70 71 42 80 41
64 11 2 1 3 54 9 22 3 66 34 81 65 35 11
65 11 2 1 3 25 2 56 21 31 63 88 33 89 30
66 11 2 1 3 57 12 26 4 67 39 90 70 40 14
67 11 2 1 3 56 2 6 21 63 8 58 89 29 30
68 11 2 1 3 4 26 57 23 40 90 70 41 80 43
69 11 2 1 3 12 26 24 57 39 52 37 67 87 90
$EndElements
