MFEM mesh v1.0

# Kershaw transformation: curvature = 2, epsy = 0.3, epsz = 0.3, smooth = 3

#
# MFEM Geometry Types (see fem/geom.hpp):
#
# POINT       = 0
# SEGMENT     = 1
# TRIANGLE    = 2
# SQUARE      = 3
# TETRAHEDRON = 4
# CUBE        = 5
# PRISM       = 6
# PYRAMID     = 7
#

dimension
3

elements
216
1 5 0 1 8 7 49 50 57 56
1 5 1 2 9 8 50 51 58 57
1 5 8 9 16 15 57 58 65 64
1 5 7 8 15 14 56 57 64 63
1 5 56 57 64 63 105 106 113 112
1 5 57 58 65 64 106 107 114 113
1 5 50 51 58 57 99 100 107 106
1 5 49 50 57 56 98 99 106 105
1 5 98 99 106 105 147 148 155 154
1 5 105 106 113 112 154 155 162 161
1 5 154 155 162 161 203 204 211 210
1 5 147 148 155 154 196 197 204 203
1 5 148 149 156 155 197 198 205 204
1 5 155 156 163 162 204 205 212 211
1 5 106 107 114 113 155 156 163 162
1 5 99 100 107 106 148 149 156 155
1 5 100 101 108 107 149 150 157 156
1 5 107 108 115 114 156 157 164 163
1 5 156 157 164 163 205 206 213 212
1 5 149 150 157 156 198 199 206 205
1 5 150 151 158 157 199 200 207 206
1 5 157 158 165 164 206 207 214 213
1 5 108 109 116 115 157 158 165 164
1 5 101 102 109 108 150 151 158 157
1 5 52 53 60 59 101 102 109 108
1 5 3 4 11 10 52 53 60 59
1 5 2 3 10 9 51 52 59 58
1 5 51 52 59 58 100 101 108 107
1 5 58 59 66 65 107 108 115 114
1 5 9 10 17 16 58 59 66 65
1 5 10 11 18 17 59 60 67 66
1 5 59 60 67 66 108 109 116 115
1 5 66 67 74 73 115 116 123 122
1 5 17 18 25 24 66 67 74 73
1 5 16 17 24 23 65 66 73 72
1 5 65 66 73 72 114 115 122 121
1 5 72 73 80 79 121 122 129 128
1 5 23 24 31 30 72 73 80 79
1 5 24 25 32 31 73 74 81 80
1 5 73 74 81 80 122 123 130 129
1 5 122 123 130 129 171 172 179 178
1 5 115 116 123 122 164 165 172 171
1 5 164 165 172 171 213 214 221 220
1 5 171 172 179 178 220 221 228 227
1 5 170 171 178 177 219 220 227 226
1 5 163 164 171 170 212 213 220 219
1 5 114 115 122 121 163 164 171 170
1 5 121 122 129 128 170 171 178 177
1 5 120 121 128 127 169 170 177 176
1 5 113 114 121 120 162 163 170 169
1 5 162 163 170 169 211 212 219 218
1 5 169 170 177 176 218 219 226 225
1 5 168 169 176 175 217 218 225 224
1 5 161 162 169 168 210 211 218 217
1 5 112 113 120 119 161 162 169 168
1 5 119 120 127 126 168 169 176 175
1 5 70 71 78 77 119 120 127 126
1 5 71 72 79 78 120 121 128 127
1 5 64 65 72 71 113 114 121 120
1 5 63 64 71 70 112 113 120 119
1 5 14 15 22 21 63 64 71 70
1 5 15 16 23 22 64 65 72 71
1 5 22 23 30 29 71 72 79 78
1 5 21 22 29 28 70 71 78 77
1 5 28 29 36 35 77 78 85 84
1 5 35 36 43 42 84 85 92 91
1 5 84 85 92 91 133 134 141 140
1 5 77 78 85 84 126 127 134 133
1 5 126 127 134 133 175 176 183 182
1 5 133 134 141 140 182 183 190 189
1 5 182 183 190 189 231 232 239 238
1 5 175 176 183 182 224 225 232 231
1 5 176 177 184 183 225 226 233 232
1 5 183 184 191 190 232 233 240 239
1 5 134 135 142 141 183 184 191 190
1 5 127 128 135 134 176 177 184 183
1 5 78 79 86 85 127 128 135 134
1 5 85 86 93 92 134 135 142 141
1 5 36 37 44 43 85 86 93 92
1 5 29 30 37 36 78 79 86 85
1 5 30 31 38 37 79 80 87 86
1 5 31 32 39 38 80 81 88 87
1 5 38 39 46 45 87 88 95 94
1 5 37 38 45 44 86 87 94 93
1 5 86 87 94 93 135 136 143 142
1 5 87 88 95 94 136 137 144 143
1 5 80 81 88 87 129 130 137 136
1 5 79 80 87 86 128 129 136 135
1 5 128 129 136 135 177 178 185 184
1 5 129 130 137 136 178 179 186 185
1 5 136 137 144 143 185 186 193 192
1 5 135 136 143 142 184 185 192 191
1 5 184 185 192 191 233 234 241 240
1 5 185 186 193 192 234 235 242 241
1 5 178 179 186 185 227 228 235 234
1 5 177 178 185 184 226 227 234 233
1 5 226 227 234 233 275 276 283 282
1 5 227 228 235 234 276 277 284 283
1 5 234 235 242 241 283 284 291 290
1 5 233 234 241 240 282 283 290 289
1 5 282 283 290 289 331 332 339 338
1 5 283 284 291 290 332 333 340 339
1 5 276 277 284 283 325 326 333 332
1 5 275 276 283 282 324 325 332 331
1 5 274 275 282 281 323 324 331 330
1 5 281 282 289 288 330 331 338 337
1 5 232 233 240 239 281 282 289 288
1 5 225 226 233 232 274 275 282 281
1 5 224 225 232 231 273 274 281 280
1 5 231 232 239 238 280 281 288 287
1 5 280 281 288 287 329 330 337 336
1 5 273 274 281 280 322 323 330 329
1 5 266 267 274 273 315 316 323 322
1 5 217 218 225 224 266 267 274 273
1 5 218 219 226 225 267 268 275 274
1 5 267 268 275 274 316 317 324 323
1 5 268 269 276 275 317 318 325 324
1 5 219 220 227 226 268 269 276 275
1 5 220 221 228 227 269 270 277 276
1 5 269 270 277 276 318 319 326 325
1 5 262 263 270 269 311 312 319 318
1 5 213 214 221 220 262 263 270 269
1 5 212 213 220 219 261 262 269 268
1 5 261 262 269 268 310 311 318 317
1 5 260 261 268 267 309 310 317 316
1 5 211 212 219 218 260 261 268 267
1 5 210 211 218 217 259 260 267 266
1 5 259 260 267 266 308 309 316 315
1 5 252 253 260 259 301 302 309 308
1 5 245 246 253 252 294 295 302 301
1 5 196 197 204 203 245 246 253 252
1 5 203 204 211 210 252 253 260 259
1 5 204 205 212 211 253 254 261 260
1 5 197 198 205 204 246 247 254 253
1 5 246 247 254 253 295 296 303 302
1 5 253 254 261 260 302 303 310 309
1 5 254 255 262 261 303 304 311 310
1 5 247 248 255 254 296 297 304 303
1 5 198 199 206 205 247 248 255 254
1 5 205 206 213 212 254 255 262 261
1 5 206 207 214 213 255 256 263 262
1 5 199 200 207 206 248 249 256 255
1 5 248 249 256 255 297 298 305 304
1 5 255 256 263 262 304 305 312 311
1 5 256 257 264 263 305 306 313 312
1 5 249 250 257 256 298 299 306 305
1 5 200 201 208 207 249 250 257 256
1 5 207 208 215 214 256 257 264 263
1 5 208 209 216 215 257 258 265 264
1 5 201 202 209 208 250 251 258 257
1 5 250 251 258 257 299 300 307 306
1 5 257 258 265 264 306 307 314 313
1 5 264 265 272 271 313 314 321 320
1 5 215 216 223 222 264 265 272 271
1 5 214 215 222 221 263 264 271 270
1 5 263 264 271 270 312 313 320 319
1 5 270 271 278 277 319 320 327 326
1 5 221 222 229 228 270 271 278 277
1 5 222 223 230 229 271 272 279 278
1 5 271 272 279 278 320 321 328 327
1 5 278 279 286 285 327 328 335 334
1 5 277 278 285 284 326 327 334 333
1 5 284 285 292 291 333 334 341 340
1 5 285 286 293 292 334 335 342 341
1 5 236 237 244 243 285 286 293 292
1 5 235 236 243 242 284 285 292 291
1 5 228 229 236 235 277 278 285 284
1 5 229 230 237 236 278 279 286 285
1 5 180 181 188 187 229 230 237 236
1 5 179 180 187 186 228 229 236 235
1 5 186 187 194 193 235 236 243 242
1 5 187 188 195 194 236 237 244 243
1 5 138 139 146 145 187 188 195 194
1 5 137 138 145 144 186 187 194 193
1 5 130 131 138 137 179 180 187 186
1 5 131 132 139 138 180 181 188 187
1 5 82 83 90 89 131 132 139 138
1 5 81 82 89 88 130 131 138 137
1 5 88 89 96 95 137 138 145 144
1 5 89 90 97 96 138 139 146 145
1 5 40 41 48 47 89 90 97 96
1 5 39 40 47 46 88 89 96 95
1 5 32 33 40 39 81 82 89 88
1 5 33 34 41 40 82 83 90 89
1 5 26 27 34 33 75 76 83 82
1 5 25 26 33 32 74 75 82 81
1 5 18 19 26 25 67 68 75 74
1 5 19 20 27 26 68 69 76 75
1 5 68 69 76 75 117 118 125 124
1 5 67 68 75 74 116 117 124 123
1 5 74 75 82 81 123 124 131 130
1 5 75 76 83 82 124 125 132 131
1 5 124 125 132 131 173 174 181 180
1 5 173 174 181 180 222 223 230 229
1 5 172 173 180 179 221 222 229 228
1 5 123 124 131 130 172 173 180 179
1 5 116 117 124 123 165 166 173 172
1 5 165 166 173 172 214 215 222 221
1 5 166 167 174 173 215 216 223 222
1 5 117 118 125 124 166 167 174 173
1 5 110 111 118 117 159 160 167 166
1 5 159 160 167 166 208 209 216 215
1 5 158 159 166 165 207 208 215 214
1 5 109 110 117 116 158 159 166 165
1 5 102 103 110 109 151 152 159 158
1 5 151 152 159 158 200 201 208 207
1 5 152 153 160 159 201 202 209 208
1 5 103 104 111 110 152 153 160 159
1 5 54 55 62 61 103 104 111 110
1 5 53 54 61 60 102 103 110 109
1 5 60 61 68 67 109 110 117 116
1 5 61 62 69 68 110 111 118 117
1 5 12 13 20 19 61 62 69 68
1 5 11 12 19 18 60 61 68 67
1 5 4 5 12 11 53 54 61 60
1 5 5 6 13 12 54 55 62 61

boundary
216
3 3 0 7 8 1
3 3 1 8 9 2
3 3 2 9 10 3
3 3 3 10 11 4
3 3 4 11 12 5
3 3 5 12 13 6
3 3 7 14 15 8
3 3 8 15 16 9
3 3 9 16 17 10
3 3 10 17 18 11
3 3 11 18 19 12
3 3 12 19 20 13
3 3 14 21 22 15
3 3 15 22 23 16
3 3 16 23 24 17
3 3 17 24 25 18
3 3 18 25 26 19
3 3 19 26 27 20
3 3 21 28 29 22
3 3 22 29 30 23
3 3 23 30 31 24
3 3 24 31 32 25
3 3 25 32 33 26
3 3 26 33 34 27
3 3 28 35 36 29
3 3 29 36 37 30
3 3 30 37 38 31
3 3 31 38 39 32
3 3 32 39 40 33
3 3 33 40 41 34
3 3 35 42 43 36
3 3 36 43 44 37
3 3 37 44 45 38
3 3 38 45 46 39
3 3 39 46 47 40
3 3 40 47 48 41
3 3 294 295 302 301
3 3 295 296 303 302
3 3 296 297 304 303
3 3 297 298 305 304
3 3 298 299 306 305
3 3 299 300 307 306
3 3 301 302 309 308
3 3 302 303 310 309
3 3 303 304 311 310
3 3 304 305 312 311
3 3 305 306 313 312
3 3 306 307 314 313
3 3 308 309 316 315
3 3 309 310 317 316
3 3 310 311 318 317
3 3 311 312 319 318
3 3 312 313 320 319
3 3 313 314 321 320
3 3 315 316 323 322
3 3 316 317 324 323
3 3 317 318 325 324
3 3 318 319 326 325
3 3 319 320 327 326
3 3 320 321 328 327
3 3 322 323 330 329
3 3 323 324 331 330
3 3 324 325 332 331
3 3 325 326 333 332
3 3 326 327 334 333
3 3 327 328 335 334
3 3 329 330 337 336
3 3 330 331 338 337
3 3 331 332 339 338
3 3 332 333 340 339
3 3 333 334 341 340
3 3 334 335 342 341
1 3 0 49 56 7
1 3 7 56 63 14
1 3 14 63 70 21
1 3 21 70 77 28
1 3 28 77 84 35
1 3 35 84 91 42
1 3 49 98 105 56
1 3 56 105 112 63
1 3 63 112 119 70
1 3 70 119 126 77
1 3 77 126 133 84
1 3 84 133 140 91
1 3 98 147 154 105
1 3 105 154 161 112
1 3 112 161 168 119
1 3 119 168 175 126
1 3 126 175 182 133
1 3 133 182 189 140
1 3 147 196 203 154
1 3 154 203 210 161
1 3 161 210 217 168
1 3 168 217 224 175
1 3 175 224 231 182
1 3 182 231 238 189
1 3 196 245 252 203
1 3 203 252 259 210
1 3 210 259 266 217
1 3 217 266 273 224
1 3 224 273 280 231
1 3 231 280 287 238
1 3 245 294 301 252
1 3 252 301 308 259
1 3 259 308 315 266
1 3 266 315 322 273
1 3 273 322 329 280
1 3 280 329 336 287
1 3 6 13 62 55
1 3 13 20 69 62
1 3 20 27 76 69
1 3 27 34 83 76
1 3 34 41 90 83
1 3 41 48 97 90
1 3 55 62 111 104
1 3 62 69 118 111
1 3 69 76 125 118
1 3 76 83 132 125
1 3 83 90 139 132
1 3 90 97 146 139
1 3 104 111 160 153
1 3 111 118 167 160
1 3 118 125 174 167
1 3 125 132 181 174
1 3 132 139 188 181
1 3 139 146 195 188
1 3 153 160 209 202
1 3 160 167 216 209
1 3 167 174 223 216
1 3 174 181 230 223
1 3 181 188 237 230
1 3 188 195 244 237
1 3 202 209 258 251
1 3 209 216 265 258
1 3 216 223 272 265
1 3 223 230 279 272
1 3 230 237 286 279
1 3 237 244 293 286
1 3 251 258 307 300
1 3 258 265 314 307
1 3 265 272 321 314
1 3 272 279 328 321
1 3 279 286 335 328
1 3 286 293 342 335
2 3 0 1 50 49
2 3 49 50 99 98
2 3 98 99 148 147
2 3 147 148 197 196
2 3 196 197 246 245
2 3 245 246 295 294
2 3 1 2 51 50
2 3 50 51 100 99
2 3 99 100 149 148
2 3 148 149 198 197
2 3 197 198 247 246
2 3 246 247 296 295
2 3 2 3 52 51
2 3 51 52 101 100
2 3 100 101 150 149
2 3 149 150 199 198
2 3 198 199 248 247
2 3 247 248 297 296
2 3 3 4 53 52
2 3 52 53 102 101
2 3 101 102 151 150
2 3 150 151 200 199
2 3 199 200 249 248
2 3 248 249 298 297
2 3 4 5 54 53
2 3 53 54 103 102
2 3 102 103 152 151
2 3 151 152 201 200
2 3 200 201 250 249
2 3 249 250 299 298
2 3 5 6 55 54
2 3 54 55 104 103
2 3 103 104 153 152
2 3 152 153 202 201
2 3 201 202 251 250
2 3 250 251 300 299
2 3 42 91 92 43
2 3 91 140 141 92
2 3 140 189 190 141
2 3 189 238 239 190
2 3 238 287 288 239
2 3 287 336 337 288
2 3 43 92 93 44
2 3 92 141 142 93
2 3 141 190 191 142
2 3 190 239 240 191
2 3 239 288 289 240
2 3 288 337 338 289
2 3 44 93 94 45
2 3 93 142 143 94
2 3 142 191 192 143
2 3 191 240 241 192
2 3 240 289 290 241
2 3 289 338 339 290
2 3 45 94 95 46
2 3 94 143 144 95
2 3 143 192 193 144
2 3 192 241 242 193
2 3 241 290 291 242
2 3 290 339 340 291
2 3 46 95 96 47
2 3 95 144 145 96
2 3 144 193 194 145
2 3 193 242 243 194
2 3 242 291 292 243
2 3 291 340 341 292
2 3 47 96 97 48
2 3 96 145 146 97
2 3 145 194 195 146
2 3 194 243 244 195
2 3 243 292 293 244
2 3 292 341 342 293

vertices
343

nodes
FiniteElementSpace
FiniteElementCollection: H1_3D_P2
VDim: 3
Ordering: 1

0 0 0
0.16666666666667 0 0
0.33333333333333 0 0
0.5 0 0
0.66666666666667 0 0
0.83333333333333 0 0
1 0 0
0 0.05 0
0.16666666666667 0.05 0
0.33333333333333 0.28333333333333 0
0.5 0.16666666666667 0
0.66666666666667 0.05 0
0.83333333333333 0.28333333333333 0
1 0.28333333333333 0
0 0.1 0
0.16666666666667 0.1 0
0.33333333333333 0.56666666666667 0
0.5 0.33333333333333 0
0.66666666666667 0.1 0
0.83333333333333 0.56666666666667 0
1 0.56666666666667 0
0 0.15 0
0.16666666666667 0.15 0
0.33333333333333 0.85 0
0.5 0.5 0
0.66666666666667 0.15 0
0.83333333333333 0.85 0
1 0.85 0
0 0.43333333333333 0
0.16666666666667 0.43333333333333 0
0.33333333333333 0.9 0
0.5 0.66666666666667 0
0.66666666666667 0.43333333333333 0
0.83333333333333 0.9 0
1 0.9 0
0 0.71666666666667 0
0.16666666666667 0.71666666666667 0
0.33333333333333 0.95 0
0.5 0.83333333333333 0
0.66666666666667 0.71666666666667 0
0.83333333333333 0.95 0
1 0.95 0
0 1 0
0.16666666666667 1 0
0.33333333333333 1 0
0.5 1 0
0.66666666666667 1 0
0.83333333333333 1 0
1 1 0
0 0 0.05
0.16666666666667 0 0.05
0.33333333333333 0 0.28333333333333
0.5 0 0.16666666666667
0.66666666666667 0 0.05
0.83333333333333 0 0.28333333333333
1 0 0.28333333333333
0 0.05 0.05
0.16666666666667 0.05 0.05
0.33333333333333 0.28333333333333 0.28333333333333
0.5 0.16666666666667 0.16666666666667
0.66666666666667 0.05 0.05
0.83333333333333 0.28333333333333 0.28333333333333
1 0.28333333333333 0.28333333333333
0 0.1 0.05
0.16666666666667 0.1 0.05
0.33333333333333 0.56666666666667 0.28333333333333
0.5 0.33333333333333 0.16666666666667
0.66666666666667 0.1 0.05
0.83333333333333 0.56666666666667 0.28333333333333
1 0.56666666666667 0.28333333333333
0 0.15 0.05
0.16666666666667 0.15 0.05
0.33333333333333 0.85 0.28333333333333
0.5 0.5 0.16666666666667
0.66666666666667 0.15 0.05
0.83333333333333 0.85 0.28333333333333
1 0.85 0.28333333333333
0 0.43333333333333 0.05
0.16666666666667 0.43333333333333 0.05
0.33333333333333 0.9 0.28333333333333
0.5 0.66666666666667 0.16666666666667
0.66666666666667 0.43333333333333 0.05
0.83333333333333 0.9 0.28333333333333
1 0.9 0.28333333333333
0 0.71666666666667 0.05
0.16666666666667 0.71666666666667 0.05
0.33333333333333 0.95 0.28333333333333
0.5 0.83333333333333 0.16666666666667
0.66666666666667 0.71666666666667 0.05
0.83333333333333 0.95 0.28333333333333
1 0.95 0.28333333333333
0 1 0.05
0.16666666666667 1 0.05
0.33333333333333 1 0.28333333333333
0.5 1 0.16666666666667
0.66666666666667 1 0.05
0.83333333333333 1 0.28333333333333
1 1 0.28333333333333
0 0 0.1
0.16666666666667 0 0.1
0.33333333333333 0 0.56666666666667
0.5 0 0.33333333333333
0.66666666666667 0 0.1
0.83333333333333 0 0.56666666666667
1 0 0.56666666666667
0 0.05 0.1
0.16666666666667 0.05 0.1
0.33333333333333 0.28333333333333 0.56666666666667
0.5 0.16666666666667 0.33333333333333
0.66666666666667 0.05 0.1
0.83333333333333 0.28333333333333 0.56666666666667
1 0.28333333333333 0.56666666666667
0 0.1 0.1
0.16666666666667 0.1 0.1
0.33333333333333 0.56666666666667 0.56666666666667
0.5 0.33333333333333 0.33333333333333
0.66666666666667 0.1 0.1
0.83333333333333 0.56666666666667 0.56666666666667
1 0.56666666666667 0.56666666666667
0 0.15 0.1
0.16666666666667 0.15 0.1
0.33333333333333 0.85 0.56666666666667
0.5 0.5 0.33333333333333
0.66666666666667 0.15 0.1
0.83333333333333 0.85 0.56666666666667
1 0.85 0.56666666666667
0 0.43333333333333 0.1
0.16666666666667 0.43333333333333 0.1
0.33333333333333 0.9 0.56666666666667
0.5 0.66666666666667 0.33333333333333
0.66666666666667 0.43333333333333 0.1
0.83333333333333 0.9 0.56666666666667
1 0.9 0.56666666666667
0 0.71666666666667 0.1
0.16666666666667 0.71666666666667 0.1
0.33333333333333 0.95 0.56666666666667
0.5 0.83333333333333 0.33333333333333
0.66666666666667 0.71666666666667 0.1
0.83333333333333 0.95 0.56666666666667
1 0.95 0.56666666666667
0 1 0.1
0.16666666666667 1 0.1
0.33333333333333 1 0.56666666666667
0.5 1 0.33333333333333
0.66666666666667 1 0.1
0.83333333333333 1 0.56666666666667
1 1 0.56666666666667
0 0 0.15
0.16666666666667 0 0.15
0.33333333333333 0 0.85
0.5 0 0.5
0.66666666666667 0 0.15
0.83333333333333 0 0.85
1 0 0.85
0 0.05 0.15
0.16666666666667 0.05 0.15
0.33333333333333 0.28333333333333 0.85
0.5 0.16666666666667 0.5
0.66666666666667 0.05 0.15
0.83333333333333 0.28333333333333 0.85
1 0.28333333333333 0.85
0 0.1 0.15
0.16666666666667 0.1 0.15
0.33333333333333 0.56666666666667 0.85
0.5 0.33333333333333 0.5
0.66666666666667 0.1 0.15
0.83333333333333 0.56666666666667 0.85
1 0.56666666666667 0.85
0 0.15 0.15
0.16666666666667 0.15 0.15
0.33333333333333 0.85 0.85
0.5 0.5 0.5
0.66666666666667 0.15 0.15
0.83333333333333 0.85 0.85
1 0.85 0.85
0 0.43333333333333 0.15
0.16666666666667 0.43333333333333 0.15
0.33333333333333 0.9 0.85
0.5 0.66666666666667 0.5
0.66666666666667 0.43333333333333 0.15
0.83333333333333 0.9 0.85
1 0.9 0.85
0 0.71666666666667 0.15
0.16666666666667 0.71666666666667 0.15
0.33333333333333 0.95 0.85
0.5 0.83333333333333 0.5
0.66666666666667 0.71666666666667 0.15
0.83333333333333 0.95 0.85
1 0.95 0.85
0 1 0.15
0.16666666666667 1 0.15
0.33333333333333 1 0.85
0.5 1 0.5
0.66666666666667 1 0.15
0.83333333333333 1 0.85
1 1 0.85
0 0 0.43333333333333
0.16666666666667 0 0.43333333333333
0.33333333333333 0 0.9
0.5 0 0.66666666666667
0.66666666666667 0 0.43333333333333
0.83333333333333 0 0.9
1 0 0.9
0 0.05 0.43333333333333
0.16666666666667 0.05 0.43333333333333
0.33333333333333 0.28333333333333 0.9
0.5 0.16666666666667 0.66666666666667
0.66666666666667 0.05 0.43333333333333
0.83333333333333 0.28333333333333 0.9
1 0.28333333333333 0.9
0 0.1 0.43333333333333
0.16666666666667 0.1 0.43333333333333
0.33333333333333 0.56666666666667 0.9
0.5 0.33333333333333 0.66666666666667
0.66666666666667 0.1 0.43333333333333
0.83333333333333 0.56666666666667 0.9
1 0.56666666666667 0.9
0 0.15 0.43333333333333
0.16666666666667 0.15 0.43333333333333
0.33333333333333 0.85 0.9
0.5 0.5 0.66666666666667
0.66666666666667 0.15 0.43333333333333
0.83333333333333 0.85 0.9
1 0.85 0.9
0 0.43333333333333 0.43333333333333
0.16666666666667 0.43333333333333 0.43333333333333
0.33333333333333 0.9 0.9
0.5 0.66666666666667 0.66666666666667
0.66666666666667 0.43333333333333 0.43333333333333
0.83333333333333 0.9 0.9
1 0.9 0.9
0 0.71666666666667 0.43333333333333
0.16666666666667 0.71666666666667 0.43333333333333
0.33333333333333 0.95 0.9
0.5 0.83333333333333 0.66666666666667
0.66666666666667 0.71666666666667 0.43333333333333
0.83333333333333 0.95 0.9
1 0.95 0.9
0 1 0.43333333333333
0.16666666666667 1 0.43333333333333
0.33333333333333 1 0.9
0.5 1 0.66666666666667
0.66666666666667 1 0.43333333333333
0.83333333333333 1 0.9
1 1 0.9
0 0 0.71666666666667
0.16666666666667 0 0.71666666666667
0.33333333333333 0 0.95
0.5 0 0.83333333333333
0.66666666666667 0 0.71666666666667
0.83333333333333 0 0.95
1 0 0.95
0 0.05 0.71666666666667
0.16666666666667 0.05 0.71666666666667
0.33333333333333 0.28333333333333 0.95
0.5 0.16666666666667 0.83333333333333
0.66666666666667 0.05 0.71666666666667
0.83333333333333 0.28333333333333 0.95
1 0.28333333333333 0.95
0 0.1 0.71666666666667
0.16666666666667 0.1 0.71666666666667
0.33333333333333 0.56666666666667 0.95
0.5 0.33333333333333 0.83333333333333
0.66666666666667 0.1 0.71666666666667
0.83333333333333 0.56666666666667 0.95
1 0.56666666666667 0.95
0 0.15 0.71666666666667
0.16666666666667 0.15 0.71666666666667
0.33333333333333 0.85 0.95
0.5 0.5 0.83333333333333
0.66666666666667 0.15 0.71666666666667
0.83333333333333 0.85 0.95
1 0.85 0.95
0 0.43333333333333 0.71666666666667
0.16666666666667 0.43333333333333 0.71666666666667
0.33333333333333 0.9 0.95
0.5 0.66666666666667 0.83333333333333
0.66666666666667 0.43333333333333 0.71666666666667
0.83333333333333 0.9 0.95
1 0.9 0.95
0 0.71666666666667 0.71666666666667
0.16666666666667 0.71666666666667 0.71666666666667
0.33333333333333 0.95 0.95
0.5 0.83333333333333 0.83333333333333
0.66666666666667 0.71666666666667 0.71666666666667
0.83333333333333 0.95 0.95
1 0.95 0.95
0 1 0.71666666666667
0.16666666666667 1 0.71666666666667
0.33333333333333 1 0.95
0.5 1 0.83333333333333
0.66666666666667 1 0.71666666666667
0.83333333333333 1 0.95
1 1 0.95
0 0 1
0.16666666666667 0 1
0.33333333333333 0 1
0.5 0 1
0.66666666666667 0 1
0.83333333333333 0 1
1 0 1
0 0.05 1
0.16666666666667 0.05 1
0.33333333333333 0.28333333333333 1
0.5 0.16666666666667 1
0.66666666666667 0.05 1
0.83333333333333 0.28333333333333 1
1 0.28333333333333 1
0 0.1 1
0.16666666666667 0.1 1
0.33333333333333 0.56666666666667 1
0.5 0.33333333333333 1
0.66666666666667 0.1 1
0.83333333333333 0.56666666666667 1
1 0.56666666666667 1
0 0.15 1
0.16666666666667 0.15 1
0.33333333333333 0.85 1
0.5 0.5 1
0.66666666666667 0.15 1
0.83333333333333 0.85 1
1 0.85 1
0 0.43333333333333 1
0.16666666666667 0.43333333333333 1
0.33333333333333 0.9 1
0.5 0.66666666666667 1
0.66666666666667 0.43333333333333 1
0.83333333333333 0.9 1
1 0.9 1
0 0.71666666666667 1
0.16666666666667 0.71666666666667 1
0.33333333333333 0.95 1
0.5 0.83333333333333 1
0.66666666666667 0.71666666666667 1
0.83333333333333 0.95 1
1 0.95 1
0 1 1
0.16666666666667 1 1
0.33333333333333 1 1
0.5 1 1
0.66666666666667 1 1
0.83333333333333 1 1
1 1 1
0.083333333333333 0 0
0.16666666666667 0.025 0
0.083333333333333 0.05 0
0 0.025 0
0.083333333333333 0 0.05
0.16666666666667 0.025 0.05
0.083333333333333 0.05 0.05
0 0.025 0.05
0 0 0.025
0.16666666666667 0 0.025
0.16666666666667 0.05 0.025
0 0.05 0.025
0.25 0 0
0.33333333333333 0.14166666666667 0
0.25 0.16666666666667 0
0.25 0 0.16666666666667
0.33333333333333 0.14166666666667 0.28333333333333
0.25 0.16666666666667 0.16666666666667
0.33333333333333 0 0.14166666666667
0.33333333333333 0.28333333333333 0.14166666666667
0.33333333333333 0.425 0
0.25 0.33333333333333 0
0.16666666666667 0.075 0
0.33333333333333 0.425 0.28333333333333
0.25 0.33333333333333 0.16666666666667
0.16666666666667 0.075 0.05
0.33333333333333 0.56666666666667 0.14166666666667
0.16666666666667 0.1 0.025
0.083333333333333 0.1 0
0 0.075 0
0.083333333333333 0.1 0.05
0 0.075 0.05
0 0.1 0.025
0.083333333333333 0.05 0.1
0.16666666666667 0.075 0.1
0.083333333333333 0.1 0.1
0 0.075 0.1
0 0.05 0.075
0.16666666666667 0.05 0.075
0.16666666666667 0.1 0.075
0 0.1 0.075
0.25 0.16666666666667 0.33333333333333
0.33333333333333 0.425 0.56666666666667
0.25 0.33333333333333 0.33333333333333
0.33333333333333 0.28333333333333 0.425
0.33333333333333 0.56666666666667 0.425
0.25 0 0.33333333333333
0.33333333333333 0.14166666666667 0.56666666666667
0.16666666666667 0.025 0.1
0.16666666666667 0 0.075
0.33333333333333 0 0.425
0.083333333333333 0 0.1
0 0.025 0.1
0 0 0.075
0.083333333333333 0 0.15
0.16666666666667 0.025 0.15
0.083333333333333 0.05 0.15
0 0.025 0.15
0 0 0.125
0.16666666666667 0 0.125
0.16666666666667 0.05 0.125
0 0.05 0.125
0.16666666666667 0.075 0.15
0.083333333333333 0.1 0.15
0 0.075 0.15
0.16666666666667 0.1 0.125
0 0.1 0.125
0.083333333333333 0.05 0.43333333333333
0.16666666666667 0.075 0.43333333333333
0.083333333333333 0.1 0.43333333333333
0 0.075 0.43333333333333
0 0.05 0.29166666666667
0.16666666666667 0.05 0.29166666666667
0.16666666666667 0.1 0.29166666666667
0 0.1 0.29166666666667
0.083333333333333 0 0.43333333333333
0.16666666666667 0.025 0.43333333333333
0 0.025 0.43333333333333
0 0 0.29166666666667
0.16666666666667 0 0.29166666666667
0.25 0 0.5
0.33333333333333 0.14166666666667 0.85
0.25 0.16666666666667 0.5
0.25 0 0.66666666666667
0.33333333333333 0.14166666666667 0.9
0.25 0.16666666666667 0.66666666666667
0.33333333333333 0 0.875
0.33333333333333 0.28333333333333 0.875
0.33333333333333 0.425 0.85
0.25 0.33333333333333 0.5
0.33333333333333 0.425 0.9
0.25 0.33333333333333 0.66666666666667
0.33333333333333 0.56666666666667 0.875
0.33333333333333 0.28333333333333 0.70833333333333
0.33333333333333 0.56666666666667 0.70833333333333
0.33333333333333 0 0.70833333333333
0.41666666666667 0 0.518359375
0.5 0.083333333333333 0.33333333333333
0.41666666666667 0.2591796875 0.518359375
0.41666666666667 0 0.7775390625
0.5 0.083333333333333 0.5
0.41666666666667 0.2591796875 0.7775390625
0.5 0 0.41666666666667
0.5 0.16666666666667 0.41666666666667
0.5 0.25 0.33333333333333
0.41666666666667 0.518359375 0.518359375
0.5 0.25 0.5
0.41666666666667 0.518359375 0.7775390625
0.5 0.33333333333333 0.41666666666667
0.41666666666667 0.2591796875 0.85169270833333
0.5 0.25 0.66666666666667
0.41666666666667 0.518359375 0.85169270833333
0.5 0.16666666666667 0.58333333333333
0.5 0.33333333333333 0.58333333333333
0.41666666666667 0 0.85169270833333
0.5 0.083333333333333 0.66666666666667
0.5 0 0.58333333333333
0.58333333333333 0 0.2224609375
0.66666666666667 0.025 0.15
0.58333333333333 0.074153645833333 0.2224609375
0.58333333333333 0 0.481640625
0.66666666666667 0.025 0.43333333333333
0.58333333333333 0.074153645833333 0.481640625
0.66666666666667 0 0.29166666666667
0.66666666666667 0.05 0.29166666666667
0.66666666666667 0.075 0.15
0.58333333333333 0.14830729166667 0.2224609375
0.66666666666667 0.075 0.43333333333333
0.58333333333333 0.14830729166667 0.481640625
0.66666666666667 0.1 0.29166666666667
0.58333333333333 0.074153645833333 0.14830729166667
0.66666666666667 0.075 0.1
0.58333333333333 0.14830729166667 0.14830729166667
0.66666666666667 0.05 0.125
0.66666666666667 0.1 0.125
0.58333333333333 0 0.14830729166667
0.66666666666667 0.025 0.1
0.66666666666667 0 0.125
0.58333333333333 0 0.074153645833333
0.66666666666667 0.025 0.05
0.58333333333333 0.074153645833333 0.074153645833333
0.5 0.083333333333333 0.16666666666667
0.5 0 0.25
0.66666666666667 0 0.075
0.66666666666667 0.05 0.075
0.5 0.16666666666667 0.25
0.58333333333333 0 0
0.66666666666667 0.025 0
0.58333333333333 0.074153645833333 0
0.5 0.083333333333333 0
0.5 0 0.083333333333333
0.66666666666667 0 0.025
0.66666666666667 0.05 0.025
0.5 0.16666666666667 0.083333333333333
0.41666666666667 0 0
0.41666666666667 0.2591796875 0
0.41666666666667 0 0.2591796875
0.41666666666667 0.2591796875 0.2591796875
0.5 0.25 0.16666666666667
0.41666666666667 0.518359375 0.2591796875
0.5 0.33333333333333 0.25
0.5 0.25 0
0.41666666666667 0.518359375 0
0.5 0.33333333333333 0.083333333333333
0.66666666666667 0.075 0
0.58333333333333 0.14830729166667 0
0.66666666666667 0.075 0.05
0.58333333333333 0.14830729166667 0.074153645833333
0.66666666666667 0.1 0.025
0.66666666666667 0.1 0.075
0.66666666666667 0.125 0.05
0.58333333333333 0.2224609375 0.074153645833333
0.5 0.41666666666667 0.16666666666667
0.66666666666667 0.125 0.1
0.58333333333333 0.2224609375 0.14830729166667
0.5 0.41666666666667 0.33333333333333
0.66666666666667 0.15 0.075
0.5 0.5 0.25
0.66666666666667 0.125 0
0.58333333333333 0.2224609375 0
0.5 0.41666666666667 0
0.66666666666667 0.15 0.025
0.5 0.5 0.083333333333333
0.41666666666667 0.7775390625 0
0.33333333333333 0.70833333333333 0
0.41666666666667 0.7775390625 0.2591796875
0.33333333333333 0.70833333333333 0.28333333333333
0.33333333333333 0.85 0.14166666666667
0.41666666666667 0.7775390625 0.518359375
0.33333333333333 0.70833333333333 0.56666666666667
0.33333333333333 0.85 0.425
0.5 0.58333333333333 0.16666666666667
0.41666666666667 0.85169270833333 0.2591796875
0.33333333333333 0.875 0.28333333333333
0.5 0.58333333333333 0.33333333333333
0.41666666666667 0.85169270833333 0.518359375
0.33333333333333 0.875 0.56666666666667
0.5 0.66666666666667 0.25
0.33333333333333 0.9 0.425
0.5 0.58333333333333 0
0.41666666666667 0.85169270833333 0
0.33333333333333 0.875 0
0.5 0.66666666666667 0.083333333333333
0.33333333333333 0.9 0.14166666666667
0.66666666666667 0.29166666666667 0
0.58333333333333 0.481640625 0
0.66666666666667 0.29166666666667 0.05
0.58333333333333 0.481640625 0.074153645833333
0.66666666666667 0.43333333333333 0.025
0.66666666666667 0.29166666666667 0.1
0.58333333333333 0.481640625 0.14830729166667
0.66666666666667 0.43333333333333 0.075
0.58333333333333 0.2224609375 0.2224609375
0.66666666666667 0.29166666666667 0.15
0.58333333333333 0.481640625 0.2224609375
0.5 0.58333333333333 0.5
0.5 0.5 0.41666666666667
0.66666666666667 0.15 0.125
0.66666666666667 0.43333333333333 0.125
0.5 0.66666666666667 0.41666666666667
0.66666666666667 0.125 0.15
0.5 0.41666666666667 0.5
0.66666666666667 0.125 0.43333333333333
0.58333333333333 0.2224609375 0.481640625
0.5 0.41666666666667 0.66666666666667
0.66666666666667 0.15 0.29166666666667
0.5 0.5 0.58333333333333
0.66666666666667 0.29166666666667 0.43333333333333
0.58333333333333 0.481640625 0.481640625
0.5 0.58333333333333 0.66666666666667
0.66666666666667 0.43333333333333 0.29166666666667
0.5 0.66666666666667 0.58333333333333
0.41666666666667 0.7775390625 0.7775390625
0.41666666666667 0.85169270833333 0.7775390625
0.33333333333333 0.875 0.85
0.41666666666667 0.7775390625 0.85169270833333
0.41666666666667 0.85169270833333 0.85169270833333
0.33333333333333 0.875 0.9
0.33333333333333 0.85 0.875
0.33333333333333 0.9 0.875
0.33333333333333 0.70833333333333 0.85
0.33333333333333 0.70833333333333 0.9
0.33333333333333 0.85 0.70833333333333
0.33333333333333 0.9 0.70833333333333
0.25 0.5 0.33333333333333
0.25 0.66666666666667 0.33333333333333
0.16666666666667 0.29166666666667 0.1
0.25 0.5 0.5
0.25 0.66666666666667 0.5
0.16666666666667 0.29166666666667 0.15
0.16666666666667 0.15 0.125
0.16666666666667 0.43333333333333 0.125
0.16666666666667 0.125 0.1
0.16666666666667 0.125 0.15
0.25 0.5 0.66666666666667
0.16666666666667 0.125 0.43333333333333
0.16666666666667 0.15 0.29166666666667
0.25 0.66666666666667 0.66666666666667
0.16666666666667 0.29166666666667 0.43333333333333
0.16666666666667 0.43333333333333 0.29166666666667
0.083333333333333 0.15 0.15
0.083333333333333 0.43333333333333 0.15
0 0.29166666666667 0.15
0.083333333333333 0.15 0.43333333333333
0.083333333333333 0.43333333333333 0.43333333333333
0 0.29166666666667 0.43333333333333
0 0.15 0.29166666666667
0 0.43333333333333 0.29166666666667
0 0.125 0.15
0 0.125 0.43333333333333
0.083333333333333 0.15 0.1
0 0.125 0.1
0 0.15 0.125
0.083333333333333 0.43333333333333 0.1
0 0.29166666666667 0.1
0 0.43333333333333 0.125
0.083333333333333 0.15 0.05
0.16666666666667 0.29166666666667 0.05
0.083333333333333 0.43333333333333 0.05
0 0.29166666666667 0.05
0 0.15 0.075
0.16666666666667 0.15 0.075
0.16666666666667 0.43333333333333 0.075
0 0.43333333333333 0.075
0.25 0.5 0.16666666666667
0.25 0.66666666666667 0.16666666666667
0.16666666666667 0.125 0.05
0 0.125 0.05
0.16666666666667 0.125 0
0.083333333333333 0.15 0
0 0.125 0
0.16666666666667 0.15 0.025
0 0.15 0.025
0.25 0.5 0
0.25 0.66666666666667 0
0.16666666666667 0.29166666666667 0
0.16666666666667 0.43333333333333 0.025
0.083333333333333 0.43333333333333 0
0 0.29166666666667 0
0 0.43333333333333 0.025
0.16666666666667 0.575 0
0.083333333333333 0.71666666666667 0
0 0.575 0
0.16666666666667 0.575 0.05
0.083333333333333 0.71666666666667 0.05
0 0.575 0.05
0.16666666666667 0.71666666666667 0.025
0 0.71666666666667 0.025
0.16666666666667 0.85833333333333 0
0.083333333333333 1 0
0 0.85833333333333 0
0.16666666666667 0.85833333333333 0.05
0.083333333333333 1 0.05
0 0.85833333333333 0.05
0.16666666666667 1 0.025
0 1 0.025
0.083333333333333 0.71666666666667 0.1
0.16666666666667 0.85833333333333 0.1
0.083333333333333 1 0.1
0 0.85833333333333 0.1
0 0.71666666666667 0.075
0.16666666666667 0.71666666666667 0.075
0.16666666666667 1 0.075
0 1 0.075
0.16666666666667 0.575 0.1
0 0.575 0.1
0.16666666666667 0.575 0.15
0.083333333333333 0.71666666666667 0.15
0 0.575 0.15
0.16666666666667 0.71666666666667 0.125
0 0.71666666666667 0.125
0.16666666666667 0.85833333333333 0.15
0.083333333333333 1 0.15
0 0.85833333333333 0.15
0.16666666666667 1 0.125
0 1 0.125
0.083333333333333 0.71666666666667 0.43333333333333
0.16666666666667 0.85833333333333 0.43333333333333
0.083333333333333 1 0.43333333333333
0 0.85833333333333 0.43333333333333
0 0.71666666666667 0.29166666666667
0.16666666666667 0.71666666666667 0.29166666666667
0.16666666666667 1 0.29166666666667
0 1 0.29166666666667
0.16666666666667 0.575 0.43333333333333
0 0.575 0.43333333333333
0.33333333333333 0.925 0.85
0.25 0.83333333333333 0.5
0.33333333333333 0.925 0.9
0.25 0.83333333333333 0.66666666666667
0.33333333333333 0.95 0.875
0.33333333333333 0.975 0.85
0.25 1 0.5
0.33333333333333 0.975 0.9
0.25 1 0.66666666666667
0.33333333333333 1 0.875
0.25 0.83333333333333 0.33333333333333
0.33333333333333 0.975 0.56666666666667
0.25 1 0.33333333333333
0.33333333333333 0.95 0.70833333333333
0.33333333333333 1 0.70833333333333
0.33333333333333 0.925 0.56666666666667
0.33333333333333 0.925 0.28333333333333
0.25 0.83333333333333 0.16666666666667
0.33333333333333 0.95 0.425
0.33333333333333 0.975 0.28333333333333
0.25 1 0.16666666666667
0.33333333333333 1 0.425
0.25 0.83333333333333 0
0.33333333333333 0.975 0
0.25 1 0
0.33333333333333 0.95 0.14166666666667
0.33333333333333 1 0.14166666666667
0.33333333333333 0.925 0
0.5 0.75 0
0.41666666666667 0.92584635416667 0
0.5 0.75 0.16666666666667
0.41666666666667 0.92584635416667 0.2591796875
0.5 0.83333333333333 0.083333333333333
0.66666666666667 0.575 0
0.58333333333333 0.7408203125 0
0.66666666666667 0.575 0.05
0.58333333333333 0.7408203125 0.074153645833333
0.66666666666667 0.71666666666667 0.025
0.66666666666667 0.85833333333333 0
0.58333333333333 1 0
0.5 0.91666666666667 0
0.66666666666667 0.85833333333333 0.05
0.58333333333333 1 0.074153645833333
0.5 0.91666666666667 0.16666666666667
0.66666666666667 1 0.025
0.5 1 0.083333333333333
0.41666666666667 1 0
0.41666666666667 1 0.2591796875
0.41666666666667 0.92584635416667 0.518359375
0.5 0.91666666666667 0.33333333333333
0.41666666666667 1 0.518359375
0.5 0.83333333333333 0.25
0.5 1 0.25
0.58333333333333 0.7408203125 0.14830729166667
0.66666666666667 0.85833333333333 0.1
0.58333333333333 1 0.14830729166667
0.66666666666667 0.71666666666667 0.075
0.66666666666667 1 0.075
0.66666666666667 0.575 0.1
0.5 0.75 0.33333333333333
0.5 0.75 0.5
0.41666666666667 0.92584635416667 0.7775390625
0.5 0.83333333333333 0.41666666666667
0.66666666666667 0.575 0.15
0.58333333333333 0.7408203125 0.2224609375
0.66666666666667 0.71666666666667 0.125
0.66666666666667 0.85833333333333 0.15
0.58333333333333 1 0.2224609375
0.5 0.91666666666667 0.5
0.66666666666667 1 0.125
0.5 1 0.41666666666667
0.41666666666667 1 0.7775390625
0.41666666666667 0.92584635416667 0.85169270833333
0.5 0.91666666666667 0.66666666666667
0.41666666666667 1 0.85169270833333
0.5 0.83333333333333 0.58333333333333
0.5 1 0.58333333333333
0.58333333333333 0.7408203125 0.481640625
0.66666666666667 0.85833333333333 0.43333333333333
0.58333333333333 1 0.481640625
0.66666666666667 0.71666666666667 0.29166666666667
0.66666666666667 1 0.29166666666667
0.66666666666667 0.575 0.43333333333333
0.5 0.75 0.66666666666667
0.41666666666667 0.85169270833333 0.92584635416667
0.5 0.75 0.83333333333333
0.41666666666667 0.92584635416667 0.92584635416667
0.33333333333333 0.925 0.95
0.33333333333333 0.9 0.925
0.5 0.66666666666667 0.75
0.5 0.83333333333333 0.75
0.33333333333333 0.95 0.925
0.58333333333333 0.481640625 0.7408203125
0.66666666666667 0.575 0.71666666666667
0.58333333333333 0.7408203125 0.7408203125
0.66666666666667 0.43333333333333 0.575
0.66666666666667 0.71666666666667 0.575
0.66666666666667 0.85833333333333 0.71666666666667
0.58333333333333 1 0.7408203125
0.5 0.91666666666667 0.83333333333333
0.66666666666667 1 0.575
0.5 1 0.75
0.41666666666667 1 0.92584635416667
0.33333333333333 0.975 0.95
0.33333333333333 1 0.925
0.41666666666667 0.92584635416667 1
0.5 0.91666666666667 1
0.41666666666667 1 1
0.33333333333333 0.975 1
0.33333333333333 0.95 0.975
0.5 0.83333333333333 0.91666666666667
0.5 1 0.91666666666667
0.33333333333333 1 0.975
0.58333333333333 0.7408203125 1
0.66666666666667 0.85833333333333 1
0.58333333333333 1 1
0.66666666666667 0.71666666666667 0.85833333333333
0.66666666666667 1 0.85833333333333
0.58333333333333 0.481640625 1
0.66666666666667 0.575 1
0.5 0.75 1
0.5 0.66666666666667 0.91666666666667
0.66666666666667 0.43333333333333 0.85833333333333
0.41666666666667 0.85169270833333 1
0.33333333333333 0.925 1
0.33333333333333 0.9 0.975
0.25 0.66666666666667 0.83333333333333
0.25 0.83333333333333 0.83333333333333
0.16666666666667 0.575 0.71666666666667
0.25 0.66666666666667 1
0.25 0.83333333333333 1
0.16666666666667 0.575 1
0.16666666666667 0.43333333333333 0.85833333333333
0.16666666666667 0.71666666666667 0.85833333333333
0.25 1 0.83333333333333
0.16666666666667 0.85833333333333 0.71666666666667
0.25 1 1
0.16666666666667 0.85833333333333 1
0.16666666666667 1 0.85833333333333
0.16666666666667 0.71666666666667 0.575
0.16666666666667 1 0.575
0.16666666666667 0.43333333333333 0.575
0.083333333333333 0.43333333333333 0.71666666666667
0.083333333333333 0.71666666666667 0.71666666666667
0 0.575 0.71666666666667
0 0.43333333333333 0.575
0 0.71666666666667 0.575
0.083333333333333 1 0.71666666666667
0 0.85833333333333 0.71666666666667
0 1 0.575
0.083333333333333 0.71666666666667 1
0.083333333333333 1 1
0 0.85833333333333 1
0 0.71666666666667 0.85833333333333
0 1 0.85833333333333
0.083333333333333 0.43333333333333 1
0 0.575 1
0 0.43333333333333 0.85833333333333
0.083333333333333 0.15 0.71666666666667
0.16666666666667 0.29166666666667 0.71666666666667
0 0.29166666666667 0.71666666666667
0.083333333333333 0.15 1
0.16666666666667 0.29166666666667 1
0 0.29166666666667 1
0 0.15 0.85833333333333
0.16666666666667 0.15 0.85833333333333
0 0.15 0.575
0.16666666666667 0.15 0.575
0.25 0.5 0.83333333333333
0.33333333333333 0.875 0.95
0.33333333333333 0.85 0.925
0.25 0.5 1
0.33333333333333 0.875 1
0.33333333333333 0.85 0.975
0.41666666666667 0.7775390625 0.92584635416667
0.5 0.58333333333333 0.83333333333333
0.41666666666667 0.7775390625 1
0.5 0.58333333333333 1
0.5 0.5 0.91666666666667
0.5 0.5 0.75
0.58333333333333 0.2224609375 0.7408203125
0.66666666666667 0.29166666666667 0.71666666666667
0.66666666666667 0.15 0.575
0.58333333333333 0.2224609375 1
0.66666666666667 0.29166666666667 1
0.66666666666667 0.15 0.85833333333333
0.58333333333333 0.14830729166667 0.7408203125
0.66666666666667 0.125 0.71666666666667
0.5 0.41666666666667 0.83333333333333
0.58333333333333 0.14830729166667 1
0.66666666666667 0.125 1
0.5 0.41666666666667 1
0.5 0.33333333333333 0.91666666666667
0.66666666666667 0.1 0.85833333333333
0.5 0.33333333333333 0.75
0.66666666666667 0.1 0.575
0.41666666666667 0.518359375 0.92584635416667
0.33333333333333 0.70833333333333 0.95
0.33333333333333 0.56666666666667 0.925
0.41666666666667 0.518359375 1
0.33333333333333 0.70833333333333 1
0.33333333333333 0.56666666666667 0.975
0.25 0.33333333333333 0.83333333333333
0.16666666666667 0.125 0.71666666666667
0.25 0.33333333333333 1
0.16666666666667 0.125 1
0.16666666666667 0.1 0.85833333333333
0.16666666666667 0.1 0.575
0.083333333333333 0.1 0.71666666666667
0 0.125 0.71666666666667
0 0.1 0.575
0.083333333333333 0.1 1
0 0.125 1
0 0.1 0.85833333333333
0.083333333333333 0.05 0.71666666666667
0.16666666666667 0.075 0.71666666666667
0 0.075 0.71666666666667
0.083333333333333 0.05 1
0.16666666666667 0.075 1
0 0.075 1
0 0.05 0.85833333333333
0.16666666666667 0.05 0.85833333333333
0.083333333333333 0 0.71666666666667
0.16666666666667 0.025 0.71666666666667
0 0.025 0.71666666666667
0.083333333333333 0 1
0.16666666666667 0.025 1
0 0.025 1
0 0 0.85833333333333
0.16666666666667 0 0.85833333333333
0 0 0.575
0.16666666666667 0 0.575
0.16666666666667 0.05 0.575
0 0.05 0.575
0.25 0.16666666666667 0.83333333333333
0.33333333333333 0.425 0.95
0.33333333333333 0.28333333333333 0.925
0.25 0 0.83333333333333
0.33333333333333 0.14166666666667 0.95
0.33333333333333 0 0.925
0.25 0 1
0.33333333333333 0.14166666666667 1
0.25 0.16666666666667 1
0.33333333333333 0 0.975
0.33333333333333 0.28333333333333 0.975
0.33333333333333 0.425 1
0.41666666666667 0.2591796875 0.92584635416667
0.5 0.25 0.83333333333333
0.41666666666667 0.2591796875 1
0.5 0.25 1
0.5 0.16666666666667 0.91666666666667
0.41666666666667 0 0.92584635416667
0.5 0.083333333333333 0.83333333333333
0.41666666666667 0 1
0.5 0.083333333333333 1
0.5 0 0.91666666666667
0.5 0 0.75
0.5 0.16666666666667 0.75
0.58333333333333 0.074153645833333 0.7408203125
0.66666666666667 0.075 0.71666666666667
0.66666666666667 0.05 0.575
0.58333333333333 0 0.7408203125
0.66666666666667 0.025 0.71666666666667
0.66666666666667 0 0.575
0.58333333333333 0 1
0.66666666666667 0.025 1
0.58333333333333 0.074153645833333 1
0.66666666666667 0 0.85833333333333
0.66666666666667 0.05 0.85833333333333
0.66666666666667 0.075 1
0.75 0.16666666666667 0.83333333333333
0.83333333333333 0.425 0.95
0.75 0.33333333333333 0.83333333333333
0.75 0.16666666666667 1
0.83333333333333 0.425 1
0.75 0.33333333333333 1
0.83333333333333 0.28333333333333 0.975
0.83333333333333 0.56666666666667 0.975
0.75 0 0.83333333333333
0.83333333333333 0.14166666666667 0.95
0.75 0 1
0.83333333333333 0.14166666666667 1
0.83333333333333 0 0.975
0.75 0 0.66666666666667
0.83333333333333 0.14166666666667 0.9
0.75 0.16666666666667 0.66666666666667
0.83333333333333 0 0.925
0.83333333333333 0.28333333333333 0.925
0.83333333333333 0.425 0.9
0.75 0.33333333333333 0.66666666666667
0.83333333333333 0.56666666666667 0.925
0.91666666666667 0.28333333333333 0.9
1 0.425 0.9
0.91666666666667 0.56666666666667 0.9
0.91666666666667 0.28333333333333 0.95
1 0.425 0.95
0.91666666666667 0.56666666666667 0.95
1 0.28333333333333 0.925
1 0.56666666666667 0.925
0.91666666666667 0 0.9
1 0.14166666666667 0.9
0.91666666666667 0 0.95
1 0.14166666666667 0.95
1 0 0.925
0.91666666666667 0 1
1 0.14166666666667 1
0.91666666666667 0.28333333333333 1
1 0 0.975
1 0.28333333333333 0.975
1 0.425 1
0.91666666666667 0.56666666666667 1
1 0.56666666666667 0.975
1 0.70833333333333 0.95
0.91666666666667 0.85 0.95
0.83333333333333 0.70833333333333 0.95
1 0.70833333333333 1
0.91666666666667 0.85 1
0.83333333333333 0.70833333333333 1
1 0.85 0.975
0.83333333333333 0.85 0.975
1 0.70833333333333 0.9
0.91666666666667 0.85 0.9
0.83333333333333 0.70833333333333 0.9
1 0.85 0.925
0.83333333333333 0.85 0.925
0.75 0.5 0.66666666666667
0.75 0.5 0.83333333333333
0.75 0.5 1
0.83333333333333 0.875 0.95
0.75 0.66666666666667 0.83333333333333
0.83333333333333 0.875 1
0.75 0.66666666666667 1
0.83333333333333 0.9 0.975
0.83333333333333 0.875 0.9
0.75 0.66666666666667 0.66666666666667
0.83333333333333 0.9 0.925
1 0.875 0.9
0.91666666666667 0.9 0.9
1 0.875 0.95
0.91666666666667 0.9 0.95
1 0.9 0.925
1 0.875 1
0.91666666666667 0.9 1
1 0.9 0.975
1 0.925 0.95
0.91666666666667 0.95 0.95
0.83333333333333 0.925 0.95
1 0.925 1
0.91666666666667 0.95 1
0.83333333333333 0.925 1
1 0.95 0.975
0.83333333333333 0.95 0.975
0.75 0.83333333333333 0.83333333333333
0.75 0.83333333333333 1
0.83333333333333 0.975 0.95
0.75 1 0.83333333333333
0.83333333333333 0.975 1
0.75 1 1
0.83333333333333 1 0.975
1 0.975 0.95
0.91666666666667 1 0.95
1 0.975 1
0.91666666666667 1 1
1 1 0.975
0.91666666666667 0.95 0.9
1 0.975 0.9
0.91666666666667 1 0.9
0.83333333333333 0.975 0.9
0.83333333333333 0.95 0.925
1 0.95 0.925
1 1 0.925
0.83333333333333 1 0.925
0.75 0.83333333333333 0.66666666666667
0.75 1 0.66666666666667
0.83333333333333 0.925 0.9
1 0.925 0.9
0.91666666666667 0.9 0.85
1 0.925 0.85
0.91666666666667 0.95 0.85
0.83333333333333 0.925 0.85
0.83333333333333 0.9 0.875
1 0.9 0.875
1 0.95 0.875
0.83333333333333 0.95 0.875
0.75 0.66666666666667 0.5
0.75 0.83333333333333 0.5
0.83333333333333 0.975 0.85
0.75 1 0.5
0.83333333333333 1 0.875
1 0.975 0.85
0.91666666666667 1 0.85
1 1 0.875
0.91666666666667 0.95 0.56666666666667
1 0.975 0.56666666666667
0.91666666666667 1 0.56666666666667
0.83333333333333 0.975 0.56666666666667
0.83333333333333 0.95 0.70833333333333
1 0.95 0.70833333333333
1 1 0.70833333333333
0.83333333333333 1 0.70833333333333
0.75 0.83333333333333 0.33333333333333
0.75 1 0.33333333333333
0.75 0.66666666666667 0.33333333333333
0.83333333333333 0.925 0.56666666666667
0.83333333333333 0.9 0.70833333333333
0.91666666666667 0.9 0.56666666666667
1 0.925 0.56666666666667
1 0.9 0.70833333333333
0.91666666666667 0.9 0.28333333333333
1 0.925 0.28333333333333
0.91666666666667 0.95 0.28333333333333
0.83333333333333 0.925 0.28333333333333
0.83333333333333 0.9 0.425
1 0.9 0.425
1 0.95 0.425
0.83333333333333 0.95 0.425
0.75 0.66666666666667 0.16666666666667
0.75 0.83333333333333 0.16666666666667
0.83333333333333 0.975 0.28333333333333
0.75 1 0.16666666666667
0.83333333333333 1 0.425
1 0.975 0.28333333333333
0.91666666666667 1 0.28333333333333
1 1 0.425
0.91666666666667 0.95 0
1 0.975 0
0.91666666666667 1 0
0.83333333333333 0.975 0
0.83333333333333 0.95 0.14166666666667
1 0.95 0.14166666666667
1 1 0.14166666666667
0.83333333333333 1 0.14166666666667
0.75 0.83333333333333 0
0.75 1 0
0.75 0.66666666666667 0
0.83333333333333 0.925 0
0.83333333333333 0.9 0.14166666666667
0.91666666666667 0.9 0
1 0.925 0
1 0.9 0.14166666666667
0.91666666666667 0.85 0
1 0.875 0
0.83333333333333 0.875 0
0.91666666666667 0.85 0.28333333333333
1 0.875 0.28333333333333
0.83333333333333 0.875 0.28333333333333
0.83333333333333 0.85 0.14166666666667
1 0.85 0.14166666666667
0.75 0.5 0
0.75 0.5 0.16666666666667
0.75 0.33333333333333 0
0.83333333333333 0.70833333333333 0
0.75 0.33333333333333 0.16666666666667
0.83333333333333 0.70833333333333 0.28333333333333
0.83333333333333 0.56666666666667 0.14166666666667
0.91666666666667 0.56666666666667 0
1 0.70833333333333 0
0.91666666666667 0.56666666666667 0.28333333333333
1 0.70833333333333 0.28333333333333
1 0.56666666666667 0.14166666666667
0.91666666666667 0.56666666666667 0.56666666666667
1 0.70833333333333 0.56666666666667
0.91666666666667 0.85 0.56666666666667
0.83333333333333 0.70833333333333 0.56666666666667
0.83333333333333 0.56666666666667 0.425
1 0.56666666666667 0.425
1 0.85 0.425
0.83333333333333 0.85 0.425
0.75 0.33333333333333 0.33333333333333
0.75 0.5 0.33333333333333
0.83333333333333 0.875 0.56666666666667
1 0.875 0.56666666666667
0.91666666666667 0.85 0.85
1 0.875 0.85
0.83333333333333 0.875 0.85
0.83333333333333 0.85 0.70833333333333
1 0.85 0.70833333333333
0.83333333333333 0.85 0.875
1 0.85 0.875
0.75 0.5 0.5
0.75 0.33333333333333 0.5
0.83333333333333 0.70833333333333 0.85
0.83333333333333 0.56666666666667 0.70833333333333
0.83333333333333 0.56666666666667 0.875
0.91666666666667 0.56666666666667 0.85
1 0.70833333333333 0.85
1 0.56666666666667 0.875
1 0.56666666666667 0.70833333333333
0.91666666666667 0.28333333333333 0.56666666666667
1 0.425 0.56666666666667
0.83333333333333 0.425 0.56666666666667
0.91666666666667 0.28333333333333 0.85
1 0.425 0.85
0.83333333333333 0.425 0.85
0.83333333333333 0.28333333333333 0.70833333333333
1 0.28333333333333 0.70833333333333
0.83333333333333 0.28333333333333 0.875
1 0.28333333333333 0.875
0.75 0.16666666666667 0.5
0.75 0.16666666666667 0.33333333333333
0.75 0 0.33333333333333
0.83333333333333 0.14166666666667 0.56666666666667
0.75 0 0.5
0.83333333333333 0.14166666666667 0.85
0.83333333333333 0 0.70833333333333
0.83333333333333 0 0.875
0.91666666666667 0 0.85
1 0.14166666666667 0.85
1 0 0.875
0.91666666666667 0 0.56666666666667
1 0.14166666666667 0.56666666666667
1 0 0.70833333333333
0.91666666666667 0 0.28333333333333
1 0.14166666666667 0.28333333333333
0.91666666666667 0.28333333333333 0.28333333333333
0.83333333333333 0.14166666666667 0.28333333333333
0.83333333333333 0 0.425
1 0 0.425
1 0.28333333333333 0.425
0.83333333333333 0.28333333333333 0.425
0.75 0 0.16666666666667
0.75 0.16666666666667 0.16666666666667
0.83333333333333 0.425 0.28333333333333
1 0.425 0.28333333333333
0.91666666666667 0.28333333333333 0
1 0.425 0
0.83333333333333 0.425 0
0.83333333333333 0.28333333333333 0.14166666666667
1 0.28333333333333 0.14166666666667
0.75 0.16666666666667 0
0.75 0 0
0.83333333333333 0.14166666666667 0
0.83333333333333 0 0.14166666666667
0.91666666666667 0 0
1 0.14166666666667 0
1 0 0.14166666666667
0.083333333333333 0.025 0
0.083333333333333 0 0.025
0.16666666666667 0.025 0.025
0.083333333333333 0.05 0.025
0 0.025 0.025
0.083333333333333 0.025 0.05
0.25 0.083333333333333 0
0.25 0 0.083333333333333
0.33333333333333 0.14166666666667 0.14166666666667
0.25 0.16666666666667 0.083333333333333
0.25 0.083333333333333 0.16666666666667
0.25 0.25 0
0.33333333333333 0.425 0.14166666666667
0.25 0.33333333333333 0.083333333333333
0.16666666666667 0.075 0.025
0.25 0.25 0.16666666666667
0.083333333333333 0.075 0
0.083333333333333 0.1 0.025
0 0.075 0.025
0.083333333333333 0.075 0.05
0.083333333333333 0.05 0.075
0.16666666666667 0.075 0.075
0.083333333333333 0.1 0.075
0 0.075 0.075
0.083333333333333 0.075 0.1
0.25 0.16666666666667 0.25
0.33333333333333 0.425 0.425
0.25 0.33333333333333 0.25
0.25 0.25 0.33333333333333
0.25 0 0.25
0.33333333333333 0.14166666666667 0.425
0.16666666666667 0.025 0.075
0.25 0.083333333333333 0.33333333333333
0.083333333333333 0 0.075
0 0.025 0.075
0.083333333333333 0.025 0.1
0.083333333333333 0 0.125
0.16666666666667 0.025 0.125
0.083333333333333 0.05 0.125
0 0.025 0.125
0.083333333333333 0.025 0.15
0.16666666666667 0.075 0.125
0.083333333333333 0.1 0.125
0 0.075 0.125
0.083333333333333 0.075 0.15
0.083333333333333 0.05 0.29166666666667
0.16666666666667 0.075 0.29166666666667
0.083333333333333 0.1 0.29166666666667
0 0.075 0.29166666666667
0.083333333333333 0.075 0.43333333333333
0.083333333333333 0 0.29166666666667
0.16666666666667 0.025 0.29166666666667
0 0.025 0.29166666666667
0.083333333333333 0.025 0.43333333333333
0.25 0.083333333333333 0.5
0.25 0 0.58333333333333
0.33333333333333 0.14166666666667 0.875
0.25 0.16666666666667 0.58333333333333
0.25 0.083333333333333 0.66666666666667
0.25 0.25 0.5
0.33333333333333 0.425 0.875
0.25 0.33333333333333 0.58333333333333
0.25 0.25 0.66666666666667
0.25 0.16666666666667 0.41666666666667
0.33333333333333 0.425 0.70833333333333
0.25 0.33333333333333 0.41666666666667
0.25 0 0.41666666666667
0.33333333333333 0.14166666666667 0.70833333333333
0.41666666666667 0.12958984375 0.518359375
0.41666666666667 0 0.64794921875
0.5 0.083333333333333 0.41666666666667
0.41666666666667 0.2591796875 0.64794921875
0.41666666666667 0.12958984375 0.7775390625
0.41666666666667 0.38876953125 0.518359375
0.5 0.25 0.41666666666667
0.41666666666667 0.518359375 0.64794921875
0.41666666666667 0.38876953125 0.7775390625
0.41666666666667 0.2591796875 0.81461588541667
0.5 0.25 0.58333333333333
0.41666666666667 0.518359375 0.81461588541667
0.41666666666667 0.38876953125 0.85169270833333
0.41666666666667 0 0.81461588541667
0.5 0.083333333333333 0.58333333333333
0.41666666666667 0.12958984375 0.85169270833333
0.58333333333333 0.037076822916667 0.2224609375
0.58333333333333 0 0.35205078125
0.66666666666667 0.025 0.29166666666667
0.58333333333333 0.074153645833333 0.35205078125
0.58333333333333 0.037076822916667 0.481640625
0.58333333333333 0.11123046875 0.2224609375
0.66666666666667 0.075 0.29166666666667
0.58333333333333 0.14830729166667 0.35205078125
0.58333333333333 0.11123046875 0.481640625
0.58333333333333 0.11123046875 0.14830729166667
0.58333333333333 0.074153645833333 0.18538411458333
0.66666666666667 0.075 0.125
0.58333333333333 0.14830729166667 0.18538411458333
0.58333333333333 0.037076822916667 0.14830729166667
0.58333333333333 0 0.18538411458333
0.66666666666667 0.025 0.125
0.58333333333333 0.037076822916667 0.074153645833333
0.58333333333333 0 0.11123046875
0.66666666666667 0.025 0.075
0.58333333333333 0.074153645833333 0.11123046875
0.5 0.083333333333333 0.25
0.58333333333333 0.037076822916667 0
0.58333333333333 0 0.037076822916667
0.66666666666667 0.025 0.025
0.58333333333333 0.074153645833333 0.037076822916667
0.5 0.083333333333333 0.083333333333333
0.41666666666667 0.12958984375 0
0.41666666666667 0 0.12958984375
0.41666666666667 0.2591796875 0.12958984375
0.41666666666667 0.12958984375 0.2591796875
0.41666666666667 0 0.38876953125
0.41666666666667 0.2591796875 0.38876953125
0.41666666666667 0.38876953125 0.2591796875
0.5 0.25 0.25
0.41666666666667 0.518359375 0.38876953125
0.41666666666667 0.38876953125 0
0.5 0.25 0.083333333333333
0.41666666666667 0.518359375 0.12958984375
0.58333333333333 0.11123046875 0
0.66666666666667 0.075 0.025
0.58333333333333 0.14830729166667 0.037076822916667
0.58333333333333 0.11123046875 0.074153645833333
0.66666666666667 0.075 0.075
0.58333333333333 0.14830729166667 0.11123046875
0.58333333333333 0.18538411458333 0.074153645833333
0.66666666666667 0.125 0.075
0.58333333333333 0.2224609375 0.11123046875
0.5 0.41666666666667 0.25
0.58333333333333 0.18538411458333 0.14830729166667
0.58333333333333 0.18538411458333 0
0.66666666666667 0.125 0.025
0.58333333333333 0.2224609375 0.037076822916667
0.5 0.41666666666667 0.083333333333333
0.41666666666667 0.64794921875 0
0.41666666666667 0.7775390625 0.12958984375
0.33333333333333 0.70833333333333 0.14166666666667
0.41666666666667 0.64794921875 0.2591796875
0.41666666666667 0.7775390625 0.38876953125
0.33333333333333 0.70833333333333 0.425
0.41666666666667 0.64794921875 0.518359375
0.41666666666667 0.81461588541667 0.2591796875
0.5 0.58333333333333 0.25
0.41666666666667 0.85169270833333 0.38876953125
0.33333333333333 0.875 0.425
0.41666666666667 0.81461588541667 0.518359375
0.41666666666667 0.81461588541667 0
0.5 0.58333333333333 0.083333333333333
0.41666666666667 0.85169270833333 0.12958984375
0.33333333333333 0.875 0.14166666666667
0.58333333333333 0.35205078125 0
0.66666666666667 0.29166666666667 0.025
0.58333333333333 0.481640625 0.037076822916667
0.58333333333333 0.35205078125 0.074153645833333
0.66666666666667 0.29166666666667 0.075
0.58333333333333 0.481640625 0.11123046875
0.58333333333333 0.35205078125 0.14830729166667
0.58333333333333 0.2224609375 0.18538411458333
0.66666666666667 0.29166666666667 0.125
0.58333333333333 0.481640625 0.18538411458333
0.5 0.58333333333333 0.41666666666667
0.58333333333333 0.35205078125 0.2224609375
0.66666666666667 0.125 0.125
0.5 0.41666666666667 0.41666666666667
0.58333333333333 0.18538411458333 0.2224609375
0.66666666666667 0.125 0.29166666666667
0.58333333333333 0.2224609375 0.35205078125
0.5 0.41666666666667 0.58333333333333
0.58333333333333 0.18538411458333 0.481640625
0.66666666666667 0.29166666666667 0.29166666666667
0.58333333333333 0.481640625 0.35205078125
0.5 0.58333333333333 0.58333333333333
0.58333333333333 0.35205078125 0.481640625
0.41666666666667 0.81461588541667 0.7775390625
0.41666666666667 0.7775390625 0.81461588541667
0.41666666666667 0.85169270833333 0.81461588541667
0.33333333333333 0.875 0.875
0.41666666666667 0.81461588541667 0.85169270833333
0.41666666666667 0.64794921875 0.7775390625
0.33333333333333 0.70833333333333 0.875
0.41666666666667 0.64794921875 0.85169270833333
0.41666666666667 0.7775390625 0.64794921875
0.33333333333333 0.70833333333333 0.70833333333333
0.41666666666667 0.85169270833333 0.64794921875
0.33333333333333 0.875 0.70833333333333
0.25 0.58333333333333 0.33333333333333
0.25 0.5 0.41666666666667
0.25 0.66666666666667 0.41666666666667
0.16666666666667 0.29166666666667 0.125
0.25 0.58333333333333 0.5
0.25 0.41666666666667 0.33333333333333
0.16666666666667 0.125 0.125
0.25 0.41666666666667 0.5
0.25 0.5 0.58333333333333
0.16666666666667 0.125 0.29166666666667
0.25 0.41666666666667 0.66666666666667
0.25 0.66666666666667 0.58333333333333
0.16666666666667 0.29166666666667 0.29166666666667
0.25 0.58333333333333 0.66666666666667
0.083333333333333 0.29166666666667 0.15
0.083333333333333 0.15 0.29166666666667
0.083333333333333 0.43333333333333 0.29166666666667
0 0.29166666666667 0.29166666666667
0.083333333333333 0.29166666666667 0.43333333333333
0.083333333333333 0.125 0.15
0 0.125 0.29166666666667
0.083333333333333 0.125 0.43333333333333
0.083333333333333 0.125 0.1
0.083333333333333 0.15 0.125
0 0.125 0.125
0.083333333333333 0.29166666666667 0.1
0.083333333333333 0.43333333333333 0.125
0 0.29166666666667 0.125
0.083333333333333 0.29166666666667 0.05
0.083333333333333 0.15 0.075
0.16666666666667 0.29166666666667 0.075
0.083333333333333 0.43333333333333 0.075
0 0.29166666666667 0.075
0.25 0.58333333333333 0.16666666666667
0.25 0.5 0.25
0.25 0.66666666666667 0.25
0.25 0.41666666666667 0.16666666666667
0.16666666666667 0.125 0.075
0.083333333333333 0.125 0.05
0 0.125 0.075
0.083333333333333 0.125 0
0.16666666666667 0.125 0.025
0.083333333333333 0.15 0.025
0 0.125 0.025
0.25 0.41666666666667 0
0.25 0.5 0.083333333333333
0.25 0.58333333333333 0
0.25 0.66666666666667 0.083333333333333
0.16666666666667 0.29166666666667 0.025
0.083333333333333 0.29166666666667 0
0.083333333333333 0.43333333333333 0.025
0 0.29166666666667 0.025
0.083333333333333 0.575 0
0.16666666666667 0.575 0.025
0.083333333333333 0.71666666666667 0.025
0 0.575 0.025
0.083333333333333 0.575 0.05
0.083333333333333 0.85833333333333 0
0.16666666666667 0.85833333333333 0.025
0.083333333333333 1 0.025
0 0.85833333333333 0.025
0.083333333333333 0.85833333333333 0.05
0.083333333333333 0.71666666666667 0.075
0.16666666666667 0.85833333333333 0.075
0.083333333333333 1 0.075
0 0.85833333333333 0.075
0.083333333333333 0.85833333333333 0.1
0.16666666666667 0.575 0.075
0 0.575 0.075
0.083333333333333 0.575 0.1
0.16666666666667 0.575 0.125
0.083333333333333 0.71666666666667 0.125
0 0.575 0.125
0.083333333333333 0.575 0.15
0.16666666666667 0.85833333333333 0.125
0.083333333333333 1 0.125
0 0.85833333333333 0.125
0.083333333333333 0.85833333333333 0.15
0.083333333333333 0.71666666666667 0.29166666666667
0.16666666666667 0.85833333333333 0.29166666666667
0.083333333333333 1 0.29166666666667
0 0.85833333333333 0.29166666666667
0.083333333333333 0.85833333333333 0.43333333333333
0.16666666666667 0.575 0.29166666666667
0 0.575 0.29166666666667
0.083333333333333 0.575 0.43333333333333
0.25 0.75 0.5
0.33333333333333 0.925 0.875
0.25 0.83333333333333 0.58333333333333
0.25 0.75 0.66666666666667
0.25 0.91666666666667 0.5
0.33333333333333 0.975 0.875
0.25 1 0.58333333333333
0.25 0.91666666666667 0.66666666666667
0.25 0.91666666666667 0.33333333333333
0.25 0.83333333333333 0.41666666666667
0.33333333333333 0.975 0.70833333333333
0.25 1 0.41666666666667
0.25 0.75 0.33333333333333
0.33333333333333 0.925 0.70833333333333
0.25 0.75 0.16666666666667
0.33333333333333 0.925 0.425
0.25 0.83333333333333 0.25
0.25 0.91666666666667 0.16666666666667
0.33333333333333 0.975 0.425
0.25 1 0.25
0.25 0.91666666666667 0
0.25 0.83333333333333 0.083333333333333
0.33333333333333 0.975 0.14166666666667
0.25 1 0.083333333333333
0.25 0.75 0
0.33333333333333 0.925 0.14166666666667
0.41666666666667 0.88876953125 0
0.5 0.75 0.083333333333333
0.41666666666667 0.92584635416667 0.12958984375
0.41666666666667 0.88876953125 0.2591796875
0.58333333333333 0.61123046875 0
0.66666666666667 0.575 0.025
0.58333333333333 0.7408203125 0.037076822916667
0.58333333333333 0.61123046875 0.074153645833333
0.58333333333333 0.87041015625 0
0.66666666666667 0.85833333333333 0.025
0.58333333333333 1 0.037076822916667
0.5 0.91666666666667 0.083333333333333
0.58333333333333 0.87041015625 0.074153645833333
0.41666666666667 0.96292317708333 0
0.41666666666667 1 0.12958984375
0.41666666666667 0.96292317708333 0.2591796875
0.41666666666667 0.92584635416667 0.38876953125
0.5 0.91666666666667 0.25
0.41666666666667 1 0.38876953125
0.41666666666667 0.96292317708333 0.518359375
0.58333333333333 0.7408203125 0.11123046875
0.66666666666667 0.85833333333333 0.075
0.58333333333333 1 0.11123046875
0.58333333333333 0.87041015625 0.14830729166667
0.66666666666667 0.575 0.075
0.5 0.75 0.25
0.58333333333333 0.61123046875 0.14830729166667
0.41666666666667 0.88876953125 0.518359375
0.5 0.75 0.41666666666667
0.41666666666667 0.92584635416667 0.64794921875
0.41666666666667 0.88876953125 0.7775390625
0.66666666666667 0.575 0.125
0.58333333333333 0.7408203125 0.18538411458333
0.58333333333333 0.61123046875 0.2224609375
0.66666666666667 0.85833333333333 0.125
0.58333333333333 1 0.18538411458333
0.5 0.91666666666667 0.41666666666667
0.58333333333333 0.87041015625 0.2224609375
0.41666666666667 1 0.64794921875
0.41666666666667 0.96292317708333 0.7775390625
0.41666666666667 0.92584635416667 0.81461588541667
0.5 0.91666666666667 0.58333333333333
0.41666666666667 1 0.81461588541667
0.41666666666667 0.96292317708333 0.85169270833333
0.58333333333333 0.7408203125 0.35205078125
0.66666666666667 0.85833333333333 0.29166666666667
0.58333333333333 1 0.35205078125
0.58333333333333 0.87041015625 0.481640625
0.66666666666667 0.575 0.29166666666667
0.5 0.75 0.58333333333333
0.58333333333333 0.61123046875 0.481640625
0.41666666666667 0.88876953125 0.85169270833333
0.41666666666667 0.85169270833333 0.88876953125
0.5 0.75 0.75
0.41666666666667 0.92584635416667 0.88876953125
0.33333333333333 0.925 0.925
0.41666666666667 0.88876953125 0.92584635416667
0.58333333333333 0.481640625 0.61123046875
0.66666666666667 0.575 0.575
0.58333333333333 0.7408203125 0.61123046875
0.58333333333333 0.61123046875 0.7408203125
0.66666666666667 0.85833333333333 0.575
0.58333333333333 1 0.61123046875
0.5 0.91666666666667 0.75
0.58333333333333 0.87041015625 0.7408203125
0.41666666666667 1 0.88876953125
0.33333333333333 0.975 0.925
0.41666666666667 0.96292317708333 0.92584635416667
0.41666666666667 0.92584635416667 0.96292317708333
0.5 0.91666666666667 0.91666666666667
0.41666666666667 1 0.96292317708333
0.33333333333333 0.975 0.975
0.41666666666667 0.96292317708333 1
0.58333333333333 0.7408203125 0.87041015625
0.66666666666667 0.85833333333333 0.85833333333333
0.58333333333333 1 0.87041015625
0.58333333333333 0.87041015625 1
0.58333333333333 0.481640625 0.87041015625
0.66666666666667 0.575 0.85833333333333
0.5 0.75 0.91666666666667
0.58333333333333 0.61123046875 1
0.41666666666667 0.85169270833333 0.96292317708333
0.33333333333333 0.925 0.975
0.41666666666667 0.88876953125 1
0.25 0.75 0.83333333333333
0.25 0.66666666666667 0.91666666666667
0.25 0.83333333333333 0.91666666666667
0.16666666666667 0.575 0.85833333333333
0.25 0.75 1
0.25 0.91666666666667 0.83333333333333
0.25 1 0.91666666666667
0.16666666666667 0.85833333333333 0.85833333333333
0.25 0.91666666666667 1
0.25 0.83333333333333 0.75
0.25 1 0.75
0.16666666666667 0.85833333333333 0.575
0.25 0.66666666666667 0.75
0.16666666666667 0.575 0.575
0.083333333333333 0.43333333333333 0.575
0.083333333333333 0.71666666666667 0.575
0 0.575 0.575
0.083333333333333 0.575 0.71666666666667
0.083333333333333 1 0.575
0 0.85833333333333 0.575
0.083333333333333 0.85833333333333 0.71666666666667
0.083333333333333 0.71666666666667 0.85833333333333
0.083333333333333 1 0.85833333333333
0 0.85833333333333 0.85833333333333
0.083333333333333 0.85833333333333 1
0.083333333333333 0.43333333333333 0.85833333333333
0 0.575 0.85833333333333
0.083333333333333 0.575 1
0.083333333333333 0.29166666666667 0.71666666666667
0.083333333333333 0.15 0.85833333333333
0.16666666666667 0.29166666666667 0.85833333333333
0 0.29166666666667 0.85833333333333
0.083333333333333 0.29166666666667 1
0.083333333333333 0.15 0.575
0.16666666666667 0.29166666666667 0.575
0 0.29166666666667 0.575
0.25 0.5 0.75
0.33333333333333 0.875 0.925
0.25 0.58333333333333 0.83333333333333
0.25 0.5 0.91666666666667
0.33333333333333 0.875 0.975
0.25 0.58333333333333 1
0.41666666666667 0.81461588541667 0.92584635416667
0.41666666666667 0.7775390625 0.96292317708333
0.5 0.58333333333333 0.91666666666667
0.41666666666667 0.81461588541667 1
0.41666666666667 0.7775390625 0.88876953125
0.5 0.58333333333333 0.75
0.58333333333333 0.2224609375 0.61123046875
0.66666666666667 0.29166666666667 0.575
0.58333333333333 0.35205078125 0.7408203125
0.58333333333333 0.2224609375 0.87041015625
0.66666666666667 0.29166666666667 0.85833333333333
0.58333333333333 0.35205078125 1
0.58333333333333 0.18538411458333 0.7408203125
0.58333333333333 0.14830729166667 0.87041015625
0.66666666666667 0.125 0.85833333333333
0.5 0.41666666666667 0.91666666666667
0.58333333333333 0.18538411458333 1
0.58333333333333 0.14830729166667 0.61123046875
0.66666666666667 0.125 0.575
0.5 0.41666666666667 0.75
0.41666666666667 0.518359375 0.88876953125
0.33333333333333 0.70833333333333 0.925
0.41666666666667 0.64794921875 0.92584635416667
0.41666666666667 0.518359375 0.96292317708333
0.33333333333333 0.70833333333333 0.975
0.41666666666667 0.64794921875 1
0.25 0.41666666666667 0.83333333333333
0.25 0.33333333333333 0.91666666666667
0.16666666666667 0.125 0.85833333333333
0.25 0.41666666666667 1
0.25 0.33333333333333 0.75
0.16666666666667 0.125 0.575
0.083333333333333 0.1 0.575
0 0.125 0.575
0.083333333333333 0.125 0.71666666666667
0.083333333333333 0.1 0.85833333333333
0 0.125 0.85833333333333
0.083333333333333 0.125 1
0.083333333333333 0.075 0.71666666666667
0.083333333333333 0.05 0.85833333333333
0.16666666666667 0.075 0.85833333333333
0 0.075 0.85833333333333
0.083333333333333 0.075 1
0.083333333333333 0.025 0.71666666666667
0.083333333333333 0 0.85833333333333
0.16666666666667 0.025 0.85833333333333
0 0.025 0.85833333333333
0.083333333333333 0.025 1
0.083333333333333 0 0.575
0.16666666666667 0.025 0.575
0.083333333333333 0.05 0.575
0 0.025 0.575
0.16666666666667 0.075 0.575
0 0.075 0.575
0.25 0.16666666666667 0.75
0.33333333333333 0.425 0.925
0.25 0.25 0.83333333333333
0.25 0 0.75
0.33333333333333 0.14166666666667 0.925
0.25 0.083333333333333 0.83333333333333
0.25 0 0.91666666666667
0.33333333333333 0.14166666666667 0.975
0.25 0.16666666666667 0.91666666666667
0.25 0.083333333333333 1
0.33333333333333 0.425 0.975
0.25 0.25 1
0.41666666666667 0.38876953125 0.92584635416667
0.41666666666667 0.2591796875 0.96292317708333
0.5 0.25 0.91666666666667
0.41666666666667 0.38876953125 1
0.41666666666667 0.12958984375 0.92584635416667
0.41666666666667 0 0.96292317708333
0.5 0.083333333333333 0.91666666666667
0.41666666666667 0.12958984375 1
0.41666666666667 0 0.88876953125
0.5 0.083333333333333 0.75
0.41666666666667 0.2591796875 0.88876953125
0.5 0.25 0.75
0.58333333333333 0.074153645833333 0.61123046875
0.66666666666667 0.075 0.575
0.58333333333333 0.11123046875 0.7408203125
0.58333333333333 0 0.61123046875
0.66666666666667 0.025 0.575
0.58333333333333 0.037076822916667 0.7408203125
0.58333333333333 0 0.87041015625
0.66666666666667 0.025 0.85833333333333
0.58333333333333 0.074153645833333 0.87041015625
0.58333333333333 0.037076822916667 1
0.66666666666667 0.075 0.85833333333333
0.58333333333333 0.11123046875 1
0.75 0.25 0.83333333333333
0.75 0.16666666666667 0.91666666666667
0.83333333333333 0.425 0.975
0.75 0.33333333333333 0.91666666666667
0.75 0.25 1
0.75 0.083333333333333 0.83333333333333
0.75 0 0.91666666666667
0.83333333333333 0.14166666666667 0.975
0.75 0.083333333333333 1
0.75 0.083333333333333 0.66666666666667
0.75 0 0.75
0.83333333333333 0.14166666666667 0.925
0.75 0.16666666666667 0.75
0.75 0.25 0.66666666666667
0.83333333333333 0.425 0.925
0.75 0.33333333333333 0.75
0.91666666666667 0.425 0.9
0.91666666666667 0.28333333333333 0.925
1 0.425 0.925
0.91666666666667 0.56666666666667 0.925
0.91666666666667 0.425 0.95
0.91666666666667 0.14166666666667 0.9
0.91666666666667 0 0.925
1 0.14166666666667 0.925
0.91666666666667 0.14166666666667 0.95
0.91666666666667 0 0.975
1 0.14166666666667 0.975
0.91666666666667 0.28333333333333 0.975
0.91666666666667 0.14166666666667 1
1 0.425 0.975
0.91666666666667 0.56666666666667 0.975
0.91666666666667 0.425 1
0.91666666666667 0.70833333333333 0.95
1 0.70833333333333 0.975
0.91666666666667 0.85 0.975
0.83333333333333 0.70833333333333 0.975
0.91666666666667 0.70833333333333 1
0.91666666666667 0.70833333333333 0.9
1 0.70833333333333 0.925
0.91666666666667 0.85 0.925
0.83333333333333 0.70833333333333 0.925
0.75 0.41666666666667 0.66666666666667
0.75 0.5 0.75
0.75 0.41666666666667 0.83333333333333
0.75 0.5 0.91666666666667
0.75 0.41666666666667 1
0.75 0.58333333333333 0.83333333333333
0.83333333333333 0.875 0.975
0.75 0.66666666666667 0.91666666666667
0.75 0.58333333333333 1
0.75 0.58333333333333 0.66666666666667
0.83333333333333 0.875 0.925
0.75 0.66666666666667 0.75
0.91666666666667 0.875 0.9
1 0.875 0.925
0.91666666666667 0.9 0.925
0.91666666666667 0.875 0.95
1 0.875 0.975
0.91666666666667 0.9 0.975
0.91666666666667 0.875 1
0.91666666666667 0.925 0.95
1 0.925 0.975
0.91666666666667 0.95 0.975
0.83333333333333 0.925 0.975
0.91666666666667 0.925 1
0.75 0.75 0.83333333333333
0.75 0.83333333333333 0.91666666666667
0.75 0.75 1
0.75 0.91666666666667 0.83333333333333
0.83333333333333 0.975 0.975
0.75 1 0.91666666666667
0.75 0.91666666666667 1
0.91666666666667 0.975 0.95
1 0.975 0.975
0.91666666666667 1 0.975
0.91666666666667 0.975 1
0.91666666666667 0.975 0.9
0.91666666666667 0.95 0.925
1 0.975 0.925
0.91666666666667 1 0.925
0.83333333333333 0.975 0.925
0.75 0.91666666666667 0.66666666666667
0.75 0.83333333333333 0.75
0.75 1 0.75
0.75 0.75 0.66666666666667
0.83333333333333 0.925 0.925
0.91666666666667 0.925 0.9
1 0.925 0.925
0.91666666666667 0.925 0.85
0.91666666666667 0.9 0.875
1 0.925 0.875
0.91666666666667 0.95 0.875
0.83333333333333 0.925 0.875
0.75 0.75 0.5
0.75 0.66666666666667 0.58333333333333
0.75 0.83333333333333 0.58333333333333
0.75 0.91666666666667 0.5
0.83333333333333 0.975 0.875
0.75 1 0.58333333333333
0.91666666666667 0.975 0.85
1 0.975 0.875
0.91666666666667 1 0.875
0.91666666666667 0.975 0.56666666666667
0.91666666666667 0.95 0.70833333333333
1 0.975 0.70833333333333
0.91666666666667 1 0.70833333333333
0.83333333333333 0.975 0.70833333333333
0.75 0.91666666666667 0.33333333333333
0.75 0.83333333333333 0.41666666666667
0.75 1 0.41666666666667
0.75 0.75 0.33333333333333
0.75 0.66666666666667 0.41666666666667
0.83333333333333 0.925 0.70833333333333
0.91666666666667 0.925 0.56666666666667
0.91666666666667 0.9 0.70833333333333
1 0.925 0.70833333333333
0.91666666666667 0.925 0.28333333333333
0.91666666666667 0.9 0.425
1 0.925 0.425
0.91666666666667 0.95 0.425
0.83333333333333 0.925 0.425
0.75 0.75 0.16666666666667
0.75 0.66666666666667 0.25
0.75 0.83333333333333 0.25
0.75 0.91666666666667 0.16666666666667
0.83333333333333 0.975 0.425
0.75 1 0.25
0.91666666666667 0.975 0.28333333333333
1 0.975 0.425
0.91666666666667 1 0.425
0.91666666666667 0.975 0
0.91666666666667 0.95 0.14166666666667
1 0.975 0.14166666666667
0.91666666666667 1 0.14166666666667
0.83333333333333 0.975 0.14166666666667
0.75 0.91666666666667 0
0.75 0.83333333333333 0.083333333333333
0.75 1 0.083333333333333
0.75 0.75 0
0.75 0.66666666666667 0.083333333333333
0.83333333333333 0.925 0.14166666666667
0.91666666666667 0.925 0
0.91666666666667 0.9 0.14166666666667
1 0.925 0.14166666666667
0.91666666666667 0.875 0
0.91666666666667 0.85 0.14166666666667
1 0.875 0.14166666666667
0.83333333333333 0.875 0.14166666666667
0.91666666666667 0.875 0.28333333333333
0.75 0.58333333333333 0
0.75 0.5 0.083333333333333
0.75 0.58333333333333 0.16666666666667
0.75 0.41666666666667 0
0.75 0.33333333333333 0.083333333333333
0.83333333333333 0.70833333333333 0.14166666666667
0.75 0.41666666666667 0.16666666666667
0.91666666666667 0.70833333333333 0
0.91666666666667 0.56666666666667 0.14166666666667
1 0.70833333333333 0.14166666666667
0.91666666666667 0.70833333333333 0.28333333333333
0.91666666666667 0.56666666666667 0.425
1 0.70833333333333 0.425
0.91666666666667 0.85 0.425
0.83333333333333 0.70833333333333 0.425
0.91666666666667 0.70833333333333 0.56666666666667
0.75 0.33333333333333 0.25
0.75 0.5 0.25
0.75 0.41666666666667 0.33333333333333
0.83333333333333 0.875 0.425
0.75 0.58333333333333 0.33333333333333
1 0.875 0.425
0.91666666666667 0.875 0.56666666666667
0.91666666666667 0.85 0.70833333333333
1 0.875 0.70833333333333
0.83333333333333 0.875 0.70833333333333
0.91666666666667 0.875 0.85
0.91666666666667 0.85 0.875
1 0.875 0.875
0.83333333333333 0.875 0.875
0.75 0.58333333333333 0.5
0.75 0.5 0.58333333333333
0.75 0.5 0.41666666666667
0.75 0.33333333333333 0.41666666666667
0.83333333333333 0.70833333333333 0.70833333333333
0.75 0.41666666666667 0.5
0.75 0.33333333333333 0.58333333333333
0.83333333333333 0.70833333333333 0.875
0.91666666666667 0.70833333333333 0.85
0.91666666666667 0.56666666666667 0.875
1 0.70833333333333 0.875
0.91666666666667 0.56666666666667 0.70833333333333
1 0.70833333333333 0.70833333333333
0.91666666666667 0.425 0.56666666666667
0.91666666666667 0.28333333333333 0.70833333333333
1 0.425 0.70833333333333
0.83333333333333 0.425 0.70833333333333
0.91666666666667 0.425 0.85
0.91666666666667 0.28333333333333 0.875
1 0.425 0.875
0.83333333333333 0.425 0.875
0.75 0.25 0.5
0.75 0.16666666666667 0.58333333333333
0.75 0.25 0.33333333333333
0.75 0.16666666666667 0.41666666666667
0.75 0.083333333333333 0.33333333333333
0.75 0 0.41666666666667
0.83333333333333 0.14166666666667 0.70833333333333
0.75 0.083333333333333 0.5
0.75 0 0.58333333333333
0.83333333333333 0.14166666666667 0.875
0.91666666666667 0.14166666666667 0.85
0.91666666666667 0 0.875
1 0.14166666666667 0.875
0.91666666666667 0.14166666666667 0.56666666666667
0.91666666666667 0 0.70833333333333
1 0.14166666666667 0.70833333333333
0.91666666666667 0.14166666666667 0.28333333333333
0.91666666666667 0 0.425
1 0.14166666666667 0.425
0.91666666666667 0.28333333333333 0.425
0.83333333333333 0.14166666666667 0.425
0.75 0.083333333333333 0.16666666666667
0.75 0 0.25
0.75 0.16666666666667 0.25
0.75 0.25 0.16666666666667
0.83333333333333 0.425 0.425
0.91666666666667 0.425 0.28333333333333
1 0.425 0.425
0.91666666666667 0.425 0
0.91666666666667 0.28333333333333 0.14166666666667
1 0.425 0.14166666666667
0.83333333333333 0.425 0.14166666666667
0.75 0.25 0
0.75 0.16666666666667 0.083333333333333
0.75 0.083333333333333 0
0.75 0 0.083333333333333
0.83333333333333 0.14166666666667 0.14166666666667
0.91666666666667 0.14166666666667 0
0.91666666666667 0 0.14166666666667
1 0.14166666666667 0.14166666666667
0.083333333333333 0.025 0.025
0.25 0.083333333333333 0.083333333333333
0.25 0.25 0.083333333333333
0.083333333333333 0.075 0.025
0.083333333333333 0.075 0.075
0.25 0.25 0.25
0.25 0.083333333333333 0.25
0.083333333333333 0.025 0.075
0.083333333333333 0.025 0.125
0.083333333333333 0.075 0.125
0.083333333333333 0.075 0.29166666666667
0.083333333333333 0.025 0.29166666666667
0.25 0.083333333333333 0.58333333333333
0.25 0.25 0.58333333333333
0.25 0.25 0.41666666666667
0.25 0.083333333333333 0.41666666666667
0.41666666666667 0.12958984375 0.64794921875
0.41666666666667 0.38876953125 0.64794921875
0.41666666666667 0.38876953125 0.81461588541667
0.41666666666667 0.12958984375 0.81461588541667
0.58333333333333 0.037076822916667 0.35205078125
0.58333333333333 0.11123046875 0.35205078125
0.58333333333333 0.11123046875 0.18538411458333
0.58333333333333 0.037076822916667 0.18538411458333
0.58333333333333 0.037076822916667 0.11123046875
0.58333333333333 0.037076822916667 0.037076822916667
0.41666666666667 0.12958984375 0.12958984375
0.41666666666667 0.12958984375 0.38876953125
0.41666666666667 0.38876953125 0.38876953125
0.41666666666667 0.38876953125 0.12958984375
0.58333333333333 0.11123046875 0.037076822916667
0.58333333333333 0.11123046875 0.11123046875
0.58333333333333 0.18538411458333 0.11123046875
0.58333333333333 0.18538411458333 0.037076822916667
0.41666666666667 0.64794921875 0.12958984375
0.41666666666667 0.64794921875 0.38876953125
0.41666666666667 0.81461588541667 0.38876953125
0.41666666666667 0.81461588541667 0.12958984375
0.58333333333333 0.35205078125 0.037076822916667
0.58333333333333 0.35205078125 0.11123046875
0.58333333333333 0.35205078125 0.18538411458333
0.58333333333333 0.18538411458333 0.18538411458333
0.58333333333333 0.18538411458333 0.35205078125
0.58333333333333 0.35205078125 0.35205078125
0.41666666666667 0.81461588541667 0.81461588541667
0.41666666666667 0.64794921875 0.81461588541667
0.41666666666667 0.64794921875 0.64794921875
0.41666666666667 0.81461588541667 0.64794921875
0.25 0.58333333333333 0.41666666666667
0.25 0.41666666666667 0.41666666666667
0.25 0.41666666666667 0.58333333333333
0.25 0.58333333333333 0.58333333333333
0.083333333333333 0.29166666666667 0.29166666666667
0.083333333333333 0.125 0.29166666666667
0.083333333333333 0.125 0.125
0.083333333333333 0.29166666666667 0.125
0.083333333333333 0.29166666666667 0.075
0.25 0.58333333333333 0.25
0.25 0.41666666666667 0.25
0.083333333333333 0.125 0.075
0.083333333333333 0.125 0.025
0.25 0.41666666666667 0.083333333333333
0.25 0.58333333333333 0.083333333333333
0.083333333333333 0.29166666666667 0.025
0.083333333333333 0.575 0.025
0.083333333333333 0.85833333333333 0.025
0.083333333333333 0.85833333333333 0.075
0.083333333333333 0.575 0.075
0.083333333333333 0.575 0.125
0.083333333333333 0.85833333333333 0.125
0.083333333333333 0.85833333333333 0.29166666666667
0.083333333333333 0.575 0.29166666666667
0.25 0.75 0.58333333333333
0.25 0.91666666666667 0.58333333333333
0.25 0.91666666666667 0.41666666666667
0.25 0.75 0.41666666666667
0.25 0.75 0.25
0.25 0.91666666666667 0.25
0.25 0.91666666666667 0.083333333333333
0.25 0.75 0.083333333333333
0.41666666666667 0.88876953125 0.12958984375
0.58333333333333 0.61123046875 0.037076822916667
0.58333333333333 0.87041015625 0.037076822916667
0.41666666666667 0.96292317708333 0.12958984375
0.41666666666667 0.96292317708333 0.38876953125
0.58333333333333 0.87041015625 0.11123046875
0.58333333333333 0.61123046875 0.11123046875
0.41666666666667 0.88876953125 0.38876953125
0.41666666666667 0.88876953125 0.64794921875
0.58333333333333 0.61123046875 0.18538411458333
0.58333333333333 0.87041015625 0.18538411458333
0.41666666666667 0.96292317708333 0.64794921875
0.41666666666667 0.96292317708333 0.81461588541667
0.58333333333333 0.87041015625 0.35205078125
0.58333333333333 0.61123046875 0.35205078125
0.41666666666667 0.88876953125 0.81461588541667
0.41666666666667 0.88876953125 0.88876953125
0.58333333333333 0.61123046875 0.61123046875
0.58333333333333 0.87041015625 0.61123046875
0.41666666666667 0.96292317708333 0.88876953125
0.41666666666667 0.96292317708333 0.96292317708333
0.58333333333333 0.87041015625 0.87041015625
0.58333333333333 0.61123046875 0.87041015625
0.41666666666667 0.88876953125 0.96292317708333
0.25 0.75 0.91666666666667
0.25 0.91666666666667 0.91666666666667
0.25 0.91666666666667 0.75
0.25 0.75 0.75
0.083333333333333 0.575 0.575
0.083333333333333 0.85833333333333 0.575
0.083333333333333 0.85833333333333 0.85833333333333
0.083333333333333 0.575 0.85833333333333
0.083333333333333 0.29166666666667 0.85833333333333
0.083333333333333 0.29166666666667 0.575
0.25 0.58333333333333 0.75
0.25 0.58333333333333 0.91666666666667
0.41666666666667 0.81461588541667 0.96292317708333
0.41666666666667 0.81461588541667 0.88876953125
0.58333333333333 0.35205078125 0.61123046875
0.58333333333333 0.35205078125 0.87041015625
0.58333333333333 0.18538411458333 0.87041015625
0.58333333333333 0.18538411458333 0.61123046875
0.41666666666667 0.64794921875 0.88876953125
0.41666666666667 0.64794921875 0.96292317708333
0.25 0.41666666666667 0.91666666666667
0.25 0.41666666666667 0.75
0.083333333333333 0.125 0.575
0.083333333333333 0.125 0.85833333333333
0.083333333333333 0.075 0.85833333333333
0.083333333333333 0.025 0.85833333333333
0.083333333333333 0.025 0.575
0.083333333333333 0.075 0.575
0.25 0.25 0.75
0.25 0.083333333333333 0.75
0.25 0.083333333333333 0.91666666666667
0.25 0.25 0.91666666666667
0.41666666666667 0.38876953125 0.96292317708333
0.41666666666667 0.12958984375 0.96292317708333
0.41666666666667 0.12958984375 0.88876953125
0.41666666666667 0.38876953125 0.88876953125
0.58333333333333 0.11123046875 0.61123046875
0.58333333333333 0.037076822916667 0.61123046875
0.58333333333333 0.037076822916667 0.87041015625
0.58333333333333 0.11123046875 0.87041015625
0.75 0.25 0.91666666666667
0.75 0.083333333333333 0.91666666666667
0.75 0.083333333333333 0.75
0.75 0.25 0.75
0.91666666666667 0.425 0.925
0.91666666666667 0.14166666666667 0.925
0.91666666666667 0.14166666666667 0.975
0.91666666666667 0.425 0.975
0.91666666666667 0.70833333333333 0.975
0.91666666666667 0.70833333333333 0.925
0.75 0.41666666666667 0.75
0.75 0.41666666666667 0.91666666666667
0.75 0.58333333333333 0.91666666666667
0.75 0.58333333333333 0.75
0.91666666666667 0.875 0.925
0.91666666666667 0.875 0.975
0.91666666666667 0.925 0.975
0.75 0.75 0.91666666666667
0.75 0.91666666666667 0.91666666666667
0.91666666666667 0.975 0.975
0.91666666666667 0.975 0.925
0.75 0.91666666666667 0.75
0.75 0.75 0.75
0.91666666666667 0.925 0.925
0.91666666666667 0.925 0.875
0.75 0.75 0.58333333333333
0.75 0.91666666666667 0.58333333333333
0.91666666666667 0.975 0.875
0.91666666666667 0.975 0.70833333333333
0.75 0.91666666666667 0.41666666666667
0.75 0.75 0.41666666666667
0.91666666666667 0.925 0.70833333333333
0.91666666666667 0.925 0.425
0.75 0.75 0.25
0.75 0.91666666666667 0.25
0.91666666666667 0.975 0.425
0.91666666666667 0.975 0.14166666666667
0.75 0.91666666666667 0.083333333333333
0.75 0.75 0.083333333333333
0.91666666666667 0.925 0.14166666666667
0.91666666666667 0.875 0.14166666666667
0.75 0.58333333333333 0.083333333333333
0.75 0.41666666666667 0.083333333333333
0.91666666666667 0.70833333333333 0.14166666666667
0.91666666666667 0.70833333333333 0.425
0.75 0.41666666666667 0.25
0.75 0.58333333333333 0.25
0.91666666666667 0.875 0.425
0.91666666666667 0.875 0.70833333333333
0.91666666666667 0.875 0.875
0.75 0.58333333333333 0.58333333333333
0.75 0.58333333333333 0.41666666666667
0.75 0.41666666666667 0.41666666666667
0.75 0.41666666666667 0.58333333333333
0.91666666666667 0.70833333333333 0.875
0.91666666666667 0.70833333333333 0.70833333333333
0.91666666666667 0.425 0.70833333333333
0.91666666666667 0.425 0.875
0.75 0.25 0.58333333333333
0.75 0.25 0.41666666666667
0.75 0.083333333333333 0.41666666666667
0.75 0.083333333333333 0.58333333333333
0.91666666666667 0.14166666666667 0.875
0.91666666666667 0.14166666666667 0.70833333333333
0.91666666666667 0.14166666666667 0.425
0.75 0.083333333333333 0.25
0.75 0.25 0.25
0.91666666666667 0.425 0.425
0.91666666666667 0.425 0.14166666666667
0.75 0.25 0.083333333333333
0.75 0.083333333333333 0.083333333333333
0.91666666666667 0.14166666666667 0.14166666666667
