$MeshFormat
2.2 0 8
$EndMeshFormat
$PhysicalNames
5
2 1 "outer"
2 2 "inner"
2 3 "bottom"
2 4 "opening"
3 1 "pipe"
$EndPhysicalNames
$Nodes
180
1 3 0 0
2 0 3 0
3 -3 0 0
4 0 -3 0
5 1.5 0 0
6 0 1.5 0
7 -1.5 0 0
8 0 -1.5 0
9 3 0 4
10 0 3 4
11 -3 0 4
12 0 -3 4
13 1.5 0 4
14 0 -1.5 4
15 -1.5 0 4
16 0 1.5 4
17 7 0 8
18 7 3 11
19 6.999999999999999 0 14
20 7 -3 11
21 7 0 9.5
22 7 -1.5 11
23 6.999999999999999 0 12.5
24 7 1.5 11
25 11 0 8
26 11 3 11
27 11 0 14
28 11 -3 11
29 11 0 9.5
30 11 -1.5 11
31 11 0 12.5
32 11 1.5 11
33 2.598076209111791 1.500000003882436 0
34 1.499999995778402 2.598076213790657 0
35 -1.500000003882436 2.598076209111791 0
36 -2.598076213790657 1.499999995778402 0
37 -2.598076209111791 -1.500000003882436 0
38 -1.499999995778402 -2.598076213790657 0
39 1.500000003882436 -2.598076209111791 0
40 2.598076213790657 -1.499999995778402 0
41 1.0606601692849 1.060660174274742 0
42 -1.060660174274742 1.0606601692849 0
43 -1.0606601692849 -1.060660174274742 0
44 1.060660174274742 -1.0606601692849 0
45 2.598076209111791 1.500000003882436 4
46 1.499999995778402 2.598076213790657 4
47 -1.500000003882436 2.598076209111791 4
48 -2.598076213790657 1.499999995778402 4
49 -2.598076209111791 -1.500000003882436 4
50 -1.499999995778402 -2.598076213790657 4
51 1.500000003882436 -2.598076209111791 4
52 2.598076213790657 -1.499999995778402 4
53 1.060660174274742 -1.0606601692849 4
54 -1.0606601692849 -1.060660174274742 4
55 -1.060660174274742 1.0606601692849 4
56 1.0606601692849 1.060660174274742 4
57 3 0 2
58 0 3 2
59 -3 0 2
60 0 -3 2
61 1.5 0 2
62 0 -1.5 2
63 -1.5 0 2
64 0 1.5 2
65 7 1.500000003882436 8.401923790888208
66 7 2.598076213790657 9.500000004221597
67 6.999999999999999 2.598076209111791 12.50000000388244
68 6.999999999999999 1.499999995778402 13.59807621379066
69 6.999999999999999 -1.500000003882436 13.59807620911179
70 6.999999999999999 -2.598076213790657 12.4999999957784
71 7 -2.598076209111791 9.499999996117564
72 7 -1.499999995778402 8.401923786209343
73 7 -1.0606601692849 9.939339825725257
74 6.999999999999999 -1.060660174274742 12.0606601692849
75 6.999999999999999 1.0606601692849 12.06066017427474
76 7 1.060660174274742 9.939339830715099
77 3.304481869954853 0 5.530733729460359
78 4.17157287525381 0 6.82842712474619
79 5.469266270539641 0 7.695518130045147
80 0.5328432724209931 3 6.678784026555629
81 2.050252531694167 3 8.949747468305832
82 4.321215973444371 3 10.46715672757901
83 -2.238795325112868 0 7.826834323650898
84 -0.07106781186547551 0 11.07106781186548
85 3.173165676349102 0 13.23879532511287
86 0.5328432724209931 -3 6.678784026555629
87 2.050252531694167 -3 8.949747468305832
88 4.321215973444371 -3 10.46715672757901
89 1.918662571187923 0 6.104758878007994
90 3.110912703473988 0 7.889087296526011
91 4.895241121992006 0 9.081337428812077
92 0.5328432724209931 -1.5 6.678784026555629
93 2.050252531694167 -1.5 8.949747468305832
94 4.321215973444371 -1.5 10.46715672757901
95 -0.8529760263459369 0 7.252809175103263
96 0.9895923599143455 0 10.01040764008565
97 3.747190824896736 0 11.85297602634594
98 0.5328432724209931 1.5 6.678784026555629
99 2.050252531694167 1.5 8.949747468305832
100 4.321215973444371 1.5 10.46715672757901
101 11 1.500000003882436 8.401923790888208
102 11 2.598076213790657 9.500000004221597
103 11 2.598076209111791 12.50000000388244
104 11 1.499999995778402 13.59807621379066
105 11 -1.500000003882436 13.59807620911179
106 11 -2.598076213790657 12.4999999957784
107 11 -2.598076209111791 9.499999996117564
108 11 -1.499999995778402 8.401923786209343
109 11 -1.0606601692849 9.939339825725257
110 11 -1.060660174274742 12.0606601692849
111 11 1.0606601692849 12.06066017427474
112 11 1.060660174274742 9.939339830715099
113 9 0 8
114 9 3 11
115 9 0 14
116 9 -3 11
117 9 0 9.5
118 9 -1.5 11
119 9 0 12.5
120 9 1.5 11
121 2.598076209111791 1.500000003882436 2
122 1.499999995778402 2.598076213790657 2
123 -1.500000003882436 2.598076209111791 2
124 -2.598076213790657 1.499999995778402 2
125 -2.598076209111791 -1.500000003882436 2
126 -1.499999995778402 -2.598076213790657 2
127 1.500000003882436 -2.598076209111791 2
128 2.598076213790657 -1.499999995778402 2
129 1.060660174274742 -1.0606601692849 2
130 -1.0606601692849 -1.060660174274742 2
131 -1.060660174274742 1.0606601692849 2
132 1.0606601692849 1.060660174274742 2
133 2.93315270592389 1.500000003882436 5.684543305306647
134 3.887369837196553 1.500000003882436 7.112630162803447
135 5.315456694693352 1.500000003882436 8.06684729407611
136 1.918662567287675 2.598076213790657 6.10475887962353
137 3.110912700488868 2.598076213790657 7.889087299511132
138 4.89524112037647 2.598076213790657 9.081337432712324
139 -0.8529760299328402 2.598076209111791 7.252809176589007
140 0.989592357169049 2.598076209111791 10.01040764283095
141 3.747190823410993 2.598076209111791 11.85297602993284
142 -1.867466165404613 1.499999995778402 7.673024749595134
143 0.2131352228833228 1.499999995778402 10.78686477711668
144 3.326975250404866 1.499999995778402 12.86746616540461
145 -1.867466161081905 -1.500000003882436 7.673024747804609
146 0.2131352261917803 -1.500000003882436 10.78686477380822
147 3.32697525219539 -1.500000003882436 12.86746616108191
148 -0.8529760224456897 -2.598076213790657 7.252809173487728
149 0.9895923628994661 -2.598076213790657 10.01040763710053
150 3.747190826512272 -2.598076213790657 11.85297602244569
151 1.918662574774825 -2.598076209111791 6.10475887652225
152 3.110912706219285 -2.598076209111791 7.889087293780714
153 4.895241123477749 -2.598076209111791 9.081337425225176
154 2.933152710246599 -1.499999995778402 5.684543303516123
155 3.887369840505011 -1.499999995778402 7.112630159494989
156 5.315456696483877 -1.499999995778402 8.066847289753401
157 1.512765498383282 -1.0606601692849 6.272886950491216
158 2.800252533458343 -1.0606601692849 8.199747466541655
159 4.727113049508784 -1.0606601692849 9.487234501616719
160 -0.4470789489312841 -1.060660174274742 7.084681100710512
161 1.300252533458342 -1.060660174274742 9.699747466541657
162 3.915318899289488 -1.060660174274742 11.44707894893128
163 -0.447078953541296 1.0606601692849 7.084681102620041
164 1.300252529929991 1.0606601692849 9.699747470070008
165 3.915318897379958 1.0606601692849 11.4470789535413
166 1.512765493773268 1.060660174274742 6.272886952400746
167 2.800252529929992 1.060660174274742 8.199747470070008
168 4.727113047599254 1.060660174274742 9.487234506226731
169 9 1.500000003882436 8.401923790888208
170 9 2.598076213790657 9.500000004221597
171 9 2.598076209111791 12.50000000388244
172 9 1.499999995778402 13.59807621379066
173 9 -1.500000003882436 13.59807620911179
174 9 -2.598076213790657 12.4999999957784
175 9 -2.598076209111791 9.499999996117564
176 9 -1.499999995778402 8.401923786209343
177 9 -1.0606601692849 9.939339825725257
178 9 -1.060660174274742 12.0606601692849
179 9 1.0606601692849 12.06066017427474
180 9 1.060660174274742 9.939339830715099
$EndNodes
$Elements
360
1 2 2 3 1 1 33 5
2 2 2 3 1 6 2 35
3 2 2 3 1 7 3 37
4 2 2 3 1 8 4 39
5 2 2 3 1 1 5 40
6 2 2 3 1 2 6 34
7 2 2 3 1 3 7 36
8 2 2 3 1 4 8 38
9 2 2 3 1 41 33 34
10 2 2 3 1 42 35 36
11 2 2 3 1 43 37 38
12 2 2 3 1 44 39 40
13 2 2 3 1 33 41 5
14 2 2 3 1 5 44 40
15 2 2 3 1 6 41 34
16 2 2 3 1 42 6 35
17 2 2 3 1 7 42 36
18 2 2 3 1 43 7 37
19 2 2 3 1 8 43 38
20 2 2 3 1 44 8 39
21 2 2 4 134 25 101 29
22 2 2 4 134 32 26 103
23 2 2 4 134 31 27 105
24 2 2 4 134 30 28 107
25 2 2 4 134 25 29 108
26 2 2 4 134 26 32 102
27 2 2 4 134 27 31 104
28 2 2 4 134 28 30 106
29 2 2 4 134 112 101 102
30 2 2 4 134 111 103 104
31 2 2 4 134 110 105 106
32 2 2 4 134 109 107 108
33 2 2 4 134 101 112 29
34 2 2 4 134 29 109 108
35 2 2 4 134 32 112 102
36 2 2 4 134 111 32 103
37 2 2 4 134 31 111 104
38 2 2 4 134 110 31 105
39 2 2 4 134 30 110 106
40 2 2 4 134 109 30 107
41 3 2 1 21 1 33 121 57
42 3 2 1 21 57 121 45 9
43 3 2 1 21 33 34 122 121
44 3 2 1 21 121 122 46 45
45 3 2 1 21 34 2 58 122
46 3 2 1 21 122 58 10 46
47 3 2 1 25 2 35 123 58
48 3 2 1 25 58 123 47 10
49 3 2 1 25 35 36 124 123
50 3 2 1 25 123 124 48 47
51 3 2 1 25 36 3 59 124
52 3 2 1 25 124 59 11 48
53 3 2 1 29 3 37 125 59
54 3 2 1 29 59 125 49 11
55 3 2 1 29 37 38 126 125
56 3 2 1 29 125 126 50 49
57 3 2 1 29 38 4 60 126
58 3 2 1 29 126 60 12 50
59 3 2 1 33 4 39 127 60
60 3 2 1 33 60 127 51 12
61 3 2 1 33 39 40 128 127
62 3 2 1 33 127 128 52 51
63 3 2 1 33 40 1 57 128
64 3 2 1 33 128 57 9 52
65 3 2 2 37 8 62 129 44
66 3 2 2 37 62 14 53 129
67 3 2 2 37 44 129 61 5
68 3 2 2 37 129 53 13 61
69 3 2 2 41 7 63 130 43
70 3 2 2 41 63 15 54 130
71 3 2 2 41 43 130 62 8
72 3 2 2 41 130 54 14 62
73 3 2 2 45 6 64 131 42
74 3 2 2 45 64 16 55 131
75 3 2 2 45 42 131 63 7
76 3 2 2 45 131 55 15 63
77 3 2 2 49 5 61 132 41
78 3 2 2 49 61 13 56 132
79 3 2 2 49 41 132 64 6
80 3 2 2 49 132 56 16 64
81 3 2 1 63 9 45 133 77
82 3 2 1 63 77 133 134 78
83 3 2 1 63 78 134 135 79
84 3 2 1 63 79 135 65 17
85 3 2 1 63 45 46 136 133
86 3 2 1 63 133 136 137 134
87 3 2 1 63 134 137 138 135
88 3 2 1 63 135 138 66 65
89 3 2 1 63 46 10 80 136
90 3 2 1 63 136 80 81 137
91 3 2 1 63 137 81 82 138
92 3 2 1 63 138 82 18 66
93 3 2 1 67 10 47 139 80
94 3 2 1 67 80 139 140 81
95 3 2 1 67 81 140 141 82
96 3 2 1 67 82 141 67 18
97 3 2 1 67 47 48 142 139
98 3 2 1 67 139 142 143 140
99 3 2 1 67 140 143 144 141
100 3 2 1 67 141 144 68 67
101 3 2 1 67 48 11 83 142
102 3 2 1 67 142 83 84 143
103 3 2 1 67 143 84 85 144
104 3 2 1 67 144 85 19 68
105 3 2 1 71 11 49 145 83
106 3 2 1 71 83 145 146 84
107 3 2 1 71 84 146 147 85
108 3 2 1 71 85 147 69 19
109 3 2 1 71 49 50 148 145
110 3 2 1 71 145 148 149 146
111 3 2 1 71 146 149 150 147
112 3 2 1 71 147 150 70 69
113 3 2 1 71 50 12 86 148
114 3 2 1 71 148 86 87 149
115 3 2 1 71 149 87 88 150
116 3 2 1 71 150 88 20 70
117 3 2 1 75 12 51 151 86
118 3 2 1 75 86 151 152 87
119 3 2 1 75 87 152 153 88
120 3 2 1 75 88 153 71 20
121 3 2 1 75 51 52 154 151
122 3 2 1 75 151 154 155 152
123 3 2 1 75 152 155 156 153
124 3 2 1 75 153 156 72 71
125 3 2 1 75 52 9 77 154
126 3 2 1 75 154 77 78 155
127 3 2 1 75 155 78 79 156
128 3 2 1 75 156 79 17 72
129 3 2 2 79 13 53 157 89
130 3 2 2 79 89 157 158 90
131 3 2 2 79 90 158 159 91
132 3 2 2 79 91 159 73 21
133 3 2 2 79 53 14 92 157
134 3 2 2 79 157 92 93 158
135 3 2 2 79 158 93 94 159
136 3 2 2 79 159 94 22 73
137 3 2 2 83 14 54 160 92
138 3 2 2 83 92 160 161 93
139 3 2 2 83 93 161 162 94
140 3 2 2 83 94 162 74 22
141 3 2 2 83 54 15 95 160
142 3 2 2 83 160 95 96 161
143 3 2 2 83 161 96 97 162
144 3 2 2 83 162 97 23 74
145 3 2 2 87 15 55 163 95
146 3 2 2 87 95 163 164 96
147 3 2 2 87 96 164 165 97
148 3 2 2 87 97 165 75 23
149 3 2 2 87 55 16 98 163
150 3 2 2 87 163 98 99 164
151 3 2 2 87 164 99 100 165
152 3 2 2 87 165 100 24 75
153 3 2 2 91 16 56 166 98
154 3 2 2 91 98 166 167 99
155 3 2 2 91 99 167 168 100
156 3 2 2 91 100 168 76 24
157 3 2 2 91 56 13 89 166
158 3 2 2 91 166 89 90 167
159 3 2 2 91 167 90 91 168
160 3 2 2 91 168 91 21 76
161 3 2 1 105 17 65 169 113
162 3 2 1 105 113 169 101 25
163 3 2 1 105 65 66 170 169
164 3 2 1 105 169 170 102 101
165 3 2 1 105 66 18 114 170
166 3 2 1 105 170 114 26 102
167 3 2 1 109 18 67 171 114
168 3 2 1 109 114 171 103 26
169 3 2 1 109 67 68 172 171
170 3 2 1 109 171 172 104 103
171 3 2 1 109 68 19 115 172
172 3 2 1 109 172 115 27 104
173 3 2 1 113 19 69 173 115
174 3 2 1 113 115 173 105 27
175 3 2 1 113 69 70 174 173
176 3 2 1 113 173 174 106 105
177 3 2 1 113 70 20 116 174
178 3 2 1 113 174 116 28 106
179 3 2 1 117 20 71 175 116
180 3 2 1 117 116 175 107 28
181 3 2 1 117 71 72 176 175
182 3 2 1 117 175 176 108 107
183 3 2 1 117 72 17 113 176
184 3 2 1 117 176 113 25 108
185 3 2 2 121 21 73 177 117
186 3 2 2 121 117 177 109 29
187 3 2 2 121 73 22 118 177
188 3 2 2 121 177 118 30 109
189 3 2 2 125 22 74 178 118
190 3 2 2 125 118 178 110 30
191 3 2 2 125 74 23 119 178
192 3 2 2 125 178 119 31 110
193 3 2 2 129 23 75 179 119
194 3 2 2 129 119 179 111 31
195 3 2 2 129 75 24 120 179
196 3 2 2 129 179 120 32 111
197 3 2 2 133 24 76 180 120
198 3 2 2 133 120 180 112 32
199 3 2 2 133 76 21 117 180
200 3 2 2 133 180 117 29 112
201 6 2 1 1 1 33 5 57 121 61
202 6 2 1 1 57 121 61 9 45 13
203 6 2 1 1 6 2 35 64 58 123
204 6 2 1 1 64 58 123 16 10 47
205 6 2 1 1 7 3 37 63 59 125
206 6 2 1 1 63 59 125 15 11 49
207 6 2 1 1 8 4 39 62 60 127
208 6 2 1 1 62 60 127 14 12 51
209 6 2 1 1 1 5 40 57 61 128
210 6 2 1 1 57 61 128 9 13 52
211 6 2 1 1 2 6 34 58 64 122
212 6 2 1 1 58 64 122 10 16 46
213 6 2 1 1 3 7 36 59 63 124
214 6 2 1 1 59 63 124 11 15 48
215 6 2 1 1 4 8 38 60 62 126
216 6 2 1 1 60 62 126 12 14 50
217 6 2 1 1 41 33 34 132 121 122
218 6 2 1 1 132 121 122 56 45 46
219 6 2 1 1 42 35 36 131 123 124
220 6 2 1 1 131 123 124 55 47 48
221 6 2 1 1 43 37 38 130 125 126
222 6 2 1 1 130 125 126 54 49 50
223 6 2 1 1 44 39 40 129 127 128
224 6 2 1 1 129 127 128 53 51 52
225 6 2 1 1 33 41 5 121 132 61
226 6 2 1 1 121 132 61 45 56 13
227 6 2 1 1 5 44 40 61 129 128
228 6 2 1 1 61 129 128 13 53 52
229 6 2 1 1 6 41 34 64 132 122
230 6 2 1 1 64 132 122 16 56 46
231 6 2 1 1 42 6 35 131 64 123
232 6 2 1 1 131 64 123 55 16 47
233 6 2 1 1 7 42 36 63 131 124
234 6 2 1 1 63 131 124 15 55 48
235 6 2 1 1 43 7 37 130 63 125
236 6 2 1 1 130 63 125 54 15 49
237 6 2 1 1 8 43 38 62 130 126
238 6 2 1 1 62 130 126 14 54 50
239 6 2 1 1 44 8 39 129 62 127
240 6 2 1 1 129 62 127 53 14 51
241 6 2 1 2 9 45 13 77 133 89
242 6 2 1 2 77 133 89 78 134 90
243 6 2 1 2 78 134 90 79 135 91
244 6 2 1 2 79 135 91 17 65 21
245 6 2 1 2 16 10 47 98 80 139
246 6 2 1 2 98 80 139 99 81 140
247 6 2 1 2 99 81 140 100 82 141
248 6 2 1 2 100 82 141 24 18 67
249 6 2 1 2 15 11 49 95 83 145
250 6 2 1 2 95 83 145 96 84 146
251 6 2 1 2 96 84 146 97 85 147
252 6 2 1 2 97 85 147 23 19 69
253 6 2 1 2 14 12 51 92 86 151
254 6 2 1 2 92 86 151 93 87 152
255 6 2 1 2 93 87 152 94 88 153
256 6 2 1 2 94 88 153 22 20 71
257 6 2 1 2 9 13 52 77 89 154
258 6 2 1 2 77 89 154 78 90 155
259 6 2 1 2 78 90 155 79 91 156
260 6 2 1 2 79 91 156 17 21 72
261 6 2 1 2 10 16 46 80 98 136
262 6 2 1 2 80 98 136 81 99 137
263 6 2 1 2 81 99 137 82 100 138
264 6 2 1 2 82 100 138 18 24 66
265 6 2 1 2 11 15 48 83 95 142
266 6 2 1 2 83 95 142 84 96 143
267 6 2 1 2 84 96 143 85 97 144
268 6 2 1 2 85 97 144 19 23 68
269 6 2 1 2 12 14 50 86 92 148
270 6 2 1 2 86 92 148 87 93 149
271 6 2 1 2 87 93 149 88 94 150
272 6 2 1 2 88 94 150 20 22 70
273 6 2 1 2 56 45 46 166 133 136
274 6 2 1 2 166 133 136 167 134 137
275 6 2 1 2 167 134 137 168 135 138
276 6 2 1 2 168 135 138 76 65 66
277 6 2 1 2 55 47 48 163 139 142
278 6 2 1 2 163 139 142 164 140 143
279 6 2 1 2 164 140 143 165 141 144
280 6 2 1 2 165 141 144 75 67 68
281 6 2 1 2 54 49 50 160 145 148
282 6 2 1 2 160 145 148 161 146 149
283 6 2 1 2 161 146 149 162 147 150
284 6 2 1 2 162 147 150 74 69 70
285 6 2 1 2 53 51 52 157 151 154
286 6 2 1 2 157 151 154 158 152 155
287 6 2 1 2 158 152 155 159 153 156
288 6 2 1 2 159 153 156 73 71 72
289 6 2 1 2 45 56 13 133 166 89
290 6 2 1 2 133 166 89 134 167 90
291 6 2 1 2 134 167 90 135 168 91
292 6 2 1 2 135 168 91 65 76 21
293 6 2 1 2 13 53 52 89 157 154
294 6 2 1 2 89 157 154 90 158 155
295 6 2 1 2 90 158 155 91 159 156
296 6 2 1 2 91 159 156 21 73 72
297 6 2 1 2 16 56 46 98 166 136
298 6 2 1 2 98 166 136 99 167 137
299 6 2 1 2 99 167 137 100 168 138
300 6 2 1 2 100 168 138 24 76 66
301 6 2 1 2 55 16 47 163 98 139
302 6 2 1 2 163 98 139 164 99 140
303 6 2 1 2 164 99 140 165 100 141
304 6 2 1 2 165 100 141 75 24 67
305 6 2 1 2 15 55 48 95 163 142
306 6 2 1 2 95 163 142 96 164 143
307 6 2 1 2 96 164 143 97 165 144
308 6 2 1 2 97 165 144 23 75 68
309 6 2 1 2 54 15 49 160 95 145
310 6 2 1 2 160 95 145 161 96 146
311 6 2 1 2 161 96 146 162 97 147
312 6 2 1 2 162 97 147 74 23 69
313 6 2 1 2 14 54 50 92 160 148
314 6 2 1 2 92 160 148 93 161 149
315 6 2 1 2 93 161 149 94 162 150
316 6 2 1 2 94 162 150 22 74 70
317 6 2 1 2 53 14 51 157 92 151
318 6 2 1 2 157 92 151 158 93 152
319 6 2 1 2 158 93 152 159 94 153
320 6 2 1 2 159 94 153 73 22 71
321 6 2 1 3 17 65 21 113 169 117
322 6 2 1 3 113 169 117 25 101 29
323 6 2 1 3 24 18 67 120 114 171
324 6 2 1 3 120 114 171 32 26 103
325 6 2 1 3 23 19 69 119 115 173
326 6 2 1 3 119 115 173 31 27 105
327 6 2 1 3 22 20 71 118 116 175
328 6 2 1 3 118 116 175 30 28 107
329 6 2 1 3 17 21 72 113 117 176
330 6 2 1 3 113 117 176 25 29 108
331 6 2 1 3 18 24 66 114 120 170
332 6 2 1 3 114 120 170 26 32 102
333 6 2 1 3 19 23 68 115 119 172
334 6 2 1 3 115 119 172 27 31 104
335 6 2 1 3 20 22 70 116 118 174
336 6 2 1 3 116 118 174 28 30 106
337 6 2 1 3 76 65 66 180 169 170
338 6 2 1 3 180 169 170 112 101 102
339 6 2 1 3 75 67 68 179 171 172
340 6 2 1 3 179 171 172 111 103 104
341 6 2 1 3 74 69 70 178 173 174
342 6 2 1 3 178 173 174 110 105 106
343 6 2 1 3 73 71 72 177 175 176
344 6 2 1 3 177 175 176 109 107 108
345 6 2 1 3 65 76 21 169 180 117
346 6 2 1 3 169 180 117 101 112 29
347 6 2 1 3 21 73 72 117 177 176
348 6 2 1 3 117 177 176 29 109 108
349 6 2 1 3 24 76 66 120 180 170
350 6 2 1 3 120 180 170 32 112 102
351 6 2 1 3 75 24 67 179 120 171
352 6 2 1 3 179 120 171 111 32 103
353 6 2 1 3 23 75 68 119 179 172
354 6 2 1 3 119 179 172 31 111 104
355 6 2 1 3 74 23 69 178 119 173
356 6 2 1 3 178 119 173 110 31 105
357 6 2 1 3 22 74 70 118 178 174
358 6 2 1 3 118 178 174 30 110 106
359 6 2 1 3 73 22 71 177 118 175
360 6 2 1 3 177 118 175 109 30 107
$EndElements
