$MeshFormat
2.2 0 8
$EndMeshFormat
$Nodes
524
1 0.2 0.5000000000000001 1
2 0 0.5000000000000001 1
3 0.2 0.5000000000000001 0.7
4 0 0.5000000000000001 0.7
5 0.2 0.3086582838174556 0.9619397662556436
6 0.2 0.1464466094067269 0.8535533905932744
7 0.2 0.03806023374435713 0.6913417161825461
8 0.2 0 0.5000000000000017
9 0.2 0.03806023374435569 0.3086582838174574
10 0.2 0.1464466094067242 0.1464466094067283
11 0.2 0.3086582838174522 0.03806023374435785
12 0.2 0.4999999999999964 0
13 0.2 0.6913417161825411 0.03806023374435508
14 0.2 0.8535533905932715 0.146446609406724
15 0.2 0.9619397662556424 0.3086582838174527
16 0.2 1 0.4999999999999977
17 0.2 0.9619397662556441 0.6913417161825429
18 0.2 0.8535533905932744 0.8535533905932731
19 0.2 0.6913417161825453 0.9619397662556433
20 0.2 0.4024548389919361 0.9903926402016152
21 0.2 0.2222148834901995 0.915734806151273
22 0.2 0.08426519384872799 0.777785116509802
23 0.2 0.009607359798385062 0.5975451610080655
24 0.2 0.009607359798384341 0.402454838991938
25 0.2 0.08426519384872583 0.2222148834902012
26 0.2 0.2222148834901964 0.08426519384872905
27 0.2 0.4024548389919325 0.009607359798385451
28 0.2 0.5975451610080602 0.009607359798384008
29 0.2 0.7777851165097982 0.08426519384872544
30 0.2 0.9157348061512711 0.2222148834901967
31 0.2 0.9903926402016148 0.4024548389919335
32 0.2 0.9903926402016157 0.597545161008062
33 0.2 0.9157348061512735 0.7777851165097998
34 0.2 0.7777851165098019 0.9157348061512721
35 0.2 0.5975451610080643 0.9903926402016152
36 0.1 0.5000000000000001 1
37 0 0.3086582838174556 0.9619397662556436
38 0 0.1464466094067269 0.8535533905932744
39 0 0.03806023374435713 0.6913417161825461
40 0 0 0.5000000000000017
41 0 0.03806023374435569 0.3086582838174574
42 0 0.1464466094067242 0.1464466094067283
43 0 0.3086582838174522 0.03806023374435785
44 0 0.4999999999999964 0
45 0 0.6913417161825411 0.03806023374435508
46 0 0.8535533905932715 0.146446609406724
47 0 0.9619397662556424 0.3086582838174527
48 0 1 0.4999999999999977
49 0 0.9619397662556441 0.6913417161825429
50 0 0.8535533905932744 0.8535533905932731
51 0 0.6913417161825453 0.9619397662556433
52 0 0.4024548389919361 0.9903926402016152
53 0 0.2222148834901995 0.915734806151273
54 0 0.08426519384872799 0.777785116509802
55 0 0.009607359798385062 0.5975451610080655
56 0 0.009607359798384341 0.402454838991938
57 0 0.08426519384872583 0.2222148834902012
58 0 0.2222148834901964 0.08426519384872905
59 0 0.4024548389919325 0.009607359798385451
60 0 0.5975451610080602 0.009607359798384008
61 0 0.7777851165097982 0.08426519384872544
62 0 0.9157348061512711 0.2222148834901967
63 0 0.9903926402016148 0.4024548389919335
64 0 0.9903926402016157 0.597545161008062
65 0 0.9157348061512735 0.7777851165097998
66 0 0.7777851165098019 0.9157348061512721
67 0 0.5975451610080643 0.9903926402016152
68 0.2 0.343633703506394 0.6246979603717467
69 0.2 0.3050144175636352 0.4554958132087371
70 0.2 0.4132232521764884 0.3198062264195162
71 0.2 0.5867767478235116 0.3198062264195162
72 0.2 0.6949855824363648 0.4554958132087371
73 0.2 0.656366296493606 0.6246979603717466
74 0.2 0.4132232521764884 0.6801937735804838
75 0.2 0.3050144175636352 0.5445041867912629
76 0.2 0.343633703506394 0.3753020396282533
77 0.2 0.5 0.3
78 0.2 0.6563662964936059 0.3753020396282533
79 0.2 0.6949855824363648 0.5445041867912629
80 0.2 0.5867767478235116 0.6801937735804838
81 0 0.343633703506394 0.6246979603717467
82 0 0.3050144175636352 0.4554958132087371
83 0 0.4132232521764884 0.3198062264195162
84 0 0.5867767478235116 0.3198062264195162
85 0 0.6949855824363648 0.4554958132087371
86 0 0.656366296493606 0.6246979603717466
87 0 0.4132232521764884 0.6801937735804838
88 0 0.3050144175636352 0.5445041867912629
89 0 0.343633703506394 0.3753020396282533
90 0 0.5 0.3
91 0 0.6563662964936059 0.3753020396282533
92 0 0.6949855824363648 0.5445041867912629
93 0 0.5867767478235116 0.6801937735804838
94 0.1 0.5000000000000001 0.7
95 0.09971891262303298 0.009605766940174731 0.5975371528273496
96 0.09996457000202114 0.08427757770104016 0.2221963506397274
97 0.1000602405475066 0.7777852534808878 0.08426528536991412
98 0.09995534357884553 0.009614922028645445 0.4024168287919044
99 0.09982904403111945 0.2222176344603452 0.0842633557224074
100 0.09976877901103447 0.2222148834901995 0.915734806151273
101 0.09978792850122217 0.08426486888742918 0.7777846301702338
102 0.1001418376712734 0.4024555005363536 0.009607228209482399
103 0.09953742330251718 0.4024548389919361 0.9903926402016152
104 0.1000806055900904 0.5975452550957741 0.009607378513603271
105 0.100165957266041 0.9157222941753174 0.777803841092255
106 0.1002989641496691 0.9903937662580895 0.4024605002308999
107 0.1001513726220793 0.9157353174004617 0.2222156486302056
108 0.09953742330251719 0.5975451610080643 0.9903926402016152
109 0.09985745707917756 0.7777823026299764 0.9157366863118868
110 0.1000655942660423 0.9903851366717071 0.5975828762205293
111 0.04976871165125859 0.4509914298352199 0.9975923633360985
112 0.1497687116512586 0.4509914298352199 0.9975923633360985
113 0.1497687116512586 0.5490085701647807 0.9975923633360984
114 0.0497687116512586 0.5490085701647807 0.9975923633360984
115 0.1497687116512586 0.3548576613727691 0.9784701678661045
116 0.1497687116512586 0.6451423386272317 0.9784701678661043
117 0.04976871165125859 0.3548576613727691 0.9784701678661045
118 0.0497687116512586 0.6451423386272317 0.9784701678661043
119 0.1498843895055172 0.2643016315870017 0.9409606321741778
120 0.1498843895055172 0.1828033579181779 0.886505226681369
121 0.09965310115677582 0.3086582838174555 0.9619397662556435
122 0.1498939642506111 0.1134945877854985 0.8171964160089112
123 0.1498939642506111 0.05903922996229383 0.7356981104882965
124 0.09977835375612831 0.1464464026079657 0.8535531837943922
125 0.1498594563115165 0.02152864705437874 0.6451384318862055
126 0.1498594563115165 0.002407236522720069 0.5490045072931435
127 0.09975342056212758 0.03805855952730752 0.691337674215022
128 0.1499776717894228 0.002409536372692589 0.4509721455990447
129 0.1499776717894228 0.02153545750815999 0.3548391182925847
130 0.09983712810093925 5.503767441794594e-10 0.4999765398901783
131 0.1499822850010106 0.05904462155811963 0.2642918028086888
132 0.1499822850010106 0.1135018436014616 0.1827947429494098
133 0.09995995679043333 0.0380719150150326 0.308630085169793
134 0.1499145220155597 0.1828046366942337 0.1134937238577839
135 0.1499145220155597 0.264303090531389 0.05903858800690354
136 0.09989680701657029 0.1464556598381388 0.1464375592069851
137 0.1500709188356367 0.3548579841032006 0.02152973423480825
138 0.1500709188356367 0.4509917654636408 0.00240760360750164
139 0.09998544085119643 0.3086601237532852 0.03805947162227491
140 0.1500403027950452 0.5490086178993107 0.00240764136534477
141 0.1500403027950452 0.6451423845273497 0.02152984605754671
142 0.1001112216306819 0.5000003852178737 1.483813072411522e-13
143 0.1500301202737533 0.7356984410540893 0.05903940665330198
144 0.1500301202737533 0.81719670575227 0.113494825571626
145 0.1000704230687985 0.6913418365939484 0.03806028362041142
146 0.1500756863110396 0.886505518573641 0.1828037135902742
147 0.1500756863110396 0.9409608490696381 0.264302037370316
148 0.100105806584793 0.8535537741840833 0.146446992997952
149 0.1501494820748346 0.978471005640404 0.3548604231732073
150 0.1501494820748346 0.9975926462122628 0.4509943020100952
151 0.1002251683858742 0.9619410467744889 0.3086613752926777
152 0.1500327971330212 0.9975904783734582 0.549027704740005
153 0.1500327971330212 0.9784645861520505 0.64516073779899
154 0.1001822792078557 0.9999999995110034 0.5000221132669436
155 0.1500829786330205 0.9409553240873227 0.7357082988760559
156 0.1500829786330205 0.8864980832506784 0.8172053461774433
157 0.1001157757660417 0.9619280984134574 0.6913698824165579
158 0.1499287285395888 0.817195334062511 0.8865063001413716
159 0.1499287285395888 0.7356968761052533 0.9409614298260393
160 0.1000117071726093 0.8535442318792857 0.8535625490700137
161 0.09969744019084738 0.6913401528771146 0.9619404137948555
162 0.04988438950551723 0.1828033579181779 0.886505226681369
163 0.04988438950551723 0.2643016315870017 0.9409606321741778
164 0.04989396425061109 0.05903922996229383 0.7356981104882965
165 0.04989396425061109 0.1134945877854985 0.8171964160089112
166 0.04985945631151649 0.002407236522720069 0.5490045072931435
167 0.04985945631151649 0.02152864705437874 0.6451384318862055
168 0.04997767178942276 0.02153545750815999 0.3548391182925847
169 0.04997767178942276 0.002409536372692589 0.4509721455990447
170 0.04998228500101057 0.1135018436014616 0.1827947429494098
171 0.04998228500101057 0.05904462155811963 0.2642918028086888
172 0.04991452201555972 0.264303090531389 0.05903858800690354
173 0.04991452201555972 0.1828046366942337 0.1134937238577839
174 0.0500709188356367 0.4509917654636408 0.00240760360750164
175 0.0500709188356367 0.3548579841032006 0.02152973423480825
176 0.05004030279504521 0.6451423845273497 0.02152984605754671
177 0.05004030279504521 0.5490086178993107 0.00240764136534477
178 0.05003012027375332 0.81719670575227 0.113494825571626
179 0.05003012027375332 0.7356984410540893 0.05903940665330198
180 0.05007568631103963 0.9409608490696381 0.264302037370316
181 0.05007568631103963 0.886505518573641 0.1828037135902742
182 0.05014948207483457 0.9975926462122628 0.4509943020100952
183 0.05014948207483457 0.978471005640404 0.3548604231732073
184 0.05003279713302116 0.9784645861520505 0.64516073779899
185 0.05003279713302116 0.9975904783734582 0.549027704740005
186 0.05008297863302052 0.8864980832506784 0.8172053461774433
187 0.05008297863302052 0.9409553240873227 0.7357082988760559
188 0.04992872853958878 0.7356968761052533 0.9409614298260393
189 0.04992872853958878 0.817195334062511 0.8865063001413716
190 0.2 0.1777198744029644 0.5723329548399936
191 0.2 0.8222801255970356 0.5723329548399932
192 0.2 0.7603969306774081 0.2970856672353532
193 0.2 0.2396030693225916 0.2970856672353536
194 0.2 0.3518369361935499 0.7935707698505474
195 0.2 0.6428056074365787 0.7965388993925651
196 0.2 0.4999999999999986 0.1549709293590261
197 0.2 0.1534274074237031 0.4240221302061216
198 0.2 0.8465725925762967 0.4240221302061207
199 0.2 0.2174328761227837 0.7137256712208857
200 0.2 0.7842573582472288 0.7113887260380275
201 0.2 0.6784137570553462 0.1912739332329949
202 0.2 0.321586242944651 0.1912739332329965
203 0.2 0.4973686929841945 0.8500000000000001
204 0.2 0.4030134884008251 0.9059698831278218
205 0.2 0.4986843464920973 0.925
206 0.2 0.5943552045833699 0.9059698831278217
207 0.2 0.425918468096775 0.7467853849252737
208 0.2 0.347735319849972 0.709134365111147
209 0.2 0.6495859519650923 0.7106184298821558
210 0.2 0.5714028037182893 0.7482694496962825
211 0.2 0.4986843464920973 0.775
212 0.2 0.4246028145888722 0.8217853849252738
213 0.2 0.5700871502103866 0.8232694496962826
214 0.2 0.2491417728001384 0.8235620802219109
215 0.2 0.3302476100055027 0.8777552680530956
216 0.2 0.1277465549335705 0.7025336937017159
217 0.2 0.1819397427647553 0.7836395309070801
218 0.2 0.2846349061581668 0.7536482205357167
219 0.2 0.08885993720148222 0.5361664774199976
220 0.2 0.1078900540736608 0.6318373355112699
221 0.2 0.1975763752628741 0.6430293130304396
222 0.2 0.09574382058402942 0.3663402070117895
223 0.2 0.07671370371185154 0.4620110651030617
224 0.2 0.1655736409133337 0.4981775425230576
225 0.2 0.1930248393646579 0.2217661383210409
226 0.2 0.1388316515334737 0.3028719755264055
227 0.2 0.1965152383731473 0.3605538987207376
228 0.2 0.3151222633810516 0.1146670834886772
229 0.2 0.2340164261756876 0.1688602713198624
230 0.2 0.2805946561336213 0.244179800234175
231 0.2 0.4999999999999974 0.07748546467951301
232 0.2 0.4043291419087254 0.09651558155169193
233 0.2 0.4107931214723248 0.1731224312960112
234 0.2 0.5956708580912699 0.0965155815516906
235 0.2 0.7659835738243088 0.1688602713198594
236 0.2 0.6848777366189437 0.1146670834886749
237 0.2 0.5892068785276724 0.1731224312960105
238 0.2 0.8611683484665252 0.302871975526403
239 0.2 0.8069751606353398 0.2217661383210386
240 0.2 0.7194053438663772 0.244179800234174
241 0.2 0.9232862962881483 0.4620110651030592
242 0.2 0.9042561794159696 0.3663402070117867
243 0.2 0.8034847616268523 0.3605538987207369
244 0.2 0.8921099459263399 0.6318373355112681
245 0.2 0.9111400627985178 0.5361664774199955
246 0.2 0.8344263590866661 0.4981775425230569
247 0.2 0.8189053744202516 0.7824710583156502
248 0.2 0.8730985622514364 0.7013652211102852
249 0.2 0.8032687419221322 0.6418608404390104
250 0.2 0.6670736618095618 0.8792393328241042
251 0.2 0.7481794990149265 0.8250461449929191
252 0.2 0.7135314828419037 0.7539638127152963
253 0.2 0.2606767889546792 0.5985154576058701
254 0.2 0.2413671459832998 0.5139143840243654
255 0.2 0.2805332898145889 0.6692118157963163
256 0.2 0.2723087434431135 0.3762907402220453
257 0.2 0.32641316074954 0.3084459468274349
258 0.2 0.2292209124936692 0.4397589717074294
259 0.2 0.4566116260882435 0.2373885778892711
260 0.2 0.5433883739117551 0.2373885778892711
261 0.2 0.3674047475605697 0.2555400798262564
262 0.2 0.6735868392504598 0.3084459468274347
263 0.2 0.7276912565568864 0.3762907402220451
264 0.2 0.6325952524394289 0.2555400798262555
265 0.2 0.7586328540167001 0.5139143840243652
266 0.2 0.7393232110453207 0.5985154576058699
267 0.2 0.7707790875063307 0.4397589717074288
268 0.2 0.7203118273704173 0.6680433432048871
269 0 0.1777198744029644 0.5723329548399936
270 0 0.8222801255970356 0.5723329548399931
271 0 0.7603969306774081 0.2970856672353531
272 0 0.2396030693225916 0.2970856672353536
273 0 0.3518369361935499 0.7935707698505474
274 0 0.6428056074365788 0.7965388993925651
275 0 0.4999999999999986 0.1549709293590261
276 0 0.1534274074237031 0.4240221302061216
277 0 0.8465725925762967 0.4240221302061206
278 0 0.2174328761227837 0.7137256712208857
279 0 0.7842573582472288 0.7113887260380275
280 0 0.6784137570553461 0.1912739332329949
281 0 0.321586242944651 0.1912739332329965
282 0 0.4973686929841945 0.8499999999999999
283 0 0.4986843464920973 0.9249999999999999
284 0 0.403013488400825 0.9059698831278218
285 0 0.5943552045833699 0.9059698831278216
286 0 0.347735319849972 0.709134365111147
287 0 0.425918468096775 0.7467853849252737
288 0 0.5714028037182893 0.7482694496962825
289 0 0.6495859519650924 0.7106184298821558
290 0 0.4246028145888722 0.8217853849252736
291 0 0.4986843464920973 0.7749999999999999
292 0 0.5700871502103866 0.8232694496962825
293 0 0.3302476100055027 0.8777552680530956
294 0 0.2491417728001384 0.8235620802219109
295 0 0.1819397427647553 0.7836395309070801
296 0 0.1277465549335705 0.7025336937017159
297 0 0.2846349061581668 0.7536482205357166
298 0 0.1078900540736608 0.6318373355112699
299 0 0.08885993720148222 0.5361664774199976
300 0 0.1975763752628741 0.6430293130304396
301 0 0.07671370371185154 0.4620110651030617
302 0 0.09574382058402942 0.3663402070117895
303 0 0.1655736409133337 0.4981775425230576
304 0 0.1388316515334737 0.3028719755264055
305 0 0.1930248393646579 0.2217661383210409
306 0 0.1965152383731473 0.3605538987207376
307 0 0.2340164261756876 0.1688602713198624
308 0 0.3151222633810516 0.1146670834886772
309 0 0.2805946561336213 0.244179800234175
310 0 0.4043291419087254 0.09651558155169193
311 0 0.4999999999999974 0.07748546467951301
312 0 0.4107931214723248 0.1731224312960112
313 0 0.5956708580912699 0.0965155815516906
314 0 0.6848777366189436 0.114667083488675
315 0 0.7659835738243088 0.1688602713198595
316 0 0.5892068785276723 0.1731224312960105
317 0 0.8069751606353398 0.2217661383210385
318 0 0.8611683484665252 0.3028719755264029
319 0 0.7194053438663771 0.244179800234174
320 0 0.9042561794159696 0.3663402070117867
321 0 0.9232862962881483 0.4620110651030591
322 0 0.8034847616268523 0.3605538987207368
323 0 0.9111400627985178 0.5361664774199955
324 0 0.8921099459263399 0.6318373355112681
325 0 0.8344263590866661 0.4981775425230568
326 0 0.8730985622514364 0.7013652211102852
327 0 0.8189053744202517 0.7824710583156502
328 0 0.8032687419221322 0.6418608404390103
329 0 0.7481794990149266 0.8250461449929191
330 0 0.667073661809562 0.8792393328241042
331 0 0.7135314828419037 0.7539638127152963
332 0 0.2413671459832998 0.5139143840243653
333 0 0.2606767889546792 0.5985154576058701
334 0 0.2805332898145889 0.6692118157963163
335 0 0.32641316074954 0.3084459468274349
336 0 0.2723087434431135 0.3762907402220453
337 0 0.2292209124936692 0.4397589717074294
338 0 0.5433883739117551 0.2373885778892711
339 0 0.4566116260882435 0.2373885778892711
340 0 0.3674047475605697 0.2555400798262564
341 0 0.7276912565568864 0.3762907402220451
342 0 0.6735868392504598 0.3084459468274346
343 0 0.6325952524394288 0.2555400798262555
344 0 0.7393232110453207 0.5985154576058699
345 0 0.7586328540167001 0.5139143840243651
346 0 0.7707790875063307 0.4397589717074288
347 0 0.7203118273704174 0.6680433432048871
348 0.09874737050594624 0.6949855824363648 0.5445041867912629
349 0.09895513961545885 0.6563883578365169 0.3753297086985134
350 0.1006737510075802 0.6095931219832109 0.6673001721875177
351 0.1019810559378722 0.3050144175636353 0.5445041867912629
352 0.1010786974090392 0.3436563366486732 0.3752736638480589
353 0.1000043132744746 0.500300057582283 0.3000002250865084
354 0.100147665642721 0.4008942574844852 0.673718311644019
355 0.05033687550379008 0.5571837632658803 0.6916507688968447
356 0.1503368755037901 0.5571837632658803 0.6916507688968447
357 0.1500738328213605 0.448734330828535 0.6933179535490739
358 0.05007383282136052 0.448734330828535 0.6933179535490739
359 0.1500738328213605 0.3699337115598986 0.6519301175258426
360 0.1503368755037901 0.6346749426657781 0.6478602712630049
361 0.05007383282136052 0.3699337115598986 0.6519301175258426
362 0.05033687550379008 0.6346749426657781 0.6478602712630049
363 0.1509905279689361 0.3 0.5
364 0.1509905279689361 0.3198062264195162 0.5867767478235116
365 0.1010643607902966 0.3393871133179099 0.619178440297086
366 0.1505393487045196 0.3753162290585581 0.3436223888664939
367 0.1505393487045196 0.3198141014162075 0.4132069014751102
368 0.1015298766734557 0.3050184567443764 0.4554781201019612
369 0.1500021566372373 0.5446504415669143 0.305047856980541
370 0.1500021566372373 0.4556420930276221 0.3049810878683047
371 0.1005415053417569 0.4133748052175442 0.31973332080248
372 0.1494775698077294 0.6802014499214939 0.4132391940667255
373 0.1494775698077294 0.6247117934429609 0.343644736013653
374 0.09947972644496675 0.5869278301634548 0.3198790618970866
375 0.1493736852529731 0.6801937735804838 0.5867767478235116
376 0.1493736852529731 0.7 0.4999999999999999
377 0.09885125506070255 0.6949895189111743 0.4555130635490732
378 0.09971056075676321 0.6642003663328316 0.6141851115345774
379 0.0509905279689361 0.3198062264195162 0.5867767478235116
380 0.0509905279689361 0.3 0.5
381 0.05053934870451962 0.3198141014162075 0.4132069014751102
382 0.05053934870451962 0.3753162290585581 0.3436223888664939
383 0.05000215663723732 0.4556420930276221 0.3049810878683047
384 0.05000215663723732 0.5446504415669143 0.305047856980541
385 0.04947756980772942 0.6247117934429609 0.343644736013653
386 0.04947756980772942 0.6802014499214939 0.4132391940667255
387 0.04937368525297312 0.7 0.4999999999999999
388 0.04937368525297312 0.6801937735804838 0.5867767478235116
389 0.1 0.8344263590866661 0.4981775425230569
390 0.05003279713302116 0.9184788646240019 0.510802503213325
391 0.1500327971330212 0.9063326311343713 0.5849579155302613
392 0.1500327971330212 0.9184788646240019 0.510802503213325
393 0.1 0.8465725925762967 0.4240221302061206
394 0.04985945631151649 0.08151658718193891 0.5107796415167356
395 0.04985945631151649 0.09366282067156956 0.5849350538336716
396 0.1498594563115165 0.08151658718193891 0.5107796415167356
397 0.1 0.1655736409133337 0.4981775425230576
398 0.1 0.1534274074237031 0.4240221302061216
399 0.05014948207483457 0.918483179417193 0.4132413152185102
400 0.1501494820748346 0.918483179417193 0.4132413152185103
401 0.04997767178942276 0.08152116472617427 0.413219479499013
402 0.1499776717894228 0.08152116472617427 0.413219479499013
403 0.04947756980772942 0.7514804752064068 0.399675919452317
404 0.1 0.7707790875063307 0.4397589717074289
405 0.1494775698077294 0.7514804752064068 0.3996759194523171
406 0.05053934870451962 0.2485418720361882 0.3996478970270902
407 0.1 0.2292209124936692 0.4397589717074294
408 0.1505393487045196 0.2485418720361882 0.3996478970270902
409 0.04937368525297312 0.7707790875063307 0.4842631584986917
410 0.1493736852529731 0.7707790875063307 0.4842631584986918
411 0.0509905279689361 0.2292209124936692 0.4842631584986923
412 0.1509905279689361 0.2292209124936692 0.4842631584986923
413 0.05003279713302116 0.9063326311343713 0.5849579155302612
414 0.1 0.8222801255970356 0.5723329548399931
415 0.1498594563115165 0.09366282067156956 0.5849350538336716
416 0.1 0.1777198744029644 0.5723329548399936
417 0.04998228500101057 0.1188524925623716 0.3231092404229245
418 0.04998228500101057 0.1619403235118159 0.2596410089375405
419 0.1 0.1965152383731474 0.3605538987207376
420 0.1499822850010106 0.1188524925623716 0.3231092404229245
421 0.1 0.8034847616268523 0.3605538987207368
422 0.05007568631103963 0.8811539549883791 0.3231188894181631
423 0.1500756863110396 0.8380661240389349 0.2596506579327794
424 0.1500756863110396 0.8811539549883791 0.3231188894181631
425 0.05008297863302052 0.8499898262112731 0.7445962835651412
426 0.05008297863302052 0.8690012098861765 0.6750683979661241
427 0.1500829786330205 0.8499898262112731 0.7445962835651412
428 0.1 0.8032687419221322 0.6418608404390103
429 0.1 0.7842573582472288 0.7113887260380275
430 0.04989396425061109 0.1309923716451968 0.6750587925051137
431 0.04989396425061109 0.1508488725051065 0.7457551506955598
432 0.1498939642506111 0.1508488725051065 0.7457551506955598
433 0.1 0.2174328761227837 0.7137256712208857
434 0.1 0.1975763752628741 0.6430293130304396
435 0.04937368525297312 0.7396214703417967 0.6279464564146452
436 0.1493736852529731 0.7396214703417967 0.6279464564146452
437 0.1503368755037901 0.6969252401152198 0.6893444491127726
438 0.05033687550379008 0.6969252401152198 0.6893444491127726
439 0.05007383282136052 0.3091635668036344 0.6937219914324524
440 0.0509905279689361 0.2612236468432095 0.6291149290060742
441 0.1509905279689361 0.2612236468432095 0.6291149290060742
442 0.1500738328213605 0.3091635668036344 0.6937219914324524
443 0.1493736852529731 0.7586328540167002 0.5584185708156281
444 0.0509905279689361 0.2413671459832998 0.5584185708156282
445 0.05000215663723732 0.410943150263467 0.2456370791597524
446 0.05000215663723732 0.5001500287911408 0.2274855772227672
447 0.1500021566372373 0.410943150263467 0.2456370791597524
448 0.1 0.4107931214723248 0.1731224312960113
449 0.1 0.321586242944651 0.1912739332329965
450 0.1 0.5892068785276723 0.1731224312960105
451 0.05000215663723732 0.5893569073188145 0.2456370791597516
452 0.1500021566372373 0.5001500287911408 0.2274855772227672
453 0.1500021566372373 0.5893569073188146 0.2456370791597516
454 0.1 0.6784137570553461 0.1912739332329949
455 0.1494775698077294 0.7083926442569626 0.3362076879669333
456 0.05053934870451962 0.2916297029856324 0.3361796655417063
457 0.1500829786330205 0.8690012098861765 0.6750683979661241
458 0.1 0.7135314828419037 0.7539638127152963
459 0.1503368755037901 0.6261993647098948 0.7319195357900414
460 0.1 0.3674047475605697 0.2555400798262563
461 0.1 0.6325952524394289 0.2555400798262555
462 0.1498939642506111 0.1309923716451968 0.6750587925051137
463 0.04947756980772942 0.6674010574459315 0.2833018209657542
464 0.1494775698077294 0.6674010574459316 0.2833018209657541
465 0.1505393487045196 0.3326212897966621 0.2832737985405277
466 0.05053934870451962 0.3326212897966621 0.2832737985405277
467 0.1500709188356367 0.3620208717405023 0.1004405807212394
468 0.0500709188356367 0.4512277502681761 0.08228907878425423
469 0.0500709188356367 0.3620208717405023 0.1004405807212394
470 0.1500403027950452 0.5487726275478864 0.08228915393631467
471 0.05004030279504521 0.6379795060755601 0.1004406558732991
472 0.1500403027950452 0.6379795060755602 0.1004406558732991
473 0.04992872853958878 0.7810198304386026 0.8135627061749571
474 0.1499287285395888 0.7102939550332775 0.8561377928522259
475 0.1499287285395888 0.7810198304386026 0.8135627061749571
476 0.04937368525297312 0.7586328540167002 0.558418570815628
477 0.1509905279689361 0.2413671459832998 0.5584185708156282
478 0.1499822850010106 0.1619403235118159 0.2596410089375405
479 0.1 0.2396030693225916 0.2970856672353536
480 0.1 0.7603969306774081 0.2970856672353531
481 0.05007568631103963 0.8380661240389349 0.2596506579327794
482 0.05007383282136052 0.3763655968390176 0.7336445407472831
483 0.1 0.2846349061581668 0.7536482205357166
484 0.04988438950551723 0.2198238798064916 0.8147302386860793
485 0.04988438950551723 0.2870259098418747 0.8546527880009103
486 0.1498843895055172 0.2198238798064916 0.8147302386860793
487 0.04991452201555972 0.2309103518914684 0.1906745114788805
488 0.04991452201555972 0.2719019387024981 0.1377686444777019
489 0.1 0.2805946561336213 0.244179800234175
490 0.1499145220155597 0.2719019387024981 0.1377686444777019
491 0.05003012027375332 0.7690910920791479 0.1906754763026336
492 0.05003012027375332 0.728099505268117 0.1377696093014545
493 0.1500301202737533 0.728099505268117 0.1377696093014545
494 0.1 0.7194053438663772 0.244179800234174
495 0.04947756980772942 0.7083926442569626 0.3362076879669332
496 0.1505393487045196 0.2916297029856324 0.3361796655417063
497 0.1 0.4999999999999986 0.1549709293590261
498 0.1 0.6428056074365787 0.7965388993925651
499 0.05033687550379008 0.6261993647098949 0.7319195357900414
500 0.1 0.4986843464920973 0.7749999999999999
501 0.05033687550379008 0.5534809074837027 0.7586500860937588
502 0.04992872853958878 0.7102939550332776 0.8561377928522259
503 0.1499145220155597 0.2309103518914684 0.1906745114788805
504 0.1500301202737533 0.7690910920791479 0.1906754763026337
505 0.1500709188356367 0.4512277502681761 0.08228907878425423
506 0.05004030279504521 0.5487726275478864 0.08228915393631467
507 0.1 0.3518369361935499 0.7935707698505474
508 0.1500738328213605 0.3763655968390176 0.7336445407472831
509 0.1498843895055172 0.2870259098418747 0.8546527880009103
510 0.1 0.4973686929841945 0.85
511 0.1503368755037901 0.5534809074837027 0.7586500860937588
512 0.1 0.5700871502103866 0.8232694496962826
513 0.05007383282136052 0.4491314752343398 0.7618591558220094
514 0.1500738328213605 0.4491314752343398 0.7618591558220096
515 0.1 0.4246028145888722 0.8217853849252738
516 0.04976871165125859 0.377145887592743 0.8919817050260813
517 0.1497687116512586 0.377145887592743 0.8919817050260813
518 0.1497687116512586 0.4499117659880653 0.9201963201008077
519 0.0497687116512586 0.6201753842223215 0.8934657697970901
520 0.1497687116512586 0.6201753842223214 0.8934657697970901
521 0.04976871165125859 0.4499117659880653 0.9201963201008075
522 0.1497687116512586 0.5474569269961294 0.9201963201008077
523 0.0497687116512586 0.5474569269961294 0.9201963201008075
524 0.1 0.4986843464920973 0.925
$EndNodes
$Elements
427
1 9 2 1 1 2 103 1 111 112 36
2 9 2 1 1 1 108 2 113 114 36
3 9 2 1 1 1 103 5 112 115 20
4 9 2 1 1 19 108 1 116 113 35
5 9 2 1 1 37 103 2 117 111 52
6 9 2 1 1 2 108 51 114 118 67
7 9 2 1 1 5 100 6 119 120 21
8 9 2 1 1 5 103 100 115 121 119
9 9 2 1 1 6 101 7 122 123 22
10 9 2 1 1 100 101 6 124 122 120
11 9 2 1 1 7 95 8 125 126 23
12 9 2 1 1 7 101 95 123 127 125
13 9 2 1 1 8 98 9 128 129 24
14 9 2 1 1 95 98 8 130 128 126
15 9 2 1 1 9 96 10 131 132 25
16 9 2 1 1 9 98 96 129 133 131
17 9 2 1 1 10 99 11 134 135 26
18 9 2 1 1 96 99 10 136 134 132
19 9 2 1 1 11 102 12 137 138 27
20 9 2 1 1 99 102 11 139 137 135
21 9 2 1 1 12 104 13 140 141 28
22 9 2 1 1 102 104 12 142 140 138
23 9 2 1 1 13 97 14 143 144 29
24 9 2 1 1 13 104 97 141 145 143
25 9 2 1 1 14 107 15 146 147 30
26 9 2 1 1 97 107 14 148 146 144
27 9 2 1 1 15 106 16 149 150 31
28 9 2 1 1 15 107 106 147 151 149
29 9 2 1 1 16 110 17 152 153 32
30 9 2 1 1 106 110 16 154 152 150
31 9 2 1 1 17 105 18 155 156 33
32 9 2 1 1 17 110 105 153 157 155
33 9 2 1 1 18 109 19 158 159 34
34 9 2 1 1 105 109 18 160 158 156
35 9 2 1 1 19 109 108 159 161 116
36 9 2 1 1 38 100 37 162 163 53
37 9 2 1 1 100 103 37 121 117 163
38 9 2 1 1 39 101 38 164 165 54
39 9 2 1 1 38 101 100 165 124 162
40 9 2 1 1 40 95 39 166 167 55
41 9 2 1 1 95 101 39 127 164 167
42 9 2 1 1 41 98 40 168 169 56
43 9 2 1 1 40 98 95 169 130 166
44 9 2 1 1 42 96 41 170 171 57
45 9 2 1 1 96 98 41 133 168 171
46 9 2 1 1 43 99 42 172 173 58
47 9 2 1 1 42 99 96 173 136 170
48 9 2 1 1 44 102 43 174 175 59
49 9 2 1 1 43 102 99 175 139 172
50 9 2 1 1 45 104 44 176 177 60
51 9 2 1 1 44 104 102 177 142 174
52 9 2 1 1 46 97 45 178 179 61
53 9 2 1 1 97 104 45 145 176 179
54 9 2 1 1 47 107 46 180 181 62
55 9 2 1 1 46 107 97 181 148 178
56 9 2 1 1 48 106 47 182 183 63
57 9 2 1 1 106 107 47 151 180 183
58 9 2 1 1 49 110 48 184 185 64
59 9 2 1 1 48 110 106 185 154 182
60 9 2 1 1 50 105 49 186 187 65
61 9 2 1 1 105 110 49 157 184 187
62 9 2 1 1 51 109 50 188 189 66
63 9 2 1 1 50 109 105 189 160 186
64 9 2 1 1 108 109 51 161 188 118
65 9 2 2 2 5 203 1 204 205 20
66 9 2 2 2 1 203 19 205 206 35
67 9 2 2 2 3 194 68 207 208 74
68 9 2 2 2 73 195 3 209 210 80
69 9 2 2 2 3 203 194 211 212 207
70 9 2 2 2 195 203 3 213 211 210
71 9 2 2 2 6 194 5 214 215 21
72 9 2 2 2 194 203 5 212 204 215
73 9 2 2 2 7 199 6 216 217 22
74 9 2 2 2 6 199 194 217 218 214
75 9 2 2 2 8 190 7 219 220 23
76 9 2 2 2 190 199 7 221 216 220
77 9 2 2 2 9 197 8 222 223 24
78 9 2 2 2 8 197 190 223 224 219
79 9 2 2 2 10 193 9 225 226 25
80 9 2 2 2 193 197 9 227 222 226
81 9 2 2 2 11 202 10 228 229 26
82 9 2 2 2 10 202 193 229 230 225
83 9 2 2 2 12 196 11 231 232 27
84 9 2 2 2 196 202 11 233 228 232
85 9 2 2 2 13 196 12 234 231 28
86 9 2 2 2 14 201 13 235 236 29
87 9 2 2 2 13 201 196 236 237 234
88 9 2 2 2 15 192 14 238 239 30
89 9 2 2 2 192 201 14 240 235 239
90 9 2 2 2 16 198 15 241 242 31
91 9 2 2 2 15 198 192 242 243 238
92 9 2 2 2 17 191 16 244 245 32
93 9 2 2 2 191 198 16 246 241 245
94 9 2 2 2 18 200 17 247 248 33
95 9 2 2 2 17 200 191 248 249 244
96 9 2 2 2 19 195 18 250 251 34
97 9 2 2 2 195 200 18 252 247 251
98 9 2 2 2 19 203 195 206 213 250
99 9 2 2 2 68 190 69 253 254 75
100 9 2 2 2 68 199 190 255 221 253
101 9 2 2 2 194 199 68 218 255 208
102 9 2 2 2 69 193 70 256 257 76
103 9 2 2 2 190 197 69 224 258 254
104 9 2 2 2 69 197 193 258 227 256
105 9 2 2 2 70 196 71 259 260 77
106 9 2 2 2 193 202 70 230 261 257
107 9 2 2 2 70 202 196 261 233 259
108 9 2 2 2 71 192 72 262 263 78
109 9 2 2 2 71 201 192 264 240 262
110 9 2 2 2 196 201 71 237 264 260
111 9 2 2 2 72 191 73 265 266 79
112 9 2 2 2 72 198 191 267 246 265
113 9 2 2 2 192 198 72 243 267 263
114 9 2 2 2 191 200 73 249 268 266
115 9 2 2 2 73 200 195 268 252 209
116 9 2 3 3 37 2 282 52 283 284
117 9 2 3 3 2 51 282 67 285 283
118 9 2 3 3 4 81 273 87 286 287
119 9 2 3 3 86 4 274 93 288 289
120 9 2 3 3 4 273 282 287 290 291
121 9 2 3 3 274 4 282 288 291 292
122 9 2 3 3 38 37 273 53 293 294
123 9 2 3 3 273 37 282 293 284 290
124 9 2 3 3 39 38 278 54 295 296
125 9 2 3 3 38 273 278 294 297 295
126 9 2 3 3 40 39 269 55 298 299
127 9 2 3 3 269 39 278 298 296 300
128 9 2 3 3 41 40 276 56 301 302
129 9 2 3 3 40 269 276 299 303 301
130 9 2 3 3 42 41 272 57 304 305
131 9 2 3 3 272 41 276 304 302 306
132 9 2 3 3 43 42 281 58 307 308
133 9 2 3 3 42 272 281 305 309 307
134 9 2 3 3 44 43 275 59 310 311
135 9 2 3 3 275 43 281 310 308 312
136 9 2 3 3 45 44 275 60 311 313
137 9 2 3 3 46 45 280 61 314 315
138 9 2 3 3 45 275 280 313 316 314
139 9 2 3 3 47 46 271 62 317 318
140 9 2 3 3 271 46 280 317 315 319
141 9 2 3 3 48 47 277 63 320 321
142 9 2 3 3 47 271 277 318 322 320
143 9 2 3 3 49 48 270 64 323 324
144 9 2 3 3 270 48 277 323 321 325
145 9 2 3 3 50 49 279 65 326 327
146 9 2 3 3 49 270 279 324 328 326
147 9 2 3 3 51 50 274 66 329 330
148 9 2 3 3 274 50 279 329 327 331
149 9 2 3 3 51 274 282 330 292 285
150 9 2 3 3 81 82 269 88 332 333
151 9 2 3 3 81 269 278 333 300 334
152 9 2 3 3 273 81 278 286 334 297
153 9 2 3 3 82 83 272 89 335 336
154 9 2 3 3 269 82 276 332 337 303
155 9 2 3 3 82 272 276 336 306 337
156 9 2 3 3 83 84 275 90 338 339
157 9 2 3 3 272 83 281 335 340 309
158 9 2 3 3 83 275 281 339 312 340
159 9 2 3 3 84 85 271 91 341 342
160 9 2 3 3 84 271 280 342 319 343
161 9 2 3 3 275 84 280 338 343 316
162 9 2 3 3 85 86 270 92 344 345
163 9 2 3 3 85 270 277 345 325 346
164 9 2 3 3 271 85 277 341 346 322
165 9 2 3 3 270 86 279 344 347 328
166 9 2 3 3 86 274 279 289 331 347
167 9 2 4 4 3 4 350 94 355 356
168 9 2 4 4 4 3 354 94 357 358
169 9 2 4 4 3 68 354 74 359 357
170 9 2 4 4 73 3 350 80 356 360
171 9 2 4 4 81 4 354 87 358 361
172 9 2 4 4 4 86 350 93 362 355
173 9 2 4 4 68 69 351 75 363 364
174 9 2 4 4 68 351 354 364 365 359
175 9 2 4 4 69 70 352 76 366 367
176 9 2 4 4 351 69 352 363 367 368
177 9 2 4 4 70 71 353 77 369 370
178 9 2 4 4 352 70 353 366 370 371
179 9 2 4 4 71 72 349 78 372 373
180 9 2 4 4 71 349 353 373 374 369
181 9 2 4 4 72 73 348 79 375 376
182 9 2 4 4 72 348 349 376 377 372
183 9 2 4 4 348 73 350 375 360 378
184 9 2 4 4 82 81 351 88 379 380
185 9 2 4 4 351 81 354 379 361 365
186 9 2 4 4 83 82 352 89 381 382
187 9 2 4 4 82 351 352 380 368 381
188 9 2 4 4 84 83 353 90 383 384
189 9 2 4 4 83 352 353 382 371 383
190 9 2 4 4 85 84 349 91 385 386
191 9 2 4 4 349 84 353 385 384 374
192 9 2 4 4 86 85 348 92 387 388
193 9 2 4 4 348 85 349 387 386 377
194 9 2 4 4 86 348 350 388 378 362
195 11 2 1 50 191 277 110 198 389 390 391 246 392 393
196 11 2 1 50 95 276 269 197 394 303 395 396 397 398
197 11 2 1 50 106 110 277 198 154 390 399 400 393 392
198 11 2 1 50 95 98 276 197 130 401 394 396 398 402
199 11 2 1 50 85 349 277 198 386 403 346 404 393 405
200 11 2 1 50 82 276 352 197 337 406 381 407 408 398
201 11 2 1 50 348 85 277 198 387 346 409 410 393 404
202 11 2 1 50 276 82 351 197 337 380 411 398 412 407
203 11 2 1 50 277 191 110 270 389 391 390 325 413 414
204 11 2 1 50 190 95 269 197 415 395 416 224 397 396
205 11 2 1 50 272 276 96 197 306 417 418 419 420 398
206 11 2 1 50 277 198 192 107 393 243 421 422 423 424
207 11 2 1 50 105 279 270 200 425 328 426 427 428 429
208 11 2 1 50 101 269 278 199 430 300 431 432 433 434
209 11 2 1 50 200 279 348 350 429 435 436 437 378 438
210 11 2 1 50 351 354 278 199 365 439 440 441 433 442
211 11 2 1 50 191 348 277 198 443 409 389 246 393 410
212 11 2 1 50 351 269 276 197 444 303 411 412 398 397
213 11 2 1 50 354 278 81 351 439 334 361 365 379 440
214 11 2 1 50 353 281 275 202 445 312 446 447 448 449
215 11 2 1 50 354 351 68 199 365 364 359 442 255 441
216 11 2 1 50 196 280 353 201 450 451 452 237 453 454
217 11 2 1 50 198 349 277 192 405 403 393 243 421 455
218 11 2 1 50 352 276 272 197 406 306 456 408 419 398
219 11 2 1 50 200 270 105 191 428 426 427 249 457 414
220 11 2 1 50 279 195 350 200 458 459 438 429 437 252
221 11 2 1 50 83 281 353 202 340 445 383 460 447 449
222 11 2 1 50 353 280 84 201 451 343 384 453 461 454
223 11 2 1 50 199 101 269 190 432 430 434 221 416 462
224 11 2 1 50 276 98 96 197 401 133 417 398 420 402
225 11 2 1 50 277 106 198 107 399 400 393 422 424 151
226 11 2 1 50 280 349 84 201 463 385 343 454 461 464
227 11 2 1 50 83 281 202 352 340 449 460 382 465 466
228 11 2 1 50 202 281 275 102 449 312 448 467 468 469
229 11 2 1 50 196 104 280 201 470 471 450 237 454 472
230 11 2 1 50 195 279 109 200 458 473 474 252 475 429
231 11 2 1 50 191 270 105 110 414 426 457 391 157 413
232 11 2 1 50 101 95 269 190 127 395 430 462 416 415
233 11 2 1 50 348 200 350 73 436 437 378 375 360 268
234 11 2 1 50 270 348 277 191 476 409 325 414 389 443
235 11 2 1 50 269 351 190 197 444 477 416 397 224 412
236 11 2 1 50 86 348 279 350 388 435 347 362 438 378
237 11 2 1 50 96 272 197 193 418 419 420 478 227 479
238 11 2 1 50 271 277 192 107 322 421 480 481 423 422
239 11 2 1 50 354 273 278 199 482 297 439 442 433 483
240 11 2 1 50 200 270 348 279 428 476 436 429 435 328
241 11 2 1 50 278 269 351 199 300 444 440 433 441 434
242 11 2 1 50 100 278 273 199 484 297 485 486 483 433
243 11 2 1 50 277 48 110 106 321 185 390 399 154 182
244 11 2 1 50 95 8 98 197 126 128 130 396 402 223
245 11 2 1 50 16 110 106 198 152 154 150 241 400 392
246 11 2 1 50 40 98 276 95 169 401 301 166 394 130
247 11 2 1 50 272 99 281 202 487 488 309 489 449 490
248 11 2 1 50 97 271 280 201 491 319 492 493 454 494
249 11 2 1 50 271 277 349 192 322 403 495 480 455 421
250 11 2 1 50 272 352 197 193 456 408 419 479 227 496
251 11 2 1 50 199 269 351 190 434 444 441 221 477 416
252 11 2 1 50 270 200 348 191 428 436 476 414 443 249
253 11 2 1 50 8 95 190 197 126 415 219 223 224 396
254 11 2 1 50 277 48 270 110 321 323 325 390 413 185
255 11 2 1 50 110 16 191 198 152 245 391 392 246 241
256 11 2 1 50 269 40 276 95 299 301 303 395 394 166
257 11 2 1 50 196 353 275 202 452 446 497 233 448 447
258 11 2 1 50 353 275 280 196 446 316 451 452 450 497
259 11 2 1 50 105 109 279 200 160 473 425 427 429 475
260 11 2 1 50 195 279 350 274 458 438 459 498 499 331
261 11 2 1 50 49 279 270 105 326 328 324 187 426 425
262 11 2 1 50 105 17 200 191 155 248 427 457 249 244
263 11 2 1 50 101 7 95 190 123 125 127 462 415 220
264 11 2 1 50 270 49 105 110 324 187 426 413 157 184
265 11 2 1 50 105 17 191 110 155 244 457 157 391 153
266 11 2 1 50 95 269 39 101 395 298 167 127 164 430
267 11 2 1 50 282 3 4 350 500 94 291 501 355 356
268 11 2 1 50 100 101 278 199 124 431 484 486 433 432
269 11 2 1 50 7 101 199 190 123 432 216 220 221 462
270 11 2 1 50 278 39 269 101 296 298 300 431 430 164
271 11 2 1 50 279 109 274 195 473 502 331 458 498 474
272 11 2 1 50 272 99 202 193 487 490 489 479 230 503
273 11 2 1 50 97 192 271 201 504 480 491 493 494 240
274 11 2 1 50 202 275 196 102 448 497 233 467 505 468
275 11 2 1 50 104 280 275 196 471 316 506 470 497 450
276 11 2 1 50 349 280 271 201 463 319 495 464 494 454
277 11 2 1 50 202 281 272 352 449 309 489 465 456 466
278 11 2 1 50 199 354 273 194 442 482 483 218 507 508
279 11 2 1 50 273 100 199 194 485 486 483 507 218 509
280 11 2 1 50 202 99 281 102 490 488 449 467 469 139
281 11 2 1 50 104 97 280 201 145 492 471 472 454 493
282 11 2 1 50 96 99 272 193 136 487 418 478 479 503
283 11 2 1 50 97 271 192 107 491 480 504 148 423 481
284 11 2 1 50 106 277 47 107 399 320 183 151 180 422
285 11 2 1 50 96 98 9 197 133 129 131 420 222 402
286 11 2 1 50 41 276 98 96 302 401 168 171 133 417
287 11 2 1 50 15 198 106 107 242 400 149 147 151 424
288 11 2 1 50 3 282 203 350 500 510 211 356 511 501
289 11 2 1 50 195 203 274 350 213 512 498 459 499 511
290 11 2 1 50 192 349 271 201 455 495 480 240 494 464
291 11 2 1 50 352 272 202 193 456 489 465 496 230 479
292 11 2 1 50 10 99 96 193 134 136 132 225 478 503
293 11 2 1 50 97 46 271 107 178 317 491 148 481 181
294 11 2 1 50 192 14 97 107 239 144 504 423 148 146
295 11 2 1 50 99 272 42 96 487 305 173 136 170 418
296 11 2 1 50 282 3 354 4 500 357 513 291 358 94
297 11 2 1 50 203 282 274 350 510 292 512 511 499 501
298 11 2 1 50 273 354 203 194 482 514 515 507 212 508
299 11 2 1 50 103 100 273 194 121 485 516 517 507 509
300 11 2 1 50 282 273 354 203 290 482 513 510 514 515
301 11 2 1 50 281 275 83 353 312 339 340 445 383 446
302 11 2 1 50 202 196 353 70 233 452 447 261 370 259
303 11 2 1 50 3 282 354 203 500 513 357 211 514 510
304 11 2 1 50 84 275 280 353 338 316 343 384 451 446
305 11 2 1 50 196 353 71 201 452 369 260 237 264 453
306 11 2 1 50 203 103 273 194 518 516 515 212 507 517
307 11 2 1 50 277 271 47 107 322 318 320 422 180 481
308 11 2 1 50 9 96 197 193 131 420 222 226 227 478
309 11 2 1 50 41 272 276 96 304 306 302 171 417 418
310 11 2 1 50 15 192 198 107 238 243 242 147 424 423
311 11 2 1 50 109 105 18 200 160 156 158 475 247 427
312 11 2 1 50 109 279 50 105 473 327 189 160 186 425
313 11 2 1 50 4 274 282 350 288 292 291 355 501 499
314 11 2 1 50 202 99 10 193 490 134 229 230 225 503
315 11 2 1 50 195 3 203 350 210 211 213 459 511 356
316 11 2 1 50 280 46 271 97 315 317 319 492 491 178
317 11 2 1 50 97 14 192 201 144 239 504 493 240 235
318 11 2 1 50 42 272 99 281 305 487 173 307 488 309
319 11 2 1 50 100 6 101 199 120 122 124 486 432 217
320 11 2 1 50 101 278 38 100 431 295 165 124 162 484
321 11 2 1 50 276 82 269 351 337 332 303 411 444 380
322 11 2 1 50 198 72 349 192 267 372 405 243 455 263
323 11 2 1 50 82 276 272 352 337 306 336 381 456 406
324 11 2 1 50 348 191 72 198 443 265 376 410 267 246
325 11 2 1 50 109 108 274 195 161 519 502 474 498 520
326 11 2 1 50 103 273 282 203 516 290 521 518 510 515
327 11 2 1 50 349 277 271 85 403 322 495 386 341 346
328 11 2 1 50 197 352 69 193 408 367 258 227 256 496
329 11 2 1 50 348 277 85 270 409 346 387 476 345 325
330 11 2 1 50 203 274 108 195 512 519 522 213 520 498
331 11 2 1 50 69 190 351 197 254 477 363 258 412 224
332 11 2 1 50 282 274 108 203 292 519 523 510 522 512
333 11 2 1 50 5 100 103 194 119 121 115 215 517 509
334 11 2 1 50 273 37 100 103 293 163 485 516 121 117
335 11 2 1 50 97 280 45 104 492 314 179 145 176 471
336 11 2 1 50 43 281 99 102 308 488 172 175 139 469
337 11 2 1 50 11 99 202 102 135 490 228 137 467 139
338 11 2 1 50 201 104 97 13 472 145 493 236 143 141
339 11 2 1 50 278 269 81 351 300 333 334 440 379 444
340 11 2 1 50 191 200 348 73 249 436 443 266 375 268
341 11 2 1 50 109 108 195 19 161 520 474 159 250 116
342 11 2 1 50 274 108 109 51 519 161 502 330 188 118
343 11 2 1 50 351 68 199 190 364 255 441 477 221 253
344 11 2 1 50 86 348 270 279 388 476 344 347 328 435
345 11 2 1 50 273 278 81 354 297 334 286 482 361 439
346 11 2 1 50 199 68 354 194 255 359 442 218 508 208
347 11 2 1 50 275 44 104 102 311 177 506 468 142 174
348 11 2 1 50 196 104 12 102 470 140 231 505 138 142
349 11 2 1 50 274 86 279 350 289 347 331 499 438 362
350 11 2 1 50 350 200 195 73 437 252 459 360 209 268
351 11 2 1 50 196 275 104 102 497 506 470 505 142 468
352 11 2 1 50 18 195 109 200 251 474 158 247 475 252
353 11 2 1 50 109 50 279 274 189 327 473 502 331 329
354 11 2 1 50 199 100 6 194 486 120 217 218 214 509
355 11 2 1 50 273 38 278 100 294 295 297 485 484 162
356 11 2 1 50 275 281 43 102 312 308 310 468 175 469
357 11 2 1 50 275 45 280 104 313 314 316 506 471 176
358 11 2 1 50 201 196 104 13 237 470 472 236 141 234
359 11 2 1 50 202 196 11 102 233 232 228 467 137 505
360 11 2 1 50 4 282 273 354 291 290 287 358 482 513
361 11 2 1 50 354 3 203 194 357 211 514 508 212 207
362 11 2 1 50 192 71 349 201 262 373 455 240 464 264
363 11 2 1 50 281 83 272 352 340 335 309 466 456 382
364 11 2 1 50 95 7 8 190 125 23 126 415 219 220
365 11 2 1 50 49 270 48 110 324 323 64 184 185 413
366 11 2 1 50 16 191 17 110 245 244 32 152 153 391
367 11 2 1 50 39 40 269 95 55 299 298 167 395 166
368 11 2 1 50 349 271 280 84 495 319 463 385 343 342
369 11 2 1 50 352 202 70 193 465 261 366 496 257 230
370 11 2 1 50 81 269 82 351 333 332 88 379 380 444
371 11 2 1 50 348 191 73 72 443 266 375 376 79 265
372 11 2 1 50 85 86 348 270 92 388 387 345 476 344
373 11 2 1 50 351 68 190 69 364 253 477 363 254 75
374 11 2 1 50 46 47 271 107 62 318 317 181 481 180
375 11 2 1 50 96 9 10 193 131 25 132 478 225 226
376 11 2 1 50 272 41 42 96 304 57 305 418 170 171
377 11 2 1 50 192 15 14 107 238 30 239 423 146 147
378 11 2 1 50 275 43 44 102 310 59 311 468 174 175
379 11 2 1 50 275 44 45 104 311 60 313 506 176 177
380 11 2 1 50 12 104 196 13 140 470 231 28 234 141
381 11 2 1 50 196 12 11 102 231 27 232 505 137 138
382 11 2 1 50 83 275 84 353 339 338 90 383 384 446
383 11 2 1 50 71 353 196 70 369 452 260 77 259 370
384 11 2 1 50 72 71 349 192 78 373 372 263 455 262
385 11 2 1 50 83 82 272 352 89 336 335 382 456 381
386 11 2 1 50 84 349 271 85 385 495 342 91 341 386
387 11 2 1 50 70 69 352 193 76 367 366 257 496 256
388 11 2 1 50 5 103 203 194 115 518 204 215 212 517
389 11 2 1 50 37 273 282 103 293 290 284 117 521 516
390 11 2 1 50 203 108 1 19 522 113 205 206 35 116
391 11 2 1 50 51 108 2 282 118 114 67 285 283 523
392 11 2 1 50 277 47 48 106 320 63 321 399 182 183
393 11 2 1 50 8 9 98 197 24 129 128 223 402 222
394 11 2 1 50 98 276 41 40 401 302 168 169 56 301
395 11 2 1 50 198 106 16 15 400 150 241 242 31 149
396 11 2 1 50 5 6 100 194 21 120 119 215 509 214
397 11 2 1 50 273 37 38 100 293 53 294 485 162 163
398 11 2 1 50 4 86 274 350 93 289 288 355 499 362
399 11 2 1 50 108 203 195 19 522 213 520 116 250 206
400 11 2 1 50 195 3 350 73 210 356 459 209 360 80
401 11 2 1 50 51 274 108 282 330 519 118 285 523 292
402 11 2 1 50 103 1 5 203 112 20 115 518 204 205
403 11 2 1 50 37 282 2 103 284 283 52 117 111 521
404 11 2 1 50 19 195 109 18 250 474 159 34 158 251
405 11 2 1 50 109 50 274 51 189 329 502 188 330 66
406 11 2 1 50 4 273 81 354 287 286 87 358 361 482
407 11 2 1 50 3 354 68 194 357 359 74 207 208 508
408 11 2 1 50 6 7 101 199 22 123 122 217 432 216
409 11 2 1 50 39 278 38 101 296 295 54 164 165 431
410 11 2 1 50 279 49 50 105 326 65 327 425 186 187
411 11 2 1 50 17 18 105 200 33 156 155 248 427 247
412 11 2 1 50 99 10 11 202 134 26 135 490 228 229
413 11 2 1 50 46 280 45 97 315 314 61 178 179 492
414 11 2 1 50 97 14 201 13 144 235 493 143 236 29
415 11 2 1 50 281 99 42 43 488 173 307 308 58 172
416 11 2 1 50 349 348 198 85 377 410 405 386 404 387
417 11 2 1 50 198 348 349 72 410 377 405 267 372 376
418 11 2 1 50 352 351 197 69 368 412 408 367 258 363
419 11 2 1 50 352 197 351 82 408 412 368 381 380 407
420 11 2 1 50 353 349 201 84 374 464 453 384 461 385
421 11 2 1 50 353 201 349 71 453 464 374 369 373 264
422 11 2 1 50 353 352 202 70 371 465 447 370 261 366
423 11 2 1 50 202 352 353 83 465 371 447 460 383 382
424 11 2 1 50 282 2 203 108 283 524 510 523 522 114
425 11 2 1 50 282 203 2 103 510 524 283 521 111 518
426 11 2 1 50 1 203 2 108 205 524 36 113 114 522
427 11 2 1 50 1 2 203 103 36 524 205 112 518 111
$EndElements
