**ABCDEFGHIJKLMNOPQRSTUVWXYZabcdefghijklmnopqrstuvwxyz**************************
**PARASOLID !"#$%&'()*+,-./:;<=>?@[\]^_`{|}~0123456789**************************
**PART1;
MC=unknown;
MC_MODEL=unknown;
MC_ID=unknown;
OS=unknown;
OS_RELEASE=unknown;
FRU=sdl_parasolid_customer_support;
APPL=parasolid_acceptance_tests;
SITE=unknown;
USER=unknown;
FORMAT=text;
GUISE=transmit;
KEY=/users/kamrak/Desktop/MFEM_model/cavity3d/cavity3d_nat.x_t;
FILE=/users/kamrak/Desktop/MFEM_model/cavity3d/cavity3d_nat.x_t;
DATE=unknown;
**PART2;
SCH=SCH_2700142_26105;
USFLD_SIZE=1;
**PART3;
**END_OF_HEADER*****************************************************************
T51 : TRANSMIT FILE created by modeller version 270014223 SCH_2700142_26105_1300
6196 1 12 30 CCCCCCCCCCCCCDI5 owner1040 0 CCCCCCCCCA13 boundary_mesh1006 0 A16 i
ndex_map_offset0 0 1 dA9 index_map82 0 A17 node_id_index_map82 0 A20 schema_embe
dding_map82 0 A5 child12 0 A14 lowest_node_id0 0 1 dZ1 136 2 3 0 0 0 0 1e3 1e-8
 0 0 0 1 0 1 1 4 5 6 7 8 9 10 0 0 0 0 0 0 0 0 81 255 1 2 136 11 1 12 0 0 0 13 0
 70 11 CI9 list_type0 0 1 uI10 notransmit0 0 1 lCCCDCCDI12 finger_index0 0 1 dI1
2 finger_block1012 0 CZ3 0 4 T1 0 0 5 20 1 14 14 0 13 255 4 91 0 1 0 15 0 0 16 0
 0 50 255 5 90 0 15 17 0 0 +-.5 .5 1 1 0 0 0 0 -1 0 30 255 6 86 0 18 19 0 0 +-.5
 .5 1 0 0 -1 0 29 255 7 67 0 20 21 0 .5 .5 0 0 19 8 CCCCCCCA5 owner12 0 Z8 1 0 1
 16 0 22 V0 0 16 255 9 73 23 ?24 0 25 19 0 0 1 0 18 255 10 15 0 26 0 27 28 ?1 0
 17 255 26 0 29 30 31 10 32 33 0 34 +0 18 27 10 0 31 10 35 36 ?1 0 29 28 17 0 10
 36 37 .5 .5 1 0 29 36 12 0 27 38 28 .5 -.5 1 0 29 37 70 0 39 28 40 -.5 .5 0 0 1
8 39 60 0 41 42 0 37 ?1 0 29 40 69 0 42 37 21 -.5 -.5 0 0 18 42 58 0 43 44 39 40
 ?1 0 29 21 68 0 44 40 7 .5 -.5 0 0 18 44 56 0 45 20 42 21 ?1 0 17 45 0 46 47 24
 44 43 48 0 49 +0 18 20 54 0 50 51 44 7 ?1 0 17 50 0 52 34 49 20 53 54 0 55 +0 1
8 51 2 0 30 35 20 56 ?1 0 17 30 0 29 57 26 51 58 59 0 60 +0 18 35 5 0 61 27 51 3
8 ?1 0 29 56 4 0 51 0 38 -.5 .5 1 0 29 38 7 0 35 56 36 -.5 -.5 1 0 17 61 0 46 24
 47 35 31 62 0 57 -0 15 255 46 79 0 45 63 0 0 17 24 0 46 45 61 42 64 9 0 65 +0 1
7 47 0 46 61 45 27 49 25 0 32 -0 17 31 0 29 26 57 27 61 62 0 47 +0 16 62 11 66 ?
31 33 67 68 0 0 1 0 17 57 0 29 31 30 35 69 67 0 64 +0 15 29 23 0 57 70 0 0 17 69
 0 71 72 64 51 57 67 0 0 -0 16 67 6 73 ?57 62 74 75 0 0 1 0 17 64 0 71 69 65 35
 24 9 0 0 -0 15 71 81 0 65 15 0 0 17 65 0 71 64 72 42 76 77 0 0 +0 17 72 0 71 65
 69 39 60 18 0 76 +0 17 76 0 78 79 43 39 65 77 0 0 -0 16 77 52 80 ?65 48 0 81 0
 0 1 0 81 1 80 117 82 77 0 0 73 23 83 0 16 48 50 84 ?45 54 77 85 0 0 1 0 30 81 6
6 0 77 86 85 0 +-.5 .5 0 0 -1 0 0 30 86 22 0 59 87 81 0 +.5 .5 1 -1 0 0 0 30 85
 65 0 48 81 88 0 +-.5 -.5 0 1 0 0 0 30 88 64 0 54 85 89 0 +.5 -.5 0 0 1 0 0 16 5
4 48 90 ?50 74 48 88 0 0 1 0 30 89 63 0 74 88 91 0 +.5 .5 0 -1 0 0 0 16 74 46 92
 ?41 67 54 89 0 0 1 0 30 91 83 0 93 89 94 0 +.5 .5 1 0 0 -1 0 16 93 71 95 ?55 25
 18 91 0 0 1 0 30 94 84 0 25 91 19 0 +.5 -.5 1 0 0 -1 0 16 25 72 96 ?49 9 93 94
 0 0 1 0 30 19 85 0 9 94 6 0 +-.5 -.5 1 0 0 -1 0 81 1 96 115 82 25 0 0 84 73 97
 0 17 49 0 52 50 32 44 47 25 0 53 +0 15 52 77 0 50 98 0 0 17 32 0 52 49 34 27 26
 33 0 0 -0 17 53 0 78 43 79 44 50 54 0 0 -0 15 78 45 0 76 99 0 0 17 43 0 78 76 5
3 42 45 48 0 24 -0 17 79 0 78 53 76 20 41 74 0 0 -0 17 41 0 100 60 55 39 79 74 0
 72 +0 15 100 75 0 41 101 0 0 17 60 0 100 58 41 51 72 18 0 69 -0 17 55 0 100 41
 58 20 34 93 0 79 +0 17 58 0 100 55 60 10 30 59 0 0 -0 17 34 0 52 32 50 10 55 93
 0 58 -0 16 59 20 102 ?30 18 33 86 0 0 1 0 81 1 102 119 82 59 0 0 23 103 104 0 1
6 18 74 103 ?72 93 59 6 0 0 1 0 16 33 16 105 ?26 59 62 87 0 0 1 0 81 1 105 121 8
2 33 0 0 103 92 106 0 30 87 19 0 33 68 86 0 +.5 -.5 1 0 1 0 0 30 68 14 0 62 75 8
7 0 +-.5 -.5 1 1 0 0 0 30 75 9 0 67 0 68 0 +-.5 .5 1 0 -1 0 0 80 255 1 82 107 10
8 9000 1 1 1 1 1 1 1 1 0 FFFFTFTFFFFFFF3 0 81 1 103 120 82 18 0 0 102 105 109 0
 81 1 92 122 82 74 0 0 105 110 111 0 84 255 32 106 9135a9b7edc250ce3a2336eb408d3
cb20 81 1 110 123 82 99 0 112 92 113 114 0 84 32 111 7e97a630f8787b2dde4476ddbfd
0556e0 14 255 99 42 112 ?0 70 78 4 115 -0 0 0 70 22 0 81 1 112 135 116 99 110 0
 117 0 118 0 81 1 113 124 82 101 0 119 110 120 121 0 84 32 114 a26b02afc849d8928
8315d0b656795d70 14 101 76 119 ?70 98 100 4 122 -0 0 70 98 22 0 81 1 119 133 116
 101 113 0 123 117 124 0 81 1 120 125 82 15 0 125 113 126 127 0 84 32 121 11a836
c5fb6862918241fd93ccedd7170 14 15 82 125 ?63 0 71 4 5 -0 0 63 0 22 0 81 1 125 13
0 116 15 120 0 0 128 129 0 81 1 126 126 82 70 0 117 120 130 131 0 84 32 127 92a8
661d4ff7b6129b83de70879b557a0 14 70 24 117 ?99 101 29 4 132 +0 0 99 101 22 0 81
 1 117 134 116 70 126 0 119 112 133 0 81 1 130 127 82 63 0 128 126 134 135 0 84
 32 131 fc1413965da1efcda3d5ed1ee9ce0d010 14 63 80 128 ?98 15 46 4 17 -0 0 98 15
 22 0 81 1 128 131 116 63 130 0 125 123 136 0 81 1 134 128 82 98 0 123 130 0 137
 0 84 32 135 beeb8be1c5773f718b35555c01765e0f0 14 98 78 123 ?101 63 52 4 138 -0
 0 101 63 22 0 81 1 123 132 116 98 134 0 128 119 139 0 84 32 137 04854f2e23cc239
570bbff72bb22eeaa0 80 1 116 0 140 8001 0 0 0 0 3 5 0 0 0 FFFFTFTFFFFFFF2 0 83 25
5 3 139 .5960784 .6666667 .6862745 0 79 255 15 140 SDL/TYSA_COLOUR0 50 138 88 0
 98 122 17 0 +.5 -.5 1 -1 0 0 0 0 1 0 13 22 3 0 0 0 0 0 0 8 15 0 50 122 87 0 101
 115 138 0 +.5 .5 1 0 -1 0 0 0 -1 0 50 17 89 0 63 138 5 0 +-.5 -.5 1 0 1 0 0 0 1
 0 50 115 62 0 99 132 122 0 +0 0 0 0 0 1 1 0 0 0 50 132 25 0 70 0 115 0 +0 0 1 0
 0 1 1 0 0 0 83 3 136 .5960784 .6666667 .6862745 0 83 3 133 .5960784 .6666667 .6
862745 0 83 3 129 .5960784 .6666667 .6862745 0 83 3 124 .5960784 .6666667 .68627
45 0 83 3 118 .5960784 .6666667 .6862745 0 84 32 109 6b3526901a6efd7ee0715586fda
48d580 79 15 108 UGS/ObjectState0 81 1 23 118 82 9 0 0 80 102 141 0 84 32 104 53
645b823f8fa4f7ac5a1d98350ff1090 84 32 141 a1fbc04c639e9da140906648e437fd940 81 1
 84 114 82 48 0 0 66 96 142 0 81 1 73 116 82 67 0 0 96 80 143 0 84 32 97 33d31f6
22f3b273e752621f3d4f5042f0 84 32 143 713fbe43889a868d8bae547df63e0b150 81 1 66 1
13 82 62 0 0 95 84 144 0 84 32 142 99e7ca648d09fb3ef0b7e7f427164baf0 81 1 95 112
 82 93 0 0 90 66 145 0 84 32 144 0c59d88e674a2d1f88f3070e9623399b0 81 1 90 111 8
2 54 0 0 0 95 146 0 84 32 145 122a8871a4cc91a0c95ae8aeeb0ae5ff0 84 32 146 45f465
802bbbda27a9da5fefc67be62d0 84 32 83 c479d46f19623b8ce5b5a7a3586e8fa20 19 16 92
 0 1 0 8 4 S0 0 74 4 CI16 index_map_offset0 0 1 dCCZ20 14 5 0 0 147 134 12 112 2
 0 0 0 0 0 0 0 0 0 0 0 0 0 0 0 0 81 2 147 110 148 1 0 12 0 0 149 150 0 81 1 12 1
29 151 1 147 2 0 0 152 0 80 1 151 82 153 9000 0 0 0 0 3 5 0 0 0 FFTFFFFFFFFFFF1
 0 82 255 1 152 8 0 79 7 153 body_id0 80 2 148 154 155 8004 0 0 0 0 3 5 0 0 0 FF
TFFFFFFFFFFF2 3 0 83 1 149 7830.64 0 84 8 150 Kg/Cu M 0 79 16 155 SDL/TYSA_DENSI
TY0 80 1 11 151 156 9000 0 0 0 0 3 5 0 0 0 FFTFFFFFFFFFFF1 0 82 1 13 129 0 79 24
 156 UG2/BODY_COLOR_ATTRIBUTE0 1 0 
