**ABCDEFGHIJKLMNOPQRSTUVWXYZabcdefghijklmnopqrstuvwxyz**************************
**PARASOLID !"#$%&'()*+,-./:;<=>?@[\]^_`{|}~0123456789**************************
**PART1;
MC=unknown;
MC_MODEL=unknown;
MC_ID=unknown;
OS=unknown;
OS_RELEASE=unknown;
FRU=sdl_parasolid_customer_support;
APPL=parasolid_acceptance_tests;
SITE=unknown;
USER=unknown;
FORMAT=text;
GUISE=transmit;
KEY=/users/shurik/torus_mesh/geom_smf_0.xmt_txt;
FILE=/users/shurik/torus_mesh/geom_smf_0.xmt_txt;
DATE=unknown;
**PART2;
SCH=SCH_1900172_19008;
USFLD_SIZE=1;
**PART3;
**END_OF_HEADER*****************************************************************
T51 : TRANSMIT FILE created by modeller version 190017223 SCH_1900172_19008_1300
6186 1 12 27 CCCCCCCCCCCCCCCCCCCCCCCA16 index_map_offset0 0 1 dA9 index_map82 0
 A17 node_id_index_map82 0 A20 schema_embedding_map82 0 Z1 175 0 0 0 0 0 0 1e3 1
e-8 0 2 0 1 0 1 1 3 4 5 0 6 7 0 0 0 0 0 0 13 255 3 3 0 1 0 8 0 0 9 0 0 54 255 4
 6 0 8 10 0 11 +0 0 0 0 0 1 1 .5 1 0 0 0 38 255 5 57 0 7 12 0 0 +4 10 13 14 14 0
 19 255 6 1 0 1 9 0 15 V0 16 255 7 61 0 ?16 0 17 5 0 0 1 0 17 255 16 0 18 16 16
 0 19 7 0 0 +0 16 17 62 0 ?20 7 21 12 0 0 1 0 17 20 0 22 20 20 0 23 17 0 0 +0 16
 21 64 0 ?24 17 25 26 0 0 1 0 38 12 52 0 17 26 5 0 +4 10 27 28 28 0 38 26 38 0 2
1 29 12 0 +4 30 31 32 32 0 51 255 10 127 0 33 30 4 34 +-1.5 0 0 1 0 0 .2 0 0 -1
 0 40 255 23 27 0 1 23 .0160962627056435 .3945449616333965 ??-.512040965273453 -
.1207802479230322 -.1594118305260025 -.532473786306133 -.0677306237284042 -.1881
822590186475 -.541684886258179 -.00534518883640573 -.1999285596314425 -.53676168
3666102 .0496876420167481 -.193729549193755 -.522433741912813 .0975795040465954
 -.174580183268378 -.499517680611777 .143636554347774 -.139170903047652 -.472407
31513826 .1829180630187055 -.0808763390707371 -.459979578297377 .198015198489629
 -.0281066036210855 -.460022306167405 .1979656420625515 .0284535509692844 -.4709
64253393653 .1847462834840115 .0766081636566574 -.496086242774899 .1492482848418
486 .1331350797940438 -.522837244990415 .0965618533720196 .1751451069067035 -.53
8158593840778 .04215789299809185 .1955062967220275 -.541084198633942 -.018076242
5095673 .199181448575753 -.532079516625479 -.0691513650002166 .187664830798439 -
.514286210674194 -.1161772143344914 .1627969743867425 -.488547253096542 -.160830
356798536 .118884802780068 -.464145889881079 -.193110516282787 .0520416035590313
 -.458258204190571 -.199999272863931 .000539308723258897 -.463932428641836 -.193
365451102665 -.0510862243649199 -.47881727023058 -.174527377062034 -.09767392003
9316 -.502387678652967 -.1387537741059318 -.1440395437765618 -.512040965273453 -
.1207802479230322 -.1594118305260025 0 41 255 1 28 H-.512040965273453 -.12078024
79230322 -.1594118305260025 0 14 255 33 122 0 ?35 8 36 3 10 -37 37 35 8 15 0 51
 30 130 0 35 0 10 38 +0 -1.5 0 0 1 0 .3 0 0 1 0 141 255 34 5 39 40 10 0 141 39 1
2 41 34 10 0 141 40 42 34 41 10 0 38 42 10 0 43 0 44 0 +4 10 45 46 46 0 141 41 4
4 40 39 10 0 38 44 15 0 47 42 48 0 +4 10 49 50 50 0 16 47 71 0 ?51 52 43 44 0 0
 1 0 38 48 23 0 52 44 53 0 +4 30 54 55 55 0 40 23 49 0 1 23 .01408402210684548 .
3797588072803985 ??.495525022469773 -.1501443927045115 -.132123659271886 .471508
954464577 -.184058693915515 -.0782457487287 .459642738992808 -.1984053436535585
 -.0252055472012285 .460387755408847 -.1975411721258405 .03126476155592915 .4718
0761465798 -.1836804090149905 .0791296868696311 .497473307612401 -.1470079451277
97 .1356048084298734 .524230531561302 -.092959705434784 .1770832944280125 .53871
7088847868 -.03873764111696325 .196212627424163 .540873226844784 .02077132475320
505 .1989184558254885 .531420227542324 .0714631435193546 .1867967320868655 .5132
05150581286 .1184169758648672 .161175121613168 .487194343738858 .162812638483575
 .116155261396188 .466125731742105 .1907265738052105 .0601944685542259 .45840929
7645097 .199826081261596 .00833889966566345 .462588208729801 .194961663694915 -.
0446088521406999 .476312712341962 .1778602859320015 -.0914643028081815 .50423259
1523279 .1355148466073422 -.147090877857835 .530315228594029 .0751761827809672 -
.185333595288287 .540794744619408 .02168852102494965 -.1988205423384375 .5393289
00216722 -.0346032786903327 -.196983788936753 .527565169846433 -.083693323968321
2 -.181646435481497 .502095268761545 -.139259706533433 -.1435504585023056 .49552
5022469772 -.1501443927045115 -.132123659271886 0 41 1 50 H.495525022469772 -.15
01443927045115 -.132123659271886 0 16 52 70 0 ?56 57 47 48 0 0 1 0 38 53 28 0 57
 48 29 0 +4 30 58 59 59 0 40 21 54 0 1 21 .01970501883824535 .3798724717569855 ?
?-.14054892123239 1.417020857247234 -.2650396210765695 -.221622191480008 1.44034
194686548 -.2021969441994575 -.2770637186143185 1.460537109288644 -.115046494199
5438 -.2995890004146565 1.46952611981642 -.01569811550941315 -.2894302844702255
 1.465421839602118 .0789310485897946 -.251531450108301 1.450870434041192 .163499
020200169 -.186820336690908 1.42931933658996 .2347299763530335 -.096478516347038
9 1.408169492704606 .2840631899480715 .00481279385986436 1.400020680335186 .2999
61392541211 .0947279436433953 1.407880479096864 .284651746337685 .17457800657963
85 1.4257890855533 .24397237470394 .2444944390022895 1.448312371645632 .17384610
8086882 .2892363354702755 1.465344269425444 .079638823721388 .299380551001352 1.
469441102162556 -.0192687747956896 .2788868338532105 1.46124927271467 -.11055376
02405802 .2314252023728365 1.443691763260678 -.1908988625075895 .157036965121299
 1.42107110837805 -.255615710756385 .059943078071557 1.4031867505188 -.293950382
5330175 -.038785208962458 1.401339335407404 -.2974822810954265 -.124143237236564
4 1.41338007117958 -.2731088732509915 -.14054892123239 1.417020857247234 -.26503
96210765695 0 41 1 55 H-.14054892123239 1.417020857247234 -.2650396210765695 0 1
6 57 65 0 ?60 25 52 53 0 0 1 0 38 29 33 0 25 53 26 0 +4 30 61 62 62 0 40 25 58 0
 1 25 .0289846713309015 .3850100718628715 ??-.265787023496832 .4466479832300015
 -.1391303638344076 -.1831779780525485 .529248676446547 -.2375833082448765 -.106
5654535154942 .576277841664027 -.280435026551672 -.03963934823311725 .5967255669
9797 -.297369672414074 .0328267526248227 .597754574683952 -.298198598776233 .093
2021071797035 .58186805589195 -.2851549880630935 .170947282716308 .5385208061964
93 -.246529970859347 .2522365577543945 .462842882267886 -.1624091097574705 .2860
012020147495 .420170760596168 -.0905721394586574 .2985063413572215 .402230691950
592 -.02989923359429025 .2979430530761015 .4030668768372425 .03507045941659945 .
286691283004887 .41921365882095 .0883635006606903 .249098190209203 .466429589750
526 .167182809028021 .1642558846377225 .543301323977253 .251037854440081 .092644
9264098841 .582084697928875 .2853364989105095 .026375941937051 .598550466280638
 .298838266771398 -.0435019251579929 .596056090800231 .2968292143768 -.102776924
2080876 .577939698550641 .2818455318970395 -.1822122258448115 .530006239757433 .
2383247883722535 -.2604733185211605 .453138972667864 .1488410237084326 -.2886153
140222055 .4165254343384655 .0818608606836238 -.2992111165900515 .40118058620281
8 .0217418423537372 -.297119521083229 .4042844512919685 -.04147276445177765 -.28
03964931730265 .4278090543036285 -.1066668018470086 -.265787023496832 .446647983
2300015 -.1391303638344074 0 41 1 59 H-.265787023496832 .4466479832300015 -.1391
303638344074 0 16 25 68 0 ?63 21 57 29 0 0 1 0 40 25 61 0 1 25 .0281085732625458
 .3756811754664215 ??-.172219562300498 -.537588638165204 -.2456428756569685 -.25
90566232677575 -.454838554329388 -.1512933109595635 -.288177779551917 -.41713931
4457336 -.0833880529364166 -.299103269815046 -.4013415575711885 -.02317830852214
45 -.2972760269932995 -.4040535099082315 .04033563901909885 -.2809222805968825 -
.4271025596108735 .105274271615844 -.2332341556198745 -.483670339252499 .1886844
68497765 -.157769623640366 -.547741124475237 .255164154724713 -.0871632797216829
 -.584146111972156 .28705846559222 -.02127321424719495 -.599057113107097 .299244
8000477085 .0474960828925052 -.595298282550094 .296216343421271 .106475442190598
2 -.576318034191467 .2804692143717675 .186533137901004 -.526582518878346 .234958
269624214 .2632585846760245 -.4497597078906325 .1438572820345788 .28960065917129
45 -.415137377742312 .0783036283166487 .2994293852422785 -.400854488130346 .0184
9441141078325 .2967657881873995 -.4048056486003115 -.04393252737450505 .27922574
3999889 -.4293748237947 -.1096949583513684 .2286450990569415 -.488391240715011 -
.19422002645773 .148826893352538 -.55355271564688 -.2604813924544945 .0795560759
043675 -.586796842662565 -.2892591066616545 .01415957259503318 -.599582290585329
 -.2996656578654385 -.0531378352005886 -.594114297451467 -.2952564486513295 -.12
39477974247194 -.567866667558466 -.2731976272107075 -.172219562300498 -.53758863
8165204 -.2456428756569685 0 41 1 62 H-.172219562300498 -.537588638165204 -.2456
428756569685 0 17 63 0 64 63 63 0 65 25 0 0 +0 15 255 64 94 0 63 66 0 0 17 65 0
 67 65 65 0 63 25 0 0 -0 15 67 32 0 65 8 68 0 14 8 2 0 ?33 0 69 3 4 +0 0 33 0 15
 0 15 68 27 0 70 8 71 0 17 70 0 68 70 70 0 60 57 0 0 -0 15 71 22 0 72 8 73 0 17
 72 0 71 72 72 0 56 52 0 0 -0 15 73 14 0 74 8 75 0 17 74 0 73 74 74 0 51 47 0 0
 -0 15 75 9 0 76 8 0 0 17 76 0 75 76 76 0 77 43 0 0 -0 17 77 0 78 77 77 0 76 43
 0 0 +0 16 43 73 0 ?77 47 0 42 0 0 1 0 15 78 124 0 77 33 0 0 17 51 0 36 51 51 0
 74 47 0 0 +0 15 36 123 0 51 33 78 0 17 56 0 79 56 56 0 72 52 0 0 +0 15 79 118 0
 56 35 0 0 14 35 116 0 ?66 33 80 3 30 -66 66 66 33 15 0 14 66 92 0 ?37 35 81 3 3
0 -35 35 37 35 15 0 15 80 117 0 60 35 79 0 13 15 4 0 0 0 0 0 0 6 8 0 17 60 0 80
 60 60 0 70 57 0 0 +0 14 37 104 0 ?0 66 18 3 10 -33 33 0 66 15 0 15 81 93 0 24 6
6 64 0 17 24 0 81 24 24 0 82 21 0 0 +0 17 82 0 83 82 82 0 24 21 0 0 -0 15 83 37
 0 82 8 67 0 15 18 105 0 16 37 22 0 15 22 106 0 20 37 0 0 15 69 56 0 19 8 84 0 1
7 19 0 69 19 19 0 16 7 0 0 -0 15 84 51 0 23 8 83 0 17 23 0 84 23 23 0 20 17 0 0
 -0 40 20 45 0 1 20 .01187151216828096 .348872691125001 ??1.471998983405032 -.13
73225178496412 -.1454046976250594 1.463219335525266 -.0818247427969828 -.1824957
847902455 1.45846688533457 -.01672922735713485 -.1992991042429275 1.460016897919
798 .0485734237999927 -.194011913294896 1.466770039829914 .1075418266319854 -.16
86260819821655 1.475984461032866 .1565651710857775 -.1244481707494376 1.48376470
0077858 .189200054884704 -.0648331645967174 1.48660533634499 .199994282493097 .0
01512273147073065 1.483682143373136 .188878846264838 .0657630704397518 1.4762840
56153564 .1579277482865905 .1227144095904276 1.46699245113235 .10896094831744 .1
677125867123995 1.459864533363138 .0464156475054403 .194539424453376 1.458562121
468776 -.02018113244017765 .1989791996501945 1.46328413467442 -.0823624526869747
 .1822537417651165 1.471820173629968 -.136402808780704 .1462678151772792 1.48076
281665393 -.1772129829658485 .0927122358070706 1.48607564432838 -.19801776128632
2 .02808854241774035 1.485637635034048 -.19637124558336 -.0379253728793763 1.479
984505453012 -.1739929831339005 -.0986227246640768 1.471998983405032 -.137322517
849641 -.1454046976250596 0 41 1 46 H1.471998983405032 -.137322517849641 -.14540
46976250596 0 141 38 26 85 86 30 0 141 85 29 87 38 30 0 141 86 48 38 87 30 0 141
 87 53 86 85 30 0 40 21 31 0 1 21 .0196246401328991 .379735020688601 ??-.2085221
591002015 -1.436028709415938 -.215681499355393 -.1260734249906152 -1.41378767335
1932 -.272223238374566 -.02771203082097585 -1.400684687359282 -.298717330176502
 .0667654679538501 -1.40394711906237 -.2924762764548665 .1490841358631854 -1.419
069742653638 -.2603342475240765 .223432716027138 -1.4409529149209 -.200194458986
098 .2782820890821175 -1.461012730815212 -.1120672962826012 .2997325864341885 -1
.469584701636222 -.01266398947693156 .288662155890844 -1.465114801735266 .081695
5308229898 .249942739925462 -1.450288737681824 .1659175299917185 .18439793963852
25 -1.428605797665142 .236637697455557 .0933895532888311 -1.40766285725022 .2850
93653623704 -.00780692785360492 -1.400054411727842 .2998984025924255 -.097292771
2758832 -1.408305607046256 .2837853355222195 -.1769292471260725 -1.4264522983908
72 .2422726594384955 -.2463383856040595 -1.448978030688866 .171223245437019 -.29
0065288371402 -1.46567602018015 .0765645380186902 -.299175911391081 -1.469357670
482448 -.02222102705358295 -.2778220812178385 -1.460833007938106 -.1132028762346
114 -.2295385768170595 -1.443039186679672 -.193163251558879 -.2085221591002015 -
1.436028709415938 -.215681499355393 0 41 1 32 H-.2085221591002015 -1.43602870941
5938 -.215681499355393 0 19 9 5 0 1 0 6 3 S0 40 20 13 0 1 20 .0119178210327611 .
3509229226582615 ??-1.471998983405032 -.1373225178496412 -.1454046976250594 -1.4
80857315370302 -.1776005880895 -.0919675546606721 -1.48608677356403 -.1980594529
1348 -.0277930407046966 -1.485623538704724 -.196318070799448 .03819967378895915
 -1.47995156463034 -.173855592244216 .0988647209342794 -1.47107667059011 -.13251
70002596114 .149797345244147 -1.462436574531172 -.0750369954412172 .185389992489
2245 -1.458316612249076 -.00888372359024879 .1998026012222365 -1.460583644080556
 .05588235399548 .1920342743156125 -1.467788788389884 .113906516432547 .16439375
1445126 -1.477055110888934 .1613884718306545 .1181260392977184 -1.48439748689863
4 .191647388217555 .057195092354063 -1.48654880493905 .199784088918283 -.0092907
3813491403 -1.483008066935622 .186239138428398 -.072903932112391 -1.475226358466
102 .153070075595101 -.128722771712351 -1.46595464031447 .102181466688352 -.1719
271586033375 -1.45936979009185 .0385966206416566 -.1962404160081305 -1.458835434
30242 -.0278062667638481 -.198057596493186 -1.46414226987514 -.0891896771876809
 -.179011735601768 -1.471998983405032 -.1373225178496412 -.1454046976250594 0 41
 1 14 H-1.471998983405032 -.1373225178496412 -.1454046976250594 0 141 11 42 88 8
9 4 0 141 88 5 90 11 4 0 141 89 44 11 91 4 0 141 91 48 89 92 4 0 141 92 53 91 93
 4 0 141 93 29 92 94 4 0 141 94 26 93 90 4 0 141 90 12 94 88 4 0 1 0 
